<svg width="50" height="50" viewBox="0 0 50 50" fill="none" xmlns="http://www.w3.org/2000/svg">
<path fill-rule="evenodd" clip-rule="evenodd" d="M7.53012 3.61446C5.53391 3.61446 3.61446 5.53391 3.61446 7.53012V42.4699C3.61446 44.4661 5.53391 46.3855 7.53012 46.3855H42.4699C44.4661 46.3855 46.3855 44.4661 46.3855 42.4699V7.53012C46.3855 5.53391 44.4661 3.61446 42.4699 3.61446H7.53012ZM0 7.53012C0 3.5377 3.5377 0 7.53012 0H42.4699C46.4623 0 50 3.5377 50 7.53012V42.4699C50 46.4623 46.4623 50 42.4699 50H7.53012C3.5377 50 0 46.4623 0 42.4699V7.53012Z" fill="#1AA9CB"/>
<path d="M16.2254 41.689C19.0992 41.689 21.5767 40.2533 23.7569 38.4215H23.9551L24.3515 41.0949H29.0587V26.6881C29.0587 19.9055 26.0374 16.1924 19.9911 16.1924C16.1263 16.1924 12.6578 17.6776 9.98208 19.3621L12.0632 23.173C14.2434 21.8858 16.5226 20.7966 18.901 20.7966C22.2209 20.7966 23.2614 22.975 23.3605 25.5494C13.3515 26.6386 9.03943 29.3615 9.03943 34.5599C9.04064 38.8176 11.9641 41.689 16.2254 41.689ZM18.0581 37.2333C16.0265 37.2333 14.5401 36.2926 14.5401 34.1143C14.5401 31.6884 16.7202 29.9556 23.3599 29.114V34.5599C21.5272 36.2431 20.0407 37.2333 18.0581 37.2333ZM34.0832 41.0949H39.7814V18.5977H34.0838L34.0832 41.0949ZM36.9571 14.34C38.9886 14.34 40.376 13.0528 40.376 11.0725C40.376 9.14049 38.9886 7.85449 36.9571 7.85449C34.9255 7.85449 33.5388 9.1417 33.5388 11.0713C33.5388 13.0528 34.9261 14.34 36.9577 14.34H36.9571Z" fill="white"/>
</svg>
