<svg width="375" height="136" viewBox="0 0 375 136" fill="none" xmlns="http://www.w3.org/2000/svg">
<path fill-rule="evenodd" clip-rule="evenodd" d="M304.525 32.9823C301.213 32.9823 298.028 36.1593 298.028 39.4632V97.2925C298.028 100.596 301.213 103.773 304.525 103.773H362.505C365.817 103.773 369.002 100.596 369.002 97.2925V39.4632C369.002 36.1593 365.817 32.9823 362.505 32.9823H304.525ZM292.03 39.4632C292.03 32.8553 297.9 27 304.525 27H362.505C369.13 27 375 32.8553 375 39.4632V97.2925C375 103.9 369.13 109.756 362.505 109.756H304.525C297.9 109.756 292.03 103.9 292.03 97.2925V39.4632Z" fill="#1AA9CB"/>
<path d="M193.429 97C198.249 96.9864 202.904 95.25 206.545 92.1073L202.692 85.9099C200.397 87.7855 197.528 89.3358 194.413 89.3358C188.101 89.3358 183.674 84.0354 183.674 76.044C183.674 67.9711 188.183 62.6687 194.659 62.6687C197.201 62.6687 199.25 63.7288 201.382 65.6023L205.972 59.4865C202.744 56.5682 198.529 54.9668 194.168 55.0015C183.427 55.0045 174 62.6697 174 76.043C174 89.3358 182.444 97 193.429 97ZM223.467 97C228.959 97 232.894 94.309 236.419 90.1503H236.665L237.402 96.0215H245.108V55.9831H235.68V83.3801C232.647 87.2942 230.27 88.9251 226.745 88.9251C222.4 88.9251 220.514 86.4788 220.514 79.8756V55.9831H211.088V81.0988C211.088 91.2103 214.858 97 223.467 97ZM270.884 97C275.704 96.9864 280.359 95.25 284 92.1073L280.147 85.9099C277.852 87.7855 274.982 89.3348 271.867 89.3348C265.555 89.3348 261.128 84.0344 261.128 76.043C261.128 67.9701 265.637 62.6677 272.113 62.6677C274.655 62.6677 276.704 63.7278 278.835 65.6013L283.426 59.4855C280.198 56.5672 275.983 54.9659 271.621 55.0006C260.882 55.0006 251.455 62.6657 251.455 76.0391C251.455 89.3358 259.899 97 270.884 97Z" fill="#003C58"/>
<path d="M318.924 97C323.693 97 327.804 94.6237 331.422 91.5919H331.751L332.409 96.0167H340.22V72.1717C340.22 60.9458 335.206 54.8001 325.173 54.8001C318.76 54.8001 313.004 57.2584 308.564 60.0464L312.018 66.3539C315.635 64.2234 319.418 62.4207 323.364 62.4207C328.873 62.4207 330.6 66.0261 330.764 70.2871C314.155 72.0898 307 76.5966 307 85.2004C307.002 92.2474 311.853 97 318.924 97ZM321.966 89.6253C318.594 89.6253 316.128 88.0684 316.128 84.463C316.128 80.4478 319.746 77.5799 330.763 76.1869V85.2004C327.722 87.9864 325.256 89.6253 321.966 89.6253ZM348.558 96.0167H358.013V58.7813H348.559L348.558 96.0167ZM353.327 51.7343C356.698 51.7343 359 49.6039 359 46.3262C359 43.1285 356.698 41 353.327 41C349.955 41 347.654 43.1305 347.654 46.3242C347.654 49.6039 349.956 51.7343 353.328 51.7343H353.327Z" fill="#003C58"/>
<path d="M80.0031 131.088L37.1258 136L39.4651 121.447L0 88.1648L9.9076 82.3065L3.07536 56.1437L26.6552 58.3244L32.0356 49.7846L55.231 69.2903L49.9926 22.4985L63.8465 28.2077L79.8721 0.443293V0L80 0.221258L80.1279 0V0.443293L96.1535 28.2085L110.008 22.4985L104.77 69.2903L127.964 49.7815L133.345 58.3213L156.925 56.1406L150.092 82.3034L160 88.1617L120.538 121.444L122.877 135.997L80.0031 131.088Z" fill="#1AA9CB"/>
</svg>
