<svg width="848" height="472" viewBox="0 0 848 472" fill="none" xmlns="http://www.w3.org/2000/svg">
<rect x="421" y="137.964" width="393" height="335" rx="20" transform="rotate(-6.12969 421 137.964)" fill="black" fill-opacity="0.5"/>
<rect x="451.67" y="236.251" width="354" height="222" rx="20" transform="rotate(-6.12969 451.67 236.251)" fill="black" fill-opacity="0.5"/>
<path d="M577.123 192.227L573.751 184.242L562.167 185.486L560.568 194.005L552.912 194.827L560.62 158.899L569.966 157.895L584.978 191.384L577.123 192.227ZM565.93 165.268L565.682 165.295L563.268 178.88L571.223 178.026L565.93 165.268ZM588.784 190.975L585.058 156.274L601.463 154.513C603.087 154.338 604.576 154.463 605.929 154.888C607.278 155.279 608.452 155.908 609.45 156.773C610.482 157.634 611.32 158.734 611.967 160.073C612.61 161.378 613.019 162.843 613.193 164.467C613.371 166.124 613.285 167.659 612.933 169.071C612.582 170.483 611.994 171.72 611.169 172.781C610.378 173.838 609.366 174.718 608.134 175.42C606.898 176.089 605.468 176.511 603.844 176.685L594.995 177.635L596.341 190.163L588.784 190.975ZM594.291 171.073L602.245 170.219C603.372 170.098 604.22 169.722 604.789 169.091C605.388 168.423 605.627 167.526 605.506 166.399L605.271 164.211C605.15 163.085 604.728 162.275 604.004 161.783C603.31 161.254 602.4 161.05 601.273 161.171L593.319 162.025L594.291 171.073ZM627.971 186.766L620.415 187.578L616.688 152.878L633.144 151.11C634.734 150.939 636.205 151.05 637.554 151.441C638.904 151.833 640.079 152.478 641.081 153.376C642.112 154.237 642.949 155.321 643.592 156.626C644.235 157.932 644.646 159.413 644.824 161.07C645.077 163.423 644.767 165.535 643.895 167.405C643.056 169.272 641.619 170.717 639.583 171.741L647.857 184.631L639.455 185.533L632.023 173.458L626.605 174.04L627.971 186.766ZM633.876 166.822C635.002 166.701 635.85 166.325 636.42 165.694C637.018 165.026 637.257 164.129 637.136 163.002L636.901 160.815C636.78 159.688 636.358 158.878 635.635 158.386C634.941 157.857 634.031 157.653 632.904 157.774L624.95 158.628L625.921 167.676L633.876 166.822ZM651.577 184.231L650.931 178.216L655.405 177.735L652.971 155.066L648.496 155.546L647.85 149.531L664.356 147.758L665.002 153.774L660.527 154.254L662.962 176.924L667.436 176.443L668.082 182.459L651.577 184.231ZM673.384 181.889L669.657 147.189L677.214 146.377L680.22 174.367L693.443 172.946L694.164 179.658L673.384 181.889Z" fill="black" fill-opacity="0.5"/>
<path d="M697.755 394.881L599.52 405.431L596.594 378.188L635.418 337.007C638.907 333.28 641.835 329.948 644.201 327.012C646.554 323.943 648.39 321.064 649.711 318.374C651.149 315.538 652.065 312.824 652.457 310.234C652.982 307.63 653.088 304.87 652.775 301.953L652.476 299.169C652.191 296.518 651.412 294.255 650.137 292.38C648.863 290.505 647.293 288.998 645.428 287.857C643.562 286.716 641.466 285.936 639.141 285.515C636.949 285.08 634.726 284.983 632.472 285.225C629.158 285.581 626.299 286.425 623.894 287.756C621.621 289.073 619.657 290.759 618 292.814C616.462 294.723 615.224 296.934 614.287 299.448C613.336 301.83 612.671 304.383 612.293 307.105L585.175 299.96C586.254 295.016 587.957 290.274 590.285 285.733C592.6 281.059 595.641 276.911 599.409 273.288C603.295 269.518 607.989 266.399 613.49 263.93C618.991 261.462 625.321 259.844 632.48 259.075C640.037 258.263 646.845 258.605 652.906 260.1C658.967 261.594 664.186 263.984 668.561 267.269C673.07 270.54 676.662 274.646 679.339 279.589C682.001 284.399 683.652 289.786 684.293 295.752C684.933 301.718 684.523 307.26 683.061 312.379C681.599 317.497 679.38 322.429 676.403 327.174C673.544 331.772 670.068 336.236 665.973 340.565C661.879 344.893 657.592 349.309 653.114 353.813L629.441 376.873L695.064 369.826L697.755 394.881Z" fill="black" fill-opacity="0.5"/>
<rect x="385" y="102.061" width="393" height="335" rx="20" transform="rotate(-5.85073 385 102.061)" fill="#1AA9CB"/>
<rect x="415.191" y="200.496" width="354" height="222" rx="20" transform="rotate(-5.85073 415.191 200.496)" fill="white"/>
<path d="M540.857 157.084L537.524 149.082L525.934 150.269L524.293 158.781L516.634 159.566L524.516 123.675L533.867 122.717L548.716 156.278L540.857 157.084ZM529.795 130.071L529.547 130.096L527.067 143.67L535.026 142.854L529.795 130.071ZM552.524 155.888L548.966 121.17L565.381 119.488C567.005 119.322 568.493 119.454 569.844 119.885C571.192 120.283 572.363 120.917 573.356 121.787C574.383 122.653 575.217 123.758 575.857 125.099C576.494 126.408 576.895 127.875 577.062 129.499C577.232 131.157 577.138 132.692 576.78 134.102C576.422 135.513 575.828 136.746 574.998 137.803C574.201 138.856 573.185 139.731 571.949 140.428C570.71 141.091 569.279 141.505 567.654 141.672L558.8 142.579L560.085 155.113L552.524 155.888ZM558.127 136.013L566.086 135.198C567.213 135.082 568.063 134.711 568.635 134.082C569.237 133.417 569.48 132.521 569.365 131.394L569.141 129.205C569.025 128.078 568.607 127.266 567.886 126.771C567.195 126.238 566.285 126.03 565.158 126.145L557.2 126.961L558.127 136.013ZM591.731 151.871L584.171 152.645L580.613 117.927L597.077 116.24C598.669 116.077 600.138 116.194 601.486 116.592C602.834 116.991 604.006 117.641 605.003 118.544C606.03 119.411 606.862 120.498 607.499 121.807C608.136 123.115 608.539 124.599 608.709 126.257C608.95 128.611 608.63 130.721 607.749 132.587C606.901 134.45 605.457 135.888 603.416 136.901L611.627 149.832L603.221 150.693L595.848 138.582L590.426 139.137L591.731 151.871ZM597.732 131.955C598.86 131.84 599.71 131.468 600.282 130.839C600.884 130.175 601.127 129.278 601.012 128.151L600.787 125.962C600.672 124.835 600.254 124.023 599.533 123.528C598.842 122.995 597.932 122.787 596.805 122.903L588.846 123.718L589.774 132.771L597.732 131.955ZM615.349 149.45L614.732 143.432L619.209 142.973L616.885 120.292L612.408 120.751L611.791 114.732L628.305 113.04L628.922 119.059L624.445 119.517L626.769 142.199L631.246 141.74L631.863 147.758L615.349 149.45ZM637.167 147.215L633.609 112.497L641.17 111.722L644.039 139.725L657.27 138.369L657.958 145.084L637.167 147.215Z" fill="white"/>
<path d="M594.398 282.254C601.826 281.493 607.055 279.55 610.086 276.425C613.235 273.154 614.593 269.396 614.158 265.151L614.015 263.758C613.498 258.718 611.426 254.843 607.797 252.132C604.301 249.407 599.569 248.351 593.6 248.962C588.03 249.533 582.94 251.529 578.331 254.95C573.709 258.238 569.945 262.712 567.04 268.371L546.544 252.779C548.844 249.059 551.376 245.649 554.141 242.551C556.893 239.321 560.09 236.513 563.733 234.13C567.362 231.613 571.509 229.58 576.176 228.03C580.828 226.347 586.139 225.199 592.108 224.588C599.536 223.826 606.322 224.002 612.468 225.115C618.746 226.214 624.177 228.204 628.761 231.085C633.464 233.82 637.175 237.327 639.892 241.605C642.741 245.87 644.451 250.788 645.022 256.359C645.471 260.736 645.149 264.79 644.057 268.521C643.098 272.238 641.494 275.552 639.245 278.463C637.13 281.361 634.569 283.835 631.562 285.885C628.542 287.803 625.275 289.277 621.762 290.307L621.884 291.501C626.077 291.875 629.993 292.814 633.632 294.318C637.39 295.675 640.672 297.618 643.478 300.145C646.416 302.658 648.811 305.764 650.665 309.461C652.504 313.025 653.669 317.195 654.158 321.97C654.797 328.204 654.114 333.97 652.111 339.268C650.107 344.567 646.968 349.245 642.692 353.302C638.417 357.359 633.131 360.715 626.836 363.37C620.527 365.893 613.46 367.556 605.634 368.358C598.604 369.078 592.295 368.987 586.708 368.086C581.12 367.184 576.148 365.75 571.791 363.784C567.554 361.671 563.747 359.18 560.37 356.309C557.126 353.425 554.193 350.307 551.571 346.957L571.902 327.584C575.537 332.975 579.733 337.303 584.491 340.568C589.368 343.687 595.586 344.86 603.147 344.085C609.911 343.392 614.981 341.197 618.355 337.5C621.848 333.657 623.295 328.818 622.697 322.982L622.575 321.788C621.991 316.085 619.367 312.065 614.705 309.728C610.161 307.245 604.109 306.39 596.549 307.165L584.014 308.449L581.466 283.58L594.398 282.254Z" fill="black"/>
<rect x="66.5376" y="35" width="393" height="335" rx="20" transform="rotate(7.1226 66.5376 35)" fill="black" fill-opacity="0.5"/>
<rect x="73.8599" y="137.7" width="354" height="222" rx="20" transform="rotate(7.1226 73.8599 137.7)" fill="black" fill-opacity="0.5"/>
<path d="M206.064 123.607L204.612 115.062L193.052 113.617L189.542 121.543L181.901 120.588L197.64 87.3834L206.968 88.549L213.903 124.587L206.064 123.607ZM201.349 94.8006L201.101 94.7696L195.638 107.44L203.576 108.432L201.349 94.8006ZM217.702 125.062L222.029 90.431L238.402 92.4769C240.022 92.6794 241.443 93.1424 242.662 93.8659C243.886 94.5563 244.885 95.4369 245.658 96.5077C246.464 97.5826 247.028 98.8457 247.351 100.297C247.678 101.715 247.74 103.234 247.537 104.855C247.331 106.509 246.894 107.983 246.229 109.277C245.563 110.571 244.707 111.64 243.662 112.483C242.649 113.331 241.462 113.955 240.102 114.357C238.746 114.725 237.257 114.807 235.637 114.605L226.805 113.501L225.243 126.004L217.702 125.062ZM227.624 106.952L235.562 107.944C236.686 108.085 237.598 107.913 238.297 107.429C239.033 106.917 239.471 106.098 239.611 104.973L239.884 102.79C240.025 101.666 239.799 100.781 239.208 100.136C238.654 99.4621 237.815 99.0549 236.69 98.9144L228.752 97.9224L227.624 106.952ZM256.81 129.949L249.269 129.006L253.596 94.3755L270.018 96.4276C271.606 96.626 273.012 97.0704 274.235 97.7608C275.459 98.4512 276.456 99.3484 277.225 100.452C278.031 101.527 278.598 102.774 278.924 104.192C279.251 105.61 279.311 107.146 279.104 108.8C278.811 111.148 278.025 113.133 276.748 114.753C275.503 116.378 273.773 117.455 271.557 117.985L276.656 132.428L268.271 131.381L263.805 117.923L258.397 117.247L256.81 129.949ZM267.129 111.889C268.253 112.029 269.165 111.858 269.864 111.374C270.6 110.861 271.038 110.042 271.178 108.918L271.451 106.735C271.592 105.61 271.366 104.725 270.775 104.081C270.221 103.407 269.382 102.999 268.257 102.859L260.319 101.867L259.191 110.897L267.129 111.889ZM280.368 132.892L281.118 126.889L285.584 127.447L288.411 104.823L283.945 104.265L284.695 98.2616L301.167 100.32L300.417 106.323L295.952 105.765L293.125 128.389L297.59 128.947L296.84 134.951L280.368 132.892ZM302.131 135.612L306.458 100.981L314 101.923L310.509 129.856L323.707 131.505L322.87 138.203L302.131 135.612Z" fill="black" fill-opacity="0.5"/>
<path d="M277.027 348.519L178.989 336.268L182.387 309.08L229.618 277.895C233.868 275.067 237.481 272.495 240.458 270.18C243.451 267.732 245.899 265.35 247.801 263.035C249.851 260.604 251.364 258.173 252.34 255.742C253.448 253.327 254.184 250.664 254.547 247.754L254.895 244.975C255.225 242.329 254.985 239.948 254.175 237.831C253.365 235.714 252.182 233.887 250.627 232.349C249.073 230.811 247.212 229.571 245.046 228.628C243.011 227.702 240.87 227.098 238.621 226.817C235.313 226.404 232.336 226.569 229.69 227.314C227.176 228.075 224.878 229.266 222.794 230.886C220.859 232.391 219.147 234.26 217.659 236.493C216.187 238.593 214.955 240.925 213.963 243.489L189.205 230.317C191.388 225.753 194.133 221.527 197.441 217.64C200.765 213.622 204.676 210.281 209.174 207.618C213.821 204.839 219.105 202.879 225.025 201.738C230.946 200.597 237.478 200.472 244.623 201.365C252.164 202.307 258.713 204.201 264.27 207.045C269.827 209.889 274.359 213.412 277.865 217.612C281.503 221.829 284.059 226.65 285.531 232.074C287.019 237.366 287.392 242.989 286.648 248.943C285.904 254.897 284.234 260.197 281.637 264.845C279.041 269.492 275.75 273.784 271.765 277.72C267.928 281.54 263.521 285.088 258.543 288.363C253.565 291.637 248.381 294.953 242.99 298.311L214.661 315.33L280.151 323.513L277.027 348.519Z" fill="black" fill-opacity="0.5"/>
<g filter="url(#filter0_d_507_156)">
<rect x="45.5376" width="393" height="335" rx="20" transform="rotate(7.1226 45.5376 0)" fill="#1AA9CB"/>
<rect x="52.8599" y="102.7" width="354" height="222" rx="20" transform="rotate(7.1226 52.8599 102.7)" fill="white"/>
<path d="M185.064 88.6074L183.612 80.0615L172.052 78.617L168.542 86.543L160.901 85.5882L176.64 52.3834L185.968 53.549L192.903 89.587L185.064 88.6074ZM180.349 59.8006L180.101 59.7696L174.638 72.4399L182.576 73.4319L180.349 59.8006ZM196.702 90.0617L201.029 55.431L217.402 57.4769C219.022 57.6794 220.443 58.1424 221.662 58.8659C222.886 59.5563 223.885 60.4369 224.658 61.5077C225.464 62.5826 226.028 63.8457 226.351 65.2969C226.678 66.715 226.74 68.2344 226.537 69.8552C226.331 71.509 225.894 72.9829 225.229 74.2771C224.563 75.5712 223.707 76.64 222.662 77.4835C221.649 78.3311 220.462 78.9554 219.102 79.3565C217.746 79.7246 216.257 79.8073 214.637 79.6048L205.805 78.5013L204.243 91.004L196.702 90.0617ZM206.624 71.9522L214.562 72.9441C215.686 73.0847 216.598 72.913 217.297 72.4293C218.033 71.9166 218.471 71.0979 218.611 69.9733L218.884 67.7903C219.025 66.6657 218.799 65.781 218.208 65.136C217.654 64.4621 216.815 64.0549 215.69 63.9144L207.752 62.9224L206.624 71.9522ZM235.81 94.9486L228.269 94.0062L232.596 59.3755L249.018 61.4276C250.606 61.626 252.012 62.0704 253.235 62.7608C254.459 63.4512 255.456 64.3484 256.225 65.4522C257.031 66.5272 257.598 67.7737 257.924 69.1918C258.251 70.6099 258.311 72.1459 258.104 73.7997C257.811 76.1481 257.025 78.1327 255.748 79.7535C254.503 81.3784 252.773 82.4555 250.557 82.9848L255.656 97.4284L247.271 96.3807L242.805 82.9231L237.397 82.2473L235.81 94.9486ZM246.129 76.8887C247.253 77.0292 248.165 76.8576 248.864 76.3738C249.6 75.8611 250.038 75.0425 250.178 73.9179L250.451 71.7348C250.592 70.6103 250.366 69.7255 249.775 69.0805C249.221 68.4066 248.382 67.9994 247.257 67.8589L239.319 66.8669L238.191 75.8967L246.129 76.8887ZM259.368 97.8923L260.118 91.889L264.584 92.447L267.411 69.8229L262.945 69.265L263.695 63.2616L280.167 65.3199L279.417 71.3232L274.952 70.7653L272.125 93.3893L276.59 93.9473L275.84 99.9506L259.368 97.8923ZM281.131 100.612L285.458 65.9811L293 66.9234L289.509 94.8562L302.707 96.5053L301.87 103.203L281.131 100.612Z" fill="white"/>
<path d="M256.027 313.519L157.989 301.268L161.387 274.08L208.618 242.895C212.868 240.067 216.481 237.495 219.458 235.18C222.451 232.732 224.899 230.35 226.801 228.035C228.851 225.604 230.364 223.173 231.34 220.742C232.448 218.327 233.184 215.664 233.547 212.754L233.895 209.975C234.225 207.329 233.985 204.948 233.175 202.831C232.365 200.714 231.182 198.887 229.627 197.349C228.073 195.811 226.212 194.571 224.046 193.628C222.011 192.702 219.87 192.098 217.621 191.817C214.313 191.404 211.336 191.569 208.69 192.314C206.176 193.075 203.878 194.266 201.794 195.886C199.859 197.391 198.147 199.26 196.659 201.493C195.187 203.593 193.955 205.925 192.963 208.489L168.205 195.317C170.388 190.753 173.133 186.527 176.441 182.64C179.765 178.622 183.676 175.281 188.174 172.618C192.821 169.839 198.105 167.879 204.025 166.738C209.946 165.597 216.478 165.472 223.623 166.365C231.164 167.307 237.713 169.201 243.27 172.045C248.827 174.889 253.359 178.412 256.865 182.612C260.503 186.829 263.059 191.65 264.531 197.074C266.019 202.366 266.392 207.989 265.648 213.943C264.904 219.897 263.234 225.197 260.637 229.845C258.041 234.492 254.75 238.784 250.765 242.72C246.928 246.54 242.521 250.088 237.543 253.363C232.565 256.637 227.381 259.953 221.99 263.311L193.661 280.33L259.151 288.513L256.027 313.519Z" fill="black"/>
</g>
<defs>
<filter id="filter0_d_507_156" x="0" y="0" width="439.505" height="389.144" filterUnits="userSpaceOnUse" color-interpolation-filters="sRGB">
<feFlood flood-opacity="0" result="BackgroundImageFix"/>
<feColorMatrix in="SourceAlpha" type="matrix" values="0 0 0 0 0 0 0 0 0 0 0 0 0 0 0 0 0 0 127 0" result="hardAlpha"/>
<feOffset dy="4"/>
<feGaussianBlur stdDeviation="2"/>
<feComposite in2="hardAlpha" operator="out"/>
<feColorMatrix type="matrix" values="0 0 0 0 0 0 0 0 0 0 0 0 0 0 0 0 0 0 0.25 0"/>
<feBlend mode="normal" in2="BackgroundImageFix" result="effect1_dropShadow_507_156"/>
<feBlend mode="normal" in="SourceGraphic" in2="effect1_dropShadow_507_156" result="shape"/>
</filter>
</defs>
</svg>
