<svg width="590" height="384" viewBox="0 0 590 384" fill="none" xmlns="http://www.w3.org/2000/svg">
<path d="M81.8925 267.24C80.9858 267.24 80.1658 267.087 79.4325 266.78C78.7125 266.46 78.0925 266 77.5725 265.4C77.0658 264.787 76.6725 264.033 76.3925 263.14C76.1125 262.233 75.9725 261.193 75.9725 260.02C75.9725 258.847 76.1125 257.813 76.3925 256.92C76.6725 256.027 77.0658 255.273 77.5725 254.66C78.0925 254.047 78.7125 253.587 79.4325 253.28C80.1658 252.96 80.9858 252.8 81.8925 252.8C82.7858 252.8 83.5992 252.96 84.3325 253.28C85.0658 253.587 85.6858 254.047 86.1925 254.66C86.7125 255.273 87.1125 256.027 87.3925 256.92C87.6725 257.813 87.8125 258.847 87.8125 260.02C87.8125 261.193 87.6725 262.233 87.3925 263.14C87.1125 264.033 86.7125 264.787 86.1925 265.4C85.6858 266 85.0658 266.46 84.3325 266.78C83.5992 267.087 82.7858 267.24 81.8925 267.24ZM81.8925 265.74C82.4925 265.74 83.0458 265.633 83.5525 265.42C84.0592 265.207 84.4925 264.9 84.8525 264.5C85.2258 264.1 85.5125 263.62 85.7125 263.06C85.9125 262.5 86.0125 261.873 86.0125 261.18V258.86C86.0125 258.167 85.9125 257.54 85.7125 256.98C85.5125 256.42 85.2258 255.94 84.8525 255.54C84.4925 255.14 84.0592 254.833 83.5525 254.62C83.0458 254.407 82.4925 254.3 81.8925 254.3C81.2925 254.3 80.7392 254.407 80.2325 254.62C79.7258 254.833 79.2858 255.14 78.9125 255.54C78.5525 255.94 78.2725 256.42 78.0725 256.98C77.8725 257.54 77.7725 258.167 77.7725 258.86V261.18C77.7725 261.873 77.8725 262.5 78.0725 263.06C78.2725 263.62 78.5525 264.1 78.9125 264.5C79.2858 264.9 79.7258 265.207 80.2325 265.42C80.7392 265.633 81.2925 265.74 81.8925 265.74ZM92.9527 267L89.3327 256.68H90.9327L92.7327 261.8L93.8527 265.32H93.9527L95.0727 261.8L96.9127 256.68H98.4527L94.8127 267H92.9527ZM104.24 267.24C103.533 267.24 102.893 267.113 102.32 266.86C101.76 266.607 101.273 266.247 100.86 265.78C100.46 265.3 100.147 264.733 99.9202 264.08C99.7068 263.413 99.6002 262.667 99.6002 261.84C99.6002 261.027 99.7068 260.287 99.9202 259.62C100.147 258.953 100.46 258.387 100.86 257.92C101.273 257.44 101.76 257.073 102.32 256.82C102.893 256.567 103.533 256.44 104.24 256.44C104.933 256.44 105.553 256.567 106.1 256.82C106.647 257.073 107.113 257.427 107.5 257.88C107.887 258.32 108.18 258.847 108.38 259.46C108.593 260.073 108.7 260.747 108.7 261.48V262.24H101.28V262.72C101.28 263.16 101.347 263.573 101.48 263.96C101.627 264.333 101.827 264.66 102.08 264.94C102.347 265.22 102.667 265.44 103.04 265.6C103.427 265.76 103.86 265.84 104.34 265.84C104.993 265.84 105.56 265.687 106.04 265.38C106.533 265.073 106.913 264.633 107.18 264.06L108.32 264.88C107.987 265.587 107.467 266.16 106.76 266.6C106.053 267.027 105.213 267.24 104.24 267.24ZM104.24 257.78C103.8 257.78 103.4 257.86 103.04 258.02C102.68 258.167 102.367 258.38 102.1 258.66C101.847 258.94 101.647 259.273 101.5 259.66C101.353 260.033 101.28 260.447 101.28 260.9V261.04H106.98V260.82C106.98 259.9 106.727 259.167 106.22 258.62C105.727 258.06 105.067 257.78 104.24 257.78ZM111.337 267V256.68H112.937V258.58H113.037C113.223 258.087 113.557 257.647 114.037 257.26C114.517 256.873 115.177 256.68 116.017 256.68H116.637V258.28H115.697C114.83 258.28 114.15 258.447 113.657 258.78C113.177 259.1 112.937 259.507 112.937 260V267H111.337ZM126.927 258.96C127.874 258.96 128.58 258.747 129.047 258.32C129.527 257.88 129.767 257.32 129.767 256.64V256.5C129.767 255.767 129.534 255.22 129.067 254.86C128.614 254.487 128.014 254.3 127.267 254.3C126.547 254.3 125.96 254.46 125.507 254.78C125.054 255.087 124.68 255.507 124.387 256.04L123.147 255.08C123.32 254.8 123.527 254.527 123.767 254.26C124.02 253.98 124.314 253.733 124.647 253.52C124.98 253.307 125.367 253.133 125.807 253C126.247 252.867 126.747 252.8 127.307 252.8C127.894 252.8 128.447 252.88 128.967 253.04C129.487 253.187 129.934 253.413 130.307 253.72C130.694 254.013 130.994 254.38 131.207 254.82C131.434 255.26 131.547 255.76 131.547 256.32C131.547 256.773 131.474 257.18 131.327 257.54C131.194 257.9 131.007 258.213 130.767 258.48C130.527 258.747 130.24 258.973 129.907 259.16C129.587 259.347 129.24 259.487 128.867 259.58V259.66C129.24 259.74 129.6 259.873 129.947 260.06C130.307 260.233 130.62 260.467 130.887 260.76C131.167 261.04 131.387 261.387 131.547 261.8C131.72 262.2 131.807 262.66 131.807 263.18C131.807 263.78 131.694 264.333 131.467 264.84C131.24 265.333 130.92 265.76 130.507 266.12C130.094 266.467 129.594 266.74 129.007 266.94C128.42 267.14 127.774 267.24 127.067 267.24C126.467 267.24 125.934 267.173 125.467 267.04C125 266.907 124.587 266.727 124.227 266.5C123.867 266.273 123.547 266.02 123.267 265.74C123 265.46 122.76 265.167 122.547 264.86L123.807 263.9C123.98 264.18 124.167 264.433 124.367 264.66C124.58 264.887 124.814 265.08 125.067 265.24C125.32 265.4 125.607 265.527 125.927 265.62C126.247 265.7 126.62 265.74 127.047 265.74C128.034 265.74 128.78 265.52 129.287 265.08C129.794 264.627 130.047 263.987 130.047 263.16V263C130.047 262.173 129.794 261.54 129.287 261.1C128.78 260.647 128.034 260.42 127.047 260.42H125.407V258.96H126.927ZM139.699 267.24C138.033 267.24 136.813 266.607 136.039 265.34C135.279 264.073 134.899 262.3 134.899 260.02C134.899 257.74 135.279 255.967 136.039 254.7C136.813 253.433 138.033 252.8 139.699 252.8C141.366 252.8 142.579 253.433 143.339 254.7C144.113 255.967 144.499 257.74 144.499 260.02C144.499 262.3 144.113 264.073 143.339 265.34C142.579 266.607 141.366 267.24 139.699 267.24ZM139.699 265.78C140.246 265.78 140.713 265.667 141.099 265.44C141.486 265.213 141.799 264.893 142.039 264.48C142.279 264.067 142.453 263.58 142.559 263.02C142.679 262.46 142.739 261.84 142.739 261.16V258.88C142.739 258.2 142.679 257.58 142.559 257.02C142.453 256.46 142.279 255.973 142.039 255.56C141.799 255.147 141.486 254.827 141.099 254.6C140.713 254.373 140.246 254.26 139.699 254.26C139.153 254.26 138.686 254.373 138.299 254.6C137.913 254.827 137.599 255.147 137.359 255.56C137.119 255.973 136.939 256.46 136.819 257.02C136.713 257.58 136.659 258.2 136.659 258.88V261.16C136.659 261.84 136.713 262.46 136.819 263.02C136.939 263.58 137.119 264.067 137.359 264.48C137.599 264.893 137.913 265.213 138.299 265.44C138.686 265.667 139.153 265.78 139.699 265.78ZM158.718 265.32H158.638C158.011 266.6 157.005 267.24 155.618 267.24C154.978 267.24 154.398 267.113 153.878 266.86C153.358 266.607 152.911 266.247 152.538 265.78C152.178 265.313 151.898 264.747 151.698 264.08C151.511 263.413 151.418 262.667 151.418 261.84C151.418 261.013 151.511 260.267 151.698 259.6C151.898 258.933 152.178 258.367 152.538 257.9C152.911 257.433 153.358 257.073 153.878 256.82C154.398 256.567 154.978 256.44 155.618 256.44C156.338 256.44 156.951 256.6 157.458 256.92C157.978 257.227 158.371 257.707 158.638 258.36H158.718V252.2H160.318V267H158.718V265.32ZM156.058 265.8C156.418 265.8 156.758 265.753 157.078 265.66C157.411 265.567 157.698 265.433 157.938 265.26C158.178 265.073 158.365 264.853 158.498 264.6C158.645 264.333 158.718 264.033 158.718 263.7V259.86C158.718 259.58 158.645 259.32 158.498 259.08C158.365 258.827 158.178 258.613 157.938 258.44C157.698 258.267 157.411 258.133 157.078 258.04C156.758 257.933 156.418 257.88 156.058 257.88C155.151 257.88 154.438 258.167 153.918 258.74C153.398 259.3 153.138 260.04 153.138 260.96V262.72C153.138 263.64 153.398 264.387 153.918 264.96C154.438 265.52 155.151 265.8 156.058 265.8ZM167.6 267.24C166.893 267.24 166.253 267.113 165.68 266.86C165.12 266.607 164.633 266.247 164.22 265.78C163.82 265.3 163.506 264.733 163.28 264.08C163.066 263.413 162.96 262.667 162.96 261.84C162.96 261.027 163.066 260.287 163.28 259.62C163.506 258.953 163.82 258.387 164.22 257.92C164.633 257.44 165.12 257.073 165.68 256.82C166.253 256.567 166.893 256.44 167.6 256.44C168.293 256.44 168.913 256.567 169.46 256.82C170.006 257.073 170.473 257.427 170.86 257.88C171.246 258.32 171.54 258.847 171.74 259.46C171.953 260.073 172.06 260.747 172.06 261.48V262.24H164.64V262.72C164.64 263.16 164.706 263.573 164.84 263.96C164.986 264.333 165.186 264.66 165.44 264.94C165.706 265.22 166.026 265.44 166.4 265.6C166.786 265.76 167.22 265.84 167.7 265.84C168.353 265.84 168.92 265.687 169.4 265.38C169.893 265.073 170.273 264.633 170.54 264.06L171.68 264.88C171.346 265.587 170.826 266.16 170.12 266.6C169.413 267.027 168.573 267.24 167.6 267.24ZM167.6 257.78C167.16 257.78 166.76 257.86 166.4 258.02C166.04 258.167 165.726 258.38 165.46 258.66C165.206 258.94 165.006 259.273 164.86 259.66C164.713 260.033 164.64 260.447 164.64 260.9V261.04H170.34V260.82C170.34 259.9 170.086 259.167 169.58 258.62C169.086 258.06 168.426 257.78 167.6 257.78ZM177.796 267.24C176.836 267.24 176.029 267.06 175.376 266.7C174.736 266.327 174.183 265.833 173.716 265.22L174.856 264.3C175.256 264.807 175.703 265.2 176.196 265.48C176.689 265.747 177.263 265.88 177.916 265.88C178.596 265.88 179.123 265.733 179.496 265.44C179.883 265.147 180.076 264.733 180.076 264.2C180.076 263.8 179.943 263.46 179.676 263.18C179.423 262.887 178.956 262.687 178.276 262.58L177.456 262.46C176.976 262.393 176.536 262.293 176.136 262.16C175.736 262.013 175.383 261.827 175.076 261.6C174.783 261.36 174.549 261.067 174.376 260.72C174.216 260.373 174.136 259.96 174.136 259.48C174.136 258.973 174.229 258.533 174.416 258.16C174.603 257.773 174.856 257.453 175.176 257.2C175.509 256.947 175.903 256.76 176.356 256.64C176.809 256.507 177.296 256.44 177.816 256.44C178.656 256.44 179.356 256.587 179.916 256.88C180.489 257.173 180.989 257.58 181.416 258.1L180.356 259.06C180.129 258.74 179.796 258.453 179.356 258.2C178.916 257.933 178.363 257.8 177.696 257.8C177.029 257.8 176.523 257.947 176.176 258.24C175.843 258.52 175.676 258.907 175.676 259.4C175.676 259.907 175.843 260.273 176.176 260.5C176.523 260.727 177.016 260.893 177.656 261L178.456 261.12C179.603 261.293 180.416 261.627 180.896 262.12C181.376 262.6 181.616 263.233 181.616 264.02C181.616 265.02 181.276 265.807 180.596 266.38C179.916 266.953 178.983 267.24 177.796 267.24ZM185.242 254.26C184.896 254.26 184.642 254.18 184.482 254.02C184.336 253.847 184.262 253.627 184.262 253.36V253.1C184.262 252.833 184.336 252.62 184.482 252.46C184.642 252.287 184.896 252.2 185.242 252.2C185.589 252.2 185.836 252.287 185.982 252.46C186.142 252.62 186.222 252.833 186.222 253.1V253.36C186.222 253.627 186.142 253.847 185.982 254.02C185.836 254.18 185.589 254.26 185.242 254.26ZM184.442 256.68H186.042V267H184.442V256.68ZM198.142 268.14C198.142 269.207 197.722 269.987 196.882 270.48C196.056 270.987 194.809 271.24 193.142 271.24C191.529 271.24 190.369 271.02 189.662 270.58C188.956 270.14 188.602 269.513 188.602 268.7C188.602 268.14 188.749 267.7 189.042 267.38C189.336 267.073 189.736 266.847 190.242 266.7V266.48C189.629 266.187 189.322 265.707 189.322 265.04C189.322 264.52 189.489 264.127 189.822 263.86C190.156 263.58 190.582 263.373 191.102 263.24V263.16C190.489 262.867 190.009 262.447 189.662 261.9C189.329 261.353 189.162 260.72 189.162 260C189.162 259.48 189.256 259 189.442 258.56C189.629 258.12 189.889 257.747 190.222 257.44C190.569 257.12 190.976 256.873 191.442 256.7C191.922 256.527 192.456 256.44 193.042 256.44C193.776 256.44 194.429 256.573 195.002 256.84V256.66C195.002 256.26 195.096 255.933 195.282 255.68C195.469 255.413 195.776 255.28 196.202 255.28H197.742V256.68H195.782V257.34C196.156 257.66 196.442 258.047 196.642 258.5C196.856 258.94 196.962 259.44 196.962 260C196.962 260.52 196.869 261 196.682 261.44C196.496 261.88 196.229 262.26 195.882 262.58C195.549 262.887 195.142 263.127 194.662 263.3C194.182 263.473 193.649 263.56 193.062 263.56C192.729 263.56 192.396 263.527 192.062 263.46C191.716 263.553 191.402 263.693 191.122 263.88C190.842 264.053 190.702 264.3 190.702 264.62C190.702 264.927 190.849 265.133 191.142 265.24C191.436 265.347 191.816 265.4 192.282 265.4H194.482C195.762 265.4 196.689 265.647 197.262 266.14C197.849 266.62 198.142 267.287 198.142 268.14ZM196.642 268.26C196.642 267.847 196.482 267.513 196.162 267.26C195.856 267.02 195.302 266.9 194.502 266.9H191.062C190.422 267.193 190.102 267.66 190.102 268.3C190.102 268.753 190.269 269.14 190.602 269.46C190.949 269.78 191.529 269.94 192.342 269.94H193.822C194.716 269.94 195.409 269.8 195.902 269.52C196.396 269.24 196.642 268.82 196.642 268.26ZM193.062 262.28C193.742 262.28 194.282 262.12 194.682 261.8C195.082 261.467 195.282 260.96 195.282 260.28V259.72C195.282 259.04 195.082 258.54 194.682 258.22C194.282 257.887 193.742 257.72 193.062 257.72C192.382 257.72 191.842 257.887 191.442 258.22C191.042 258.54 190.842 259.04 190.842 259.72V260.28C190.842 260.96 191.042 261.467 191.442 261.8C191.842 262.12 192.382 262.28 193.062 262.28ZM200.009 267V256.68H201.609V258.36H201.689C201.942 257.773 202.295 257.307 202.749 256.96C203.215 256.613 203.835 256.44 204.609 256.44C205.675 256.44 206.515 256.787 207.129 257.48C207.755 258.16 208.069 259.127 208.069 260.38V267H206.469V260.66C206.469 258.807 205.689 257.88 204.129 257.88C203.809 257.88 203.495 257.92 203.189 258C202.895 258.08 202.629 258.2 202.389 258.36C202.149 258.52 201.955 258.727 201.809 258.98C201.675 259.22 201.609 259.507 201.609 259.84V267H200.009ZM218.382 267C217.822 267 217.396 266.847 217.102 266.54C216.822 266.22 216.682 265.807 216.682 265.3V258.08H214.982V256.68H215.942C216.289 256.68 216.522 256.613 216.642 256.48C216.776 256.333 216.842 256.087 216.842 255.74V253.82H218.282V256.68H220.542V258.08H218.282V265.6H220.382V267H218.382ZM226.916 267.24C226.209 267.24 225.569 267.113 224.996 266.86C224.436 266.607 223.949 266.247 223.536 265.78C223.136 265.3 222.823 264.733 222.596 264.08C222.383 263.413 222.276 262.667 222.276 261.84C222.276 261.027 222.383 260.287 222.596 259.62C222.823 258.953 223.136 258.387 223.536 257.92C223.949 257.44 224.436 257.073 224.996 256.82C225.569 256.567 226.209 256.44 226.916 256.44C227.609 256.44 228.229 256.567 228.776 256.82C229.323 257.073 229.789 257.427 230.176 257.88C230.563 258.32 230.856 258.847 231.056 259.46C231.269 260.073 231.376 260.747 231.376 261.48V262.24H223.956V262.72C223.956 263.16 224.023 263.573 224.156 263.96C224.303 264.333 224.503 264.66 224.756 264.94C225.023 265.22 225.343 265.44 225.716 265.6C226.103 265.76 226.536 265.84 227.016 265.84C227.669 265.84 228.236 265.687 228.716 265.38C229.209 265.073 229.589 264.633 229.856 264.06L230.996 264.88C230.663 265.587 230.143 266.16 229.436 266.6C228.729 267.027 227.889 267.24 226.916 267.24ZM226.916 257.78C226.476 257.78 226.076 257.86 225.716 258.02C225.356 258.167 225.043 258.38 224.776 258.66C224.523 258.94 224.323 259.273 224.176 259.66C224.029 260.033 223.956 260.447 223.956 260.9V261.04H229.656V260.82C229.656 259.9 229.403 259.167 228.896 258.62C228.403 258.06 227.743 257.78 226.916 257.78ZM241.513 267C240.913 267 240.479 266.84 240.213 266.52C239.959 266.2 239.799 265.8 239.733 265.32H239.633C239.406 265.96 239.033 266.44 238.513 266.76C237.993 267.08 237.373 267.24 236.653 267.24C235.559 267.24 234.706 266.96 234.093 266.4C233.493 265.84 233.193 265.08 233.193 264.12C233.193 263.147 233.546 262.4 234.253 261.88C234.973 261.36 236.086 261.1 237.592 261.1H239.633V260.08C239.633 259.347 239.433 258.787 239.033 258.4C238.633 258.013 238.019 257.82 237.193 257.82C236.566 257.82 236.039 257.96 235.613 258.24C235.199 258.52 234.853 258.893 234.573 259.36L233.613 258.46C233.893 257.9 234.339 257.427 234.952 257.04C235.566 256.64 236.339 256.44 237.273 256.44C238.526 256.44 239.499 256.747 240.193 257.36C240.886 257.973 241.233 258.827 241.233 259.92V265.6H242.412V267H241.513ZM236.913 265.88C237.313 265.88 237.679 265.833 238.013 265.74C238.346 265.647 238.633 265.513 238.873 265.34C239.113 265.167 239.299 264.967 239.433 264.74C239.566 264.513 239.633 264.267 239.633 264V262.3H237.513C236.593 262.3 235.919 262.433 235.493 262.7C235.079 262.967 234.873 263.353 234.873 263.86V264.28C234.873 264.787 235.053 265.18 235.413 265.46C235.786 265.74 236.286 265.88 236.913 265.88ZM244.696 267V256.68H246.296V258.36H246.376C246.496 258.093 246.629 257.847 246.776 257.62C246.936 257.38 247.123 257.173 247.336 257C247.563 256.827 247.823 256.693 248.116 256.6C248.409 256.493 248.756 256.44 249.156 256.44C249.836 256.44 250.463 256.607 251.036 256.94C251.609 257.26 252.036 257.793 252.316 258.54H252.356C252.543 257.98 252.889 257.493 253.396 257.08C253.916 256.653 254.616 256.44 255.496 256.44C256.549 256.44 257.369 256.787 257.956 257.48C258.556 258.16 258.856 259.127 258.856 260.38V267H257.256V260.66C257.256 259.74 257.076 259.047 256.716 258.58C256.356 258.113 255.783 257.88 254.996 257.88C254.676 257.88 254.369 257.92 254.076 258C253.796 258.08 253.543 258.2 253.316 258.36C253.089 258.52 252.909 258.727 252.776 258.98C252.643 259.22 252.576 259.507 252.576 259.84V267H250.976V260.66C250.976 259.74 250.796 259.047 250.436 258.58C250.076 258.113 249.516 257.88 248.756 257.88C248.436 257.88 248.129 257.92 247.836 258C247.543 258.08 247.283 258.2 247.056 258.36C246.829 258.52 246.643 258.727 246.496 258.98C246.363 259.22 246.296 259.507 246.296 259.84V267H244.696ZM265.257 267.24C264.297 267.24 263.49 267.06 262.837 266.7C262.197 266.327 261.644 265.833 261.177 265.22L262.317 264.3C262.717 264.807 263.164 265.2 263.657 265.48C264.15 265.747 264.724 265.88 265.377 265.88C266.057 265.88 266.584 265.733 266.957 265.44C267.344 265.147 267.537 264.733 267.537 264.2C267.537 263.8 267.404 263.46 267.137 263.18C266.884 262.887 266.417 262.687 265.737 262.58L264.917 262.46C264.437 262.393 263.997 262.293 263.597 262.16C263.197 262.013 262.844 261.827 262.537 261.6C262.244 261.36 262.01 261.067 261.837 260.72C261.677 260.373 261.597 259.96 261.597 259.48C261.597 258.973 261.69 258.533 261.877 258.16C262.064 257.773 262.317 257.453 262.637 257.2C262.97 256.947 263.364 256.76 263.817 256.64C264.27 256.507 264.757 256.44 265.277 256.44C266.117 256.44 266.817 256.587 267.377 256.88C267.95 257.173 268.45 257.58 268.877 258.1L267.817 259.06C267.59 258.74 267.257 258.453 266.817 258.2C266.377 257.933 265.824 257.8 265.157 257.8C264.49 257.8 263.984 257.947 263.637 258.24C263.304 258.52 263.137 258.907 263.137 259.4C263.137 259.907 263.304 260.273 263.637 260.5C263.984 260.727 264.477 260.893 265.117 261L265.917 261.12C267.064 261.293 267.877 261.627 268.357 262.12C268.837 262.6 269.077 263.233 269.077 264.02C269.077 265.02 268.737 265.807 268.057 266.38C267.377 266.953 266.444 267.24 265.257 267.24ZM279.73 267.24C278.77 267.24 277.963 267.06 277.31 266.7C276.67 266.327 276.116 265.833 275.65 265.22L276.79 264.3C277.19 264.807 277.636 265.2 278.13 265.48C278.623 265.747 279.196 265.88 279.85 265.88C280.53 265.88 281.056 265.733 281.43 265.44C281.816 265.147 282.01 264.733 282.01 264.2C282.01 263.8 281.876 263.46 281.61 263.18C281.356 262.887 280.89 262.687 280.21 262.58L279.39 262.46C278.91 262.393 278.47 262.293 278.07 262.16C277.67 262.013 277.316 261.827 277.01 261.6C276.716 261.36 276.483 261.067 276.31 260.72C276.15 260.373 276.07 259.96 276.07 259.48C276.07 258.973 276.163 258.533 276.35 258.16C276.536 257.773 276.79 257.453 277.11 257.2C277.443 256.947 277.836 256.76 278.29 256.64C278.743 256.507 279.23 256.44 279.75 256.44C280.59 256.44 281.29 256.587 281.85 256.88C282.423 257.173 282.923 257.58 283.35 258.1L282.29 259.06C282.063 258.74 281.73 258.453 281.29 258.2C280.85 257.933 280.296 257.8 279.63 257.8C278.963 257.8 278.456 257.947 278.11 258.24C277.776 258.52 277.61 258.907 277.61 259.4C277.61 259.907 277.776 260.273 278.11 260.5C278.456 260.727 278.95 260.893 279.59 261L280.39 261.12C281.536 261.293 282.35 261.627 282.83 262.12C283.31 262.6 283.55 263.233 283.55 264.02C283.55 265.02 283.21 265.807 282.53 266.38C281.85 266.953 280.916 267.24 279.73 267.24ZM286.376 252.2H287.976V258.36H288.056C288.309 257.773 288.662 257.307 289.116 256.96C289.582 256.613 290.202 256.44 290.976 256.44C292.042 256.44 292.882 256.787 293.496 257.48C294.122 258.16 294.436 259.127 294.436 260.38V267H292.836V260.66C292.836 258.807 292.056 257.88 290.496 257.88C290.176 257.88 289.862 257.92 289.556 258C289.262 258.08 288.996 258.2 288.756 258.36C288.516 258.52 288.322 258.727 288.176 258.98C288.042 259.22 287.976 259.507 287.976 259.84V267H286.376V252.2ZM301.643 267.24C300.95 267.24 300.316 267.113 299.743 266.86C299.17 266.607 298.676 266.247 298.263 265.78C297.863 265.3 297.55 264.733 297.323 264.08C297.096 263.413 296.983 262.667 296.983 261.84C296.983 261.027 297.096 260.287 297.323 259.62C297.55 258.953 297.863 258.387 298.263 257.92C298.676 257.44 299.17 257.073 299.743 256.82C300.316 256.567 300.95 256.44 301.643 256.44C302.336 256.44 302.963 256.567 303.523 256.82C304.096 257.073 304.59 257.44 305.003 257.92C305.416 258.387 305.736 258.953 305.963 259.62C306.19 260.287 306.303 261.027 306.303 261.84C306.303 262.667 306.19 263.413 305.963 264.08C305.736 264.733 305.416 265.3 305.003 265.78C304.59 266.247 304.096 266.607 303.523 266.86C302.963 267.113 302.336 267.24 301.643 267.24ZM301.643 265.82C302.51 265.82 303.216 265.553 303.763 265.02C304.31 264.487 304.583 263.673 304.583 262.58V261.1C304.583 260.007 304.31 259.193 303.763 258.66C303.216 258.127 302.51 257.86 301.643 257.86C300.776 257.86 300.07 258.127 299.523 258.66C298.976 259.193 298.703 260.007 298.703 261.1V262.58C298.703 263.673 298.976 264.487 299.523 265.02C300.07 265.553 300.776 265.82 301.643 265.82ZM312.774 267.24C312.054 267.24 311.408 267.113 310.834 266.86C310.261 266.607 309.774 266.247 309.374 265.78C308.988 265.313 308.688 264.747 308.474 264.08C308.274 263.413 308.174 262.667 308.174 261.84C308.174 261.013 308.274 260.267 308.474 259.6C308.688 258.933 308.988 258.367 309.374 257.9C309.774 257.433 310.261 257.073 310.834 256.82C311.408 256.567 312.054 256.44 312.774 256.44C313.801 256.44 314.621 256.667 315.234 257.12C315.861 257.56 316.328 258.14 316.634 258.86L315.294 259.54C315.108 259.007 314.801 258.593 314.374 258.3C313.948 258.007 313.414 257.86 312.774 257.86C312.294 257.86 311.874 257.94 311.514 258.1C311.154 258.247 310.854 258.46 310.614 258.74C310.374 259.007 310.194 259.333 310.074 259.72C309.954 260.093 309.894 260.507 309.894 260.96V262.72C309.894 263.627 310.134 264.373 310.614 264.96C311.108 265.533 311.828 265.82 312.774 265.82C314.068 265.82 315.001 265.22 315.574 264.02L316.734 264.8C316.401 265.547 315.901 266.14 315.234 266.58C314.581 267.02 313.761 267.24 312.774 267.24ZM326.493 267C325.893 267 325.46 266.84 325.193 266.52C324.94 266.2 324.78 265.8 324.713 265.32H324.613C324.386 265.96 324.013 266.44 323.493 266.76C322.973 267.08 322.353 267.24 321.633 267.24C320.54 267.24 319.686 266.96 319.073 266.4C318.473 265.84 318.173 265.08 318.173 264.12C318.173 263.147 318.526 262.4 319.233 261.88C319.953 261.36 321.066 261.1 322.573 261.1H324.613V260.08C324.613 259.347 324.413 258.787 324.013 258.4C323.613 258.013 323 257.82 322.173 257.82C321.546 257.82 321.02 257.96 320.593 258.24C320.18 258.52 319.833 258.893 319.553 259.36L318.593 258.46C318.873 257.9 319.32 257.427 319.933 257.04C320.546 256.64 321.32 256.44 322.253 256.44C323.506 256.44 324.48 256.747 325.173 257.36C325.866 257.973 326.213 258.827 326.213 259.92V265.6H327.393V267H326.493ZM321.893 265.88C322.293 265.88 322.66 265.833 322.993 265.74C323.326 265.647 323.613 265.513 323.853 265.34C324.093 265.167 324.28 264.967 324.413 264.74C324.546 264.513 324.613 264.267 324.613 264V262.3H322.493C321.573 262.3 320.9 262.433 320.473 262.7C320.06 262.967 319.853 263.353 319.853 263.86V264.28C319.853 264.787 320.033 265.18 320.393 265.46C320.766 265.74 321.266 265.88 321.893 265.88ZM332.777 267.24C331.817 267.24 331.01 267.06 330.357 266.7C329.717 266.327 329.163 265.833 328.697 265.22L329.837 264.3C330.237 264.807 330.683 265.2 331.177 265.48C331.67 265.747 332.243 265.88 332.897 265.88C333.577 265.88 334.103 265.733 334.477 265.44C334.863 265.147 335.057 264.733 335.057 264.2C335.057 263.8 334.923 263.46 334.657 263.18C334.403 262.887 333.937 262.687 333.257 262.58L332.437 262.46C331.957 262.393 331.517 262.293 331.117 262.16C330.717 262.013 330.363 261.827 330.057 261.6C329.763 261.36 329.53 261.067 329.357 260.72C329.197 260.373 329.117 259.96 329.117 259.48C329.117 258.973 329.21 258.533 329.397 258.16C329.583 257.773 329.837 257.453 330.157 257.2C330.49 256.947 330.883 256.76 331.337 256.64C331.79 256.507 332.277 256.44 332.797 256.44C333.637 256.44 334.337 256.587 334.897 256.88C335.47 257.173 335.97 257.58 336.397 258.1L335.337 259.06C335.11 258.74 334.777 258.453 334.337 258.2C333.897 257.933 333.343 257.8 332.677 257.8C332.01 257.8 331.503 257.947 331.157 258.24C330.823 258.52 330.657 258.907 330.657 259.4C330.657 259.907 330.823 260.273 331.157 260.5C331.503 260.727 331.997 260.893 332.637 261L333.437 261.12C334.583 261.293 335.397 261.627 335.877 262.12C336.357 262.6 336.597 263.233 336.597 264.02C336.597 265.02 336.257 265.807 335.577 266.38C334.897 266.953 333.963 267.24 332.777 267.24ZM340.223 254.26C339.876 254.26 339.623 254.18 339.463 254.02C339.316 253.847 339.243 253.627 339.243 253.36V253.1C339.243 252.833 339.316 252.62 339.463 252.46C339.623 252.287 339.876 252.2 340.223 252.2C340.569 252.2 340.816 252.287 340.963 252.46C341.123 252.62 341.203 252.833 341.203 253.1V253.36C341.203 253.627 341.123 253.847 340.963 254.02C340.816 254.18 340.569 254.26 340.223 254.26ZM339.423 256.68H341.023V267H339.423V256.68ZM344.423 267V256.68H346.023V258.36H346.103C346.356 257.773 346.709 257.307 347.163 256.96C347.629 256.613 348.249 256.44 349.023 256.44C350.089 256.44 350.929 256.787 351.543 257.48C352.169 258.16 352.483 259.127 352.483 260.38V267H350.883V260.66C350.883 258.807 350.103 257.88 348.543 257.88C348.223 257.88 347.909 257.92 347.603 258C347.309 258.08 347.043 258.2 346.803 258.36C346.563 258.52 346.369 258.727 346.223 258.98C346.089 259.22 346.023 259.507 346.023 259.84V267H344.423ZM364.49 268.14C364.49 269.207 364.07 269.987 363.23 270.48C362.403 270.987 361.157 271.24 359.49 271.24C357.877 271.24 356.717 271.02 356.01 270.58C355.303 270.14 354.95 269.513 354.95 268.7C354.95 268.14 355.097 267.7 355.39 267.38C355.683 267.073 356.083 266.847 356.59 266.7V266.48C355.977 266.187 355.67 265.707 355.67 265.04C355.67 264.52 355.837 264.127 356.17 263.86C356.503 263.58 356.93 263.373 357.45 263.24V263.16C356.837 262.867 356.357 262.447 356.01 261.9C355.677 261.353 355.51 260.72 355.51 260C355.51 259.48 355.603 259 355.79 258.56C355.977 258.12 356.237 257.747 356.57 257.44C356.917 257.12 357.323 256.873 357.79 256.7C358.27 256.527 358.803 256.44 359.39 256.44C360.123 256.44 360.777 256.573 361.35 256.84V256.66C361.35 256.26 361.443 255.933 361.63 255.68C361.817 255.413 362.123 255.28 362.55 255.28H364.09V256.68H362.13V257.34C362.503 257.66 362.79 258.047 362.99 258.5C363.203 258.94 363.31 259.44 363.31 260C363.31 260.52 363.217 261 363.03 261.44C362.843 261.88 362.577 262.26 362.23 262.58C361.897 262.887 361.49 263.127 361.01 263.3C360.53 263.473 359.997 263.56 359.41 263.56C359.077 263.56 358.743 263.527 358.41 263.46C358.063 263.553 357.75 263.693 357.47 263.88C357.19 264.053 357.05 264.3 357.05 264.62C357.05 264.927 357.197 265.133 357.49 265.24C357.783 265.347 358.163 265.4 358.63 265.4H360.83C362.11 265.4 363.037 265.647 363.61 266.14C364.197 266.62 364.49 267.287 364.49 268.14ZM362.99 268.26C362.99 267.847 362.83 267.513 362.51 267.26C362.203 267.02 361.65 266.9 360.85 266.9H357.41C356.77 267.193 356.45 267.66 356.45 268.3C356.45 268.753 356.617 269.14 356.95 269.46C357.297 269.78 357.877 269.94 358.69 269.94H360.17C361.063 269.94 361.757 269.8 362.25 269.52C362.743 269.24 362.99 268.82 362.99 268.26ZM359.41 262.28C360.09 262.28 360.63 262.12 361.03 261.8C361.43 261.467 361.63 260.96 361.63 260.28V259.72C361.63 259.04 361.43 258.54 361.03 258.22C360.63 257.887 360.09 257.72 359.41 257.72C358.73 257.72 358.19 257.887 357.79 258.22C357.39 258.54 357.19 259.04 357.19 259.72V260.28C357.19 260.96 357.39 261.467 357.79 261.8C358.19 262.12 358.73 262.28 359.41 262.28ZM373.363 267C372.803 267 372.376 266.847 372.083 266.54C371.803 266.22 371.663 265.807 371.663 265.3V258.08H369.963V256.68H370.923C371.269 256.68 371.503 256.613 371.623 256.48C371.756 256.333 371.823 256.087 371.823 255.74V253.82H373.263V256.68H375.523V258.08H373.263V265.6H375.363V267H373.363ZM378.095 252.2H379.695V258.36H379.775C380.028 257.773 380.381 257.307 380.835 256.96C381.301 256.613 381.921 256.44 382.695 256.44C383.761 256.44 384.601 256.787 385.215 257.48C385.841 258.16 386.155 259.127 386.155 260.38V267H384.555V260.66C384.555 258.807 383.775 257.88 382.215 257.88C381.895 257.88 381.581 257.92 381.275 258C380.981 258.08 380.715 258.2 380.475 258.36C380.235 258.52 380.041 258.727 379.895 258.98C379.761 259.22 379.695 259.507 379.695 259.84V267H378.095V252.2ZM393.342 267.24C392.635 267.24 391.995 267.113 391.422 266.86C390.862 266.607 390.375 266.247 389.962 265.78C389.562 265.3 389.248 264.733 389.022 264.08C388.808 263.413 388.702 262.667 388.702 261.84C388.702 261.027 388.808 260.287 389.022 259.62C389.248 258.953 389.562 258.387 389.962 257.92C390.375 257.44 390.862 257.073 391.422 256.82C391.995 256.567 392.635 256.44 393.342 256.44C394.035 256.44 394.655 256.567 395.202 256.82C395.748 257.073 396.215 257.427 396.602 257.88C396.988 258.32 397.282 258.847 397.482 259.46C397.695 260.073 397.802 260.747 397.802 261.48V262.24H390.382V262.72C390.382 263.16 390.448 263.573 390.582 263.96C390.728 264.333 390.928 264.66 391.182 264.94C391.448 265.22 391.768 265.44 392.142 265.6C392.528 265.76 392.962 265.84 393.442 265.84C394.095 265.84 394.662 265.687 395.142 265.38C395.635 265.073 396.015 264.633 396.282 264.06L397.422 264.88C397.088 265.587 396.568 266.16 395.862 266.6C395.155 267.027 394.315 267.24 393.342 267.24ZM393.342 257.78C392.902 257.78 392.502 257.86 392.142 258.02C391.782 258.167 391.468 258.38 391.202 258.66C390.948 258.94 390.748 259.273 390.602 259.66C390.455 260.033 390.382 260.447 390.382 260.9V261.04H396.082V260.82C396.082 259.9 395.828 259.167 395.322 258.62C394.828 258.06 394.168 257.78 393.342 257.78ZM401.238 254.26C400.892 254.26 400.638 254.18 400.478 254.02C400.332 253.847 400.258 253.627 400.258 253.36V253.1C400.258 252.833 400.332 252.62 400.478 252.46C400.638 252.287 400.892 252.2 401.238 252.2C401.585 252.2 401.832 252.287 401.978 252.46C402.138 252.62 402.218 252.833 402.218 253.1V253.36C402.218 253.627 402.138 253.847 401.978 254.02C401.832 254.18 401.585 254.26 401.238 254.26ZM400.438 256.68H402.038V267H400.438V256.68ZM405.438 267V256.68H407.038V258.58H407.138C407.325 258.087 407.658 257.647 408.138 257.26C408.618 256.873 409.278 256.68 410.118 256.68H410.738V258.28H409.798C408.932 258.28 408.252 258.447 407.758 258.78C407.278 259.1 407.038 259.507 407.038 260V267H405.438ZM426.409 267L425.009 262.88H419.369L417.969 267H416.269L421.149 253.04H423.289L428.169 267H426.409ZM422.229 254.6H422.129L419.769 261.4H424.589L422.229 254.6ZM429.821 267V265.6H431.781V254.44H429.821V253.04H435.421V254.44H433.461V265.6H435.421V267H429.821ZM443.055 256.68H444.655V258.36H444.735C445.002 257.707 445.389 257.227 445.895 256.92C446.415 256.6 447.035 256.44 447.755 256.44C448.395 256.44 448.975 256.567 449.495 256.82C450.015 257.073 450.455 257.433 450.815 257.9C451.189 258.367 451.469 258.933 451.655 259.6C451.855 260.267 451.955 261.013 451.955 261.84C451.955 262.667 451.855 263.413 451.655 264.08C451.469 264.747 451.189 265.313 450.815 265.78C450.455 266.247 450.015 266.607 449.495 266.86C448.975 267.113 448.395 267.24 447.755 267.24C446.355 267.24 445.349 266.6 444.735 265.32H444.655V271H443.055V256.68ZM447.315 265.8C448.222 265.8 448.935 265.52 449.455 264.96C449.975 264.387 450.235 263.64 450.235 262.72V260.96C450.235 260.04 449.975 259.3 449.455 258.74C448.935 258.167 448.222 257.88 447.315 257.88C446.955 257.88 446.609 257.933 446.275 258.04C445.955 258.133 445.675 258.267 445.435 258.44C445.195 258.613 445.002 258.827 444.855 259.08C444.722 259.32 444.655 259.58 444.655 259.86V263.7C444.655 264.033 444.722 264.333 444.855 264.6C445.002 264.853 445.195 265.073 445.435 265.26C445.675 265.433 445.955 265.567 446.275 265.66C446.609 265.753 446.955 265.8 447.315 265.8ZM454.657 267V256.68H456.257V258.58H456.357C456.544 258.087 456.877 257.647 457.357 257.26C457.837 256.873 458.497 256.68 459.337 256.68H459.957V258.28H459.017C458.15 258.28 457.47 258.447 456.977 258.78C456.497 259.1 456.257 259.507 456.257 260V267H454.657ZM465.803 267.24C465.11 267.24 464.476 267.113 463.903 266.86C463.33 266.607 462.836 266.247 462.423 265.78C462.023 265.3 461.71 264.733 461.483 264.08C461.256 263.413 461.143 262.667 461.143 261.84C461.143 261.027 461.256 260.287 461.483 259.62C461.71 258.953 462.023 258.387 462.423 257.92C462.836 257.44 463.33 257.073 463.903 256.82C464.476 256.567 465.11 256.44 465.803 256.44C466.496 256.44 467.123 256.567 467.683 256.82C468.256 257.073 468.75 257.44 469.163 257.92C469.576 258.387 469.896 258.953 470.123 259.62C470.35 260.287 470.463 261.027 470.463 261.84C470.463 262.667 470.35 263.413 470.123 264.08C469.896 264.733 469.576 265.3 469.163 265.78C468.75 266.247 468.256 266.607 467.683 266.86C467.123 267.113 466.496 267.24 465.803 267.24ZM465.803 265.82C466.67 265.82 467.376 265.553 467.923 265.02C468.47 264.487 468.743 263.673 468.743 262.58V261.1C468.743 260.007 468.47 259.193 467.923 258.66C467.376 258.127 466.67 257.86 465.803 257.86C464.936 257.86 464.23 258.127 463.683 258.66C463.136 259.193 462.863 260.007 462.863 261.1V262.58C462.863 263.673 463.136 264.487 463.683 265.02C464.23 265.553 464.936 265.82 465.803 265.82ZM473.095 256.68H474.695V268.6C474.695 269.32 474.515 269.9 474.155 270.34C473.795 270.78 473.228 271 472.455 271H471.415V269.6H473.095V256.68ZM473.895 254.26C473.548 254.26 473.295 254.18 473.135 254.02C472.988 253.847 472.915 253.627 472.915 253.36V253.1C472.915 252.833 472.988 252.62 473.135 252.46C473.295 252.287 473.548 252.2 473.895 252.2C474.241 252.2 474.488 252.287 474.635 252.46C474.795 252.62 474.875 252.833 474.875 253.1V253.36C474.875 253.627 474.795 253.847 474.635 254.02C474.488 254.18 474.241 254.26 473.895 254.26ZM481.975 267.24C481.268 267.24 480.628 267.113 480.055 266.86C479.495 266.607 479.008 266.247 478.595 265.78C478.195 265.3 477.881 264.733 477.655 264.08C477.441 263.413 477.335 262.667 477.335 261.84C477.335 261.027 477.441 260.287 477.655 259.62C477.881 258.953 478.195 258.387 478.595 257.92C479.008 257.44 479.495 257.073 480.055 256.82C480.628 256.567 481.268 256.44 481.975 256.44C482.668 256.44 483.288 256.567 483.835 256.82C484.381 257.073 484.848 257.427 485.235 257.88C485.621 258.32 485.915 258.847 486.115 259.46C486.328 260.073 486.435 260.747 486.435 261.48V262.24H479.015V262.72C479.015 263.16 479.081 263.573 479.215 263.96C479.361 264.333 479.561 264.66 479.815 264.94C480.081 265.22 480.401 265.44 480.775 265.6C481.161 265.76 481.595 265.84 482.075 265.84C482.728 265.84 483.295 265.687 483.775 265.38C484.268 265.073 484.648 264.633 484.915 264.06L486.055 264.88C485.721 265.587 485.201 266.16 484.495 266.6C483.788 267.027 482.948 267.24 481.975 267.24ZM481.975 257.78C481.535 257.78 481.135 257.86 480.775 258.02C480.415 258.167 480.101 258.38 479.835 258.66C479.581 258.94 479.381 259.273 479.235 259.66C479.088 260.033 479.015 260.447 479.015 260.9V261.04H484.715V260.82C484.715 259.9 484.461 259.167 483.955 258.62C483.461 258.06 482.801 257.78 481.975 257.78ZM492.911 267.24C492.191 267.24 491.544 267.113 490.971 266.86C490.398 266.607 489.911 266.247 489.511 265.78C489.124 265.313 488.824 264.747 488.611 264.08C488.411 263.413 488.311 262.667 488.311 261.84C488.311 261.013 488.411 260.267 488.611 259.6C488.824 258.933 489.124 258.367 489.511 257.9C489.911 257.433 490.398 257.073 490.971 256.82C491.544 256.567 492.191 256.44 492.911 256.44C493.938 256.44 494.758 256.667 495.371 257.12C495.998 257.56 496.464 258.14 496.771 258.86L495.431 259.54C495.244 259.007 494.938 258.593 494.511 258.3C494.084 258.007 493.551 257.86 492.911 257.86C492.431 257.86 492.011 257.94 491.651 258.1C491.291 258.247 490.991 258.46 490.751 258.74C490.511 259.007 490.331 259.333 490.211 259.72C490.091 260.093 490.031 260.507 490.031 260.96V262.72C490.031 263.627 490.271 264.373 490.751 264.96C491.244 265.533 491.964 265.82 492.911 265.82C494.204 265.82 495.138 265.22 495.711 264.02L496.871 264.8C496.538 265.547 496.038 266.14 495.371 266.58C494.718 267.02 493.898 267.24 492.911 267.24ZM501.41 267C500.85 267 500.423 266.847 500.13 266.54C499.85 266.22 499.71 265.807 499.71 265.3V258.08H498.01V256.68H498.97C499.316 256.68 499.55 256.613 499.67 256.48C499.803 256.333 499.87 256.087 499.87 255.74V253.82H501.31V256.68H503.57V258.08H501.31V265.6H503.41V267H501.41ZM509.241 267.24C508.281 267.24 507.475 267.06 506.821 266.7C506.181 266.327 505.628 265.833 505.161 265.22L506.301 264.3C506.701 264.807 507.148 265.2 507.641 265.48C508.135 265.747 508.708 265.88 509.361 265.88C510.041 265.88 510.568 265.733 510.941 265.44C511.328 265.147 511.521 264.733 511.521 264.2C511.521 263.8 511.388 263.46 511.121 263.18C510.868 262.887 510.401 262.687 509.721 262.58L508.901 262.46C508.421 262.393 507.981 262.293 507.581 262.16C507.181 262.013 506.828 261.827 506.521 261.6C506.228 261.36 505.995 261.067 505.821 260.72C505.661 260.373 505.581 259.96 505.581 259.48C505.581 258.973 505.675 258.533 505.861 258.16C506.048 257.773 506.301 257.453 506.621 257.2C506.955 256.947 507.348 256.76 507.801 256.64C508.255 256.507 508.741 256.44 509.261 256.44C510.101 256.44 510.801 256.587 511.361 256.88C511.935 257.173 512.435 257.58 512.861 258.1L511.801 259.06C511.575 258.74 511.241 258.453 510.801 258.2C510.361 257.933 509.808 257.8 509.141 257.8C508.475 257.8 507.968 257.947 507.621 258.24C507.288 258.52 507.121 258.907 507.121 259.4C507.121 259.907 507.288 260.273 507.621 260.5C507.968 260.727 508.461 260.893 509.101 261L509.901 261.12C511.048 261.293 511.861 261.627 512.341 262.12C512.821 262.6 513.061 263.233 513.061 264.02C513.061 265.02 512.721 265.807 512.041 266.38C511.361 266.953 510.428 267.24 509.241 267.24ZM234.836 293.08H233.156V291.68H234.836V289.6C234.836 288.88 235.023 288.3 235.396 287.86C235.77 287.42 236.336 287.2 237.096 287.2H238.656V288.6H236.436V291.68H238.656V293.08H236.436V302H234.836V293.08ZM240.761 302V291.68H242.361V293.58H242.461C242.647 293.087 242.981 292.647 243.461 292.26C243.941 291.873 244.601 291.68 245.441 291.68H246.061V293.28H245.121C244.254 293.28 243.574 293.447 243.081 293.78C242.601 294.1 242.361 294.507 242.361 295V302H240.761ZM251.907 302.24C251.213 302.24 250.58 302.113 250.007 301.86C249.433 301.607 248.94 301.247 248.527 300.78C248.127 300.3 247.813 299.733 247.587 299.08C247.36 298.413 247.247 297.667 247.247 296.84C247.247 296.027 247.36 295.287 247.587 294.62C247.813 293.953 248.127 293.387 248.527 292.92C248.94 292.44 249.433 292.073 250.007 291.82C250.58 291.567 251.213 291.44 251.907 291.44C252.6 291.44 253.227 291.567 253.787 291.82C254.36 292.073 254.853 292.44 255.267 292.92C255.68 293.387 256 293.953 256.227 294.62C256.453 295.287 256.567 296.027 256.567 296.84C256.567 297.667 256.453 298.413 256.227 299.08C256 299.733 255.68 300.3 255.267 300.78C254.853 301.247 254.36 301.607 253.787 301.86C253.227 302.113 252.6 302.24 251.907 302.24ZM251.907 300.82C252.773 300.82 253.48 300.553 254.027 300.02C254.573 299.487 254.847 298.673 254.847 297.58V296.1C254.847 295.007 254.573 294.193 254.027 293.66C253.48 293.127 252.773 292.86 251.907 292.86C251.04 292.86 250.333 293.127 249.787 293.66C249.24 294.193 248.967 295.007 248.967 296.1V297.58C248.967 298.673 249.24 299.487 249.787 300.02C250.333 300.553 251.04 300.82 251.907 300.82ZM259.198 302V291.68H260.798V293.36H260.878C260.998 293.093 261.131 292.847 261.278 292.62C261.438 292.38 261.625 292.173 261.838 292C262.065 291.827 262.325 291.693 262.618 291.6C262.911 291.493 263.258 291.44 263.658 291.44C264.338 291.44 264.965 291.607 265.538 291.94C266.111 292.26 266.538 292.793 266.818 293.54H266.858C267.045 292.98 267.391 292.493 267.898 292.08C268.418 291.653 269.118 291.44 269.998 291.44C271.051 291.44 271.871 291.787 272.458 292.48C273.058 293.16 273.358 294.127 273.358 295.38V302H271.758V295.66C271.758 294.74 271.578 294.047 271.218 293.58C270.858 293.113 270.285 292.88 269.498 292.88C269.178 292.88 268.871 292.92 268.578 293C268.298 293.08 268.045 293.2 267.818 293.36C267.591 293.52 267.411 293.727 267.278 293.98C267.145 294.22 267.078 294.507 267.078 294.84V302H265.478V295.66C265.478 294.74 265.298 294.047 264.938 293.58C264.578 293.113 264.018 292.88 263.258 292.88C262.938 292.88 262.631 292.92 262.338 293C262.045 293.08 261.785 293.2 261.558 293.36C261.331 293.52 261.145 293.727 260.998 293.98C260.865 294.22 260.798 294.507 260.798 294.84V302H259.198ZM283.666 302C283.106 302 282.679 301.847 282.386 301.54C282.106 301.22 281.966 300.807 281.966 300.3V293.08H280.266V291.68H281.226C281.572 291.68 281.806 291.613 281.926 291.48C282.059 291.333 282.126 291.087 282.126 290.74V288.82H283.566V291.68H285.826V293.08H283.566V300.6H285.666V302H283.666ZM288.397 287.2H289.997V293.36H290.077C290.331 292.773 290.684 292.307 291.137 291.96C291.604 291.613 292.224 291.44 292.997 291.44C294.064 291.44 294.904 291.787 295.517 292.48C296.144 293.16 296.457 294.127 296.457 295.38V302H294.857V295.66C294.857 293.807 294.077 292.88 292.517 292.88C292.197 292.88 291.884 292.92 291.577 293C291.284 293.08 291.017 293.2 290.777 293.36C290.537 293.52 290.344 293.727 290.197 293.98C290.064 294.22 289.997 294.507 289.997 294.84V302H288.397V287.2ZM300.564 289.26C300.218 289.26 299.964 289.18 299.804 289.02C299.658 288.847 299.584 288.627 299.584 288.36V288.1C299.584 287.833 299.658 287.62 299.804 287.46C299.964 287.287 300.218 287.2 300.564 287.2C300.911 287.2 301.158 287.287 301.304 287.46C301.464 287.62 301.544 287.833 301.544 288.1V288.36C301.544 288.627 301.464 288.847 301.304 289.02C301.158 289.18 300.911 289.26 300.564 289.26ZM299.764 291.68H301.364V302H299.764V291.68ZM307.864 302.24C306.904 302.24 306.098 302.06 305.444 301.7C304.804 301.327 304.251 300.833 303.784 300.22L304.924 299.3C305.324 299.807 305.771 300.2 306.264 300.48C306.758 300.747 307.331 300.88 307.984 300.88C308.664 300.88 309.191 300.733 309.564 300.44C309.951 300.147 310.144 299.733 310.144 299.2C310.144 298.8 310.011 298.46 309.744 298.18C309.491 297.887 309.024 297.687 308.344 297.58L307.524 297.46C307.044 297.393 306.604 297.293 306.204 297.16C305.804 297.013 305.451 296.827 305.144 296.6C304.851 296.36 304.618 296.067 304.444 295.72C304.284 295.373 304.204 294.96 304.204 294.48C304.204 293.973 304.298 293.533 304.484 293.16C304.671 292.773 304.924 292.453 305.244 292.2C305.578 291.947 305.971 291.76 306.424 291.64C306.878 291.507 307.364 291.44 307.884 291.44C308.724 291.44 309.424 291.587 309.984 291.88C310.558 292.173 311.058 292.58 311.484 293.1L310.424 294.06C310.198 293.74 309.864 293.453 309.424 293.2C308.984 292.933 308.431 292.8 307.764 292.8C307.098 292.8 306.591 292.947 306.244 293.24C305.911 293.52 305.744 293.907 305.744 294.4C305.744 294.907 305.911 295.273 306.244 295.5C306.591 295.727 307.084 295.893 307.724 296L308.524 296.12C309.671 296.293 310.484 296.627 310.964 297.12C311.444 297.6 311.684 298.233 311.684 299.02C311.684 300.02 311.344 300.807 310.664 301.38C309.984 301.953 309.051 302.24 307.864 302.24ZM325.597 291.68H327.177L322.557 304.4C322.437 304.707 322.317 304.96 322.197 305.16C322.077 305.373 321.93 305.54 321.757 305.66C321.584 305.78 321.364 305.867 321.097 305.92C320.844 305.973 320.53 306 320.157 306H319.337V304.6H320.957L321.737 302.4L317.877 291.68H319.477L321.957 298.7L322.437 300.38H322.537L323.097 298.7L325.597 291.68ZM333 302.24C332.293 302.24 331.653 302.113 331.08 301.86C330.52 301.607 330.033 301.247 329.62 300.78C329.22 300.3 328.907 299.733 328.68 299.08C328.467 298.413 328.36 297.667 328.36 296.84C328.36 296.027 328.467 295.287 328.68 294.62C328.907 293.953 329.22 293.387 329.62 292.92C330.033 292.44 330.52 292.073 331.08 291.82C331.653 291.567 332.293 291.44 333 291.44C333.693 291.44 334.313 291.567 334.86 291.82C335.407 292.073 335.873 292.427 336.26 292.88C336.647 293.32 336.94 293.847 337.14 294.46C337.353 295.073 337.46 295.747 337.46 296.48V297.24H330.04V297.72C330.04 298.16 330.107 298.573 330.24 298.96C330.387 299.333 330.587 299.66 330.84 299.94C331.107 300.22 331.427 300.44 331.8 300.6C332.187 300.76 332.62 300.84 333.1 300.84C333.753 300.84 334.32 300.687 334.8 300.38C335.293 300.073 335.673 299.633 335.94 299.06L337.08 299.88C336.747 300.587 336.227 301.16 335.52 301.6C334.813 302.027 333.973 302.24 333 302.24ZM333 292.78C332.56 292.78 332.16 292.86 331.8 293.02C331.44 293.167 331.127 293.38 330.86 293.66C330.607 293.94 330.407 294.273 330.26 294.66C330.113 295.033 330.04 295.447 330.04 295.9V296.04H335.74V295.82C335.74 294.9 335.487 294.167 334.98 293.62C334.487 293.06 333.827 292.78 333 292.78ZM347.596 302C346.996 302 346.563 301.84 346.296 301.52C346.043 301.2 345.883 300.8 345.816 300.32H345.716C345.49 300.96 345.116 301.44 344.596 301.76C344.076 302.08 343.456 302.24 342.736 302.24C341.643 302.24 340.79 301.96 340.176 301.4C339.576 300.84 339.276 300.08 339.276 299.12C339.276 298.147 339.63 297.4 340.336 296.88C341.056 296.36 342.17 296.1 343.676 296.1H345.716V295.08C345.716 294.347 345.516 293.787 345.116 293.4C344.716 293.013 344.103 292.82 343.276 292.82C342.65 292.82 342.123 292.96 341.696 293.24C341.283 293.52 340.936 293.893 340.656 294.36L339.696 293.46C339.976 292.9 340.423 292.427 341.036 292.04C341.65 291.64 342.423 291.44 343.356 291.44C344.61 291.44 345.583 291.747 346.276 292.36C346.97 292.973 347.316 293.827 347.316 294.92V300.6H348.496V302H347.596ZM342.996 300.88C343.396 300.88 343.763 300.833 344.096 300.74C344.43 300.647 344.716 300.513 344.956 300.34C345.196 300.167 345.383 299.967 345.516 299.74C345.65 299.513 345.716 299.267 345.716 299V297.3H343.596C342.676 297.3 342.003 297.433 341.576 297.7C341.163 297.967 340.956 298.353 340.956 298.86V299.28C340.956 299.787 341.136 300.18 341.496 300.46C341.87 300.74 342.37 300.88 342.996 300.88ZM350.78 302V291.68H352.38V293.58H352.48C352.667 293.087 353 292.647 353.48 292.26C353.96 291.873 354.62 291.68 355.46 291.68H356.08V293.28H355.14C354.273 293.28 353.593 293.447 353.1 293.78C352.62 294.1 352.38 294.507 352.38 295V302H350.78Z" fill="white"/>
<path d="M199.618 205.06H207.508C208.888 205.06 210.148 205.28 211.288 205.72C212.428 206.16 213.398 206.82 214.198 207.7C214.998 208.56 215.618 209.65 216.058 210.97C216.498 212.27 216.718 213.79 216.718 215.53C216.718 217.27 216.498 218.8 216.058 220.12C215.618 221.42 214.998 222.51 214.198 223.39C213.398 224.25 212.428 224.9 211.288 225.34C210.148 225.78 208.888 226 207.508 226H199.618V205.06ZM207.508 221.95C208.868 221.95 209.938 221.57 210.718 220.81C211.498 220.05 211.888 218.83 211.888 217.15V213.91C211.888 212.23 211.498 211.01 210.718 210.25C209.938 209.49 208.868 209.11 207.508 209.11H204.178V221.95H207.508ZM226.866 226.36C225.666 226.36 224.596 226.17 223.656 225.79C222.716 225.39 221.916 224.84 221.256 224.14C220.616 223.42 220.126 222.55 219.786 221.53C219.466 220.51 219.306 219.37 219.306 218.11C219.306 216.87 219.466 215.75 219.786 214.75C220.106 213.73 220.576 212.86 221.196 212.14C221.836 211.42 222.616 210.87 223.536 210.49C224.456 210.09 225.506 209.89 226.686 209.89C227.986 209.89 229.096 210.11 230.016 210.55C230.956 210.99 231.716 211.58 232.296 212.32C232.896 213.06 233.326 213.92 233.586 214.9C233.866 215.86 234.006 216.87 234.006 217.93V219.25H223.896V219.49C223.896 220.53 224.176 221.36 224.736 221.98C225.296 222.58 226.176 222.88 227.376 222.88C228.296 222.88 229.046 222.7 229.626 222.34C230.206 221.96 230.746 221.51 231.246 220.99L233.466 223.75C232.766 224.57 231.846 225.21 230.706 225.67C229.586 226.13 228.306 226.36 226.866 226.36ZM226.776 213.16C225.876 213.16 225.166 213.46 224.646 214.06C224.146 214.64 223.896 215.42 223.896 216.4V216.64H229.416V216.37C229.416 215.41 229.196 214.64 228.756 214.06C228.336 213.46 227.676 213.16 226.776 213.16ZM242.481 226.36C240.961 226.36 239.681 226.12 238.641 225.64C237.601 225.14 236.671 224.44 235.851 223.54L238.461 220.9C239.021 221.52 239.641 222.01 240.321 222.37C241.001 222.73 241.771 222.91 242.631 222.91C243.511 222.91 244.121 222.78 244.461 222.52C244.801 222.24 244.971 221.87 244.971 221.41C244.971 220.67 244.441 220.23 243.381 220.09L241.671 219.88C238.131 219.44 236.361 217.82 236.361 215.02C236.361 214.26 236.501 213.57 236.781 212.95C237.081 212.31 237.491 211.77 238.011 211.33C238.551 210.87 239.191 210.52 239.931 210.28C240.691 210.02 241.541 209.89 242.481 209.89C243.301 209.89 244.021 209.95 244.641 210.07C245.281 210.17 245.841 210.33 246.321 210.55C246.821 210.75 247.271 211.01 247.671 211.33C248.091 211.63 248.501 211.97 248.901 212.35L246.351 214.96C245.851 214.46 245.281 214.07 244.641 213.79C244.021 213.49 243.381 213.34 242.721 213.34C241.961 213.34 241.421 213.46 241.101 213.7C240.781 213.94 240.621 214.26 240.621 214.66C240.621 215.08 240.731 215.41 240.951 215.65C241.191 215.87 241.631 216.03 242.271 216.13L244.041 216.37C247.501 216.83 249.231 218.41 249.231 221.11C249.231 221.87 249.071 222.57 248.751 223.21C248.431 223.85 247.971 224.41 247.371 224.89C246.791 225.35 246.081 225.71 245.241 225.97C244.421 226.23 243.501 226.36 242.481 226.36ZM254.478 208.57C253.578 208.57 252.918 208.37 252.498 207.97C252.098 207.55 251.898 207.02 251.898 206.38V205.72C251.898 205.08 252.098 204.56 252.498 204.16C252.918 203.74 253.578 203.53 254.478 203.53C255.378 203.53 256.028 203.74 256.428 204.16C256.848 204.56 257.058 205.08 257.058 205.72V206.38C257.058 207.02 256.848 207.55 256.428 207.97C256.028 208.37 255.378 208.57 254.478 208.57ZM252.258 210.25H256.698V226H252.258V210.25ZM275.422 227.14C275.422 227.98 275.272 228.72 274.972 229.36C274.692 230 274.222 230.54 273.562 230.98C272.902 231.44 272.022 231.78 270.922 232C269.842 232.24 268.502 232.36 266.902 232.36C265.542 232.36 264.382 232.27 263.422 232.09C262.482 231.93 261.712 231.69 261.112 231.37C260.532 231.07 260.102 230.69 259.822 230.23C259.562 229.79 259.432 229.28 259.432 228.7C259.432 227.82 259.692 227.13 260.212 226.63C260.732 226.13 261.452 225.82 262.372 225.7V225.37C261.612 225.23 261.042 224.91 260.662 224.41C260.282 223.89 260.092 223.29 260.092 222.61C260.092 222.19 260.172 221.83 260.332 221.53C260.512 221.21 260.732 220.94 260.992 220.72C261.272 220.48 261.592 220.29 261.952 220.15C262.312 220.01 262.672 219.9 263.032 219.82V219.7C262.072 219.26 261.362 218.66 260.902 217.9C260.442 217.12 260.212 216.22 260.212 215.2C260.212 213.6 260.762 212.32 261.862 211.36C262.982 210.38 264.682 209.89 266.962 209.89C268.002 209.89 268.892 209.99 269.632 210.19V209.59C269.632 208.75 269.832 208.15 270.232 207.79C270.652 207.41 271.242 207.22 272.002 207.22H274.492V210.52H271.012V210.7C271.932 211.14 272.612 211.75 273.052 212.53C273.492 213.29 273.712 214.18 273.712 215.2C273.712 216.78 273.152 218.05 272.032 219.01C270.932 219.95 269.242 220.42 266.962 220.42C265.942 220.42 265.012 220.31 264.172 220.09C263.712 220.39 263.482 220.81 263.482 221.35C263.482 221.73 263.622 222.03 263.902 222.25C264.202 222.45 264.692 222.55 265.372 222.55H269.932C271.852 222.55 273.242 222.95 274.102 223.75C274.982 224.55 275.422 225.68 275.422 227.14ZM271.252 227.74C271.252 227.28 271.072 226.93 270.712 226.69C270.352 226.45 269.722 226.33 268.822 226.33H263.422C263.222 226.53 263.072 226.75 262.972 226.99C262.892 227.25 262.852 227.5 262.852 227.74C262.852 228.32 263.102 228.74 263.602 229C264.102 229.28 264.952 229.42 266.152 229.42H267.952C269.152 229.42 270.002 229.28 270.502 229C271.002 228.74 271.252 228.32 271.252 227.74ZM266.962 217.51C267.842 217.51 268.492 217.33 268.912 216.97C269.352 216.59 269.572 216.05 269.572 215.35V214.99C269.572 214.29 269.352 213.76 268.912 213.4C268.492 213.02 267.842 212.83 266.962 212.83C266.082 212.83 265.422 213.02 264.982 213.4C264.562 213.76 264.352 214.29 264.352 214.99V215.35C264.352 216.05 264.562 216.59 264.982 216.97C265.422 217.33 266.082 217.51 266.962 217.51ZM277.395 226V210.25H281.835V212.92H282.015C282.295 212.1 282.785 211.39 283.485 210.79C284.185 210.19 285.155 209.89 286.395 209.89C288.015 209.89 289.235 210.43 290.055 211.51C290.895 212.59 291.315 214.13 291.315 216.13V226H286.875V216.49C286.875 215.47 286.715 214.72 286.395 214.24C286.075 213.74 285.505 213.49 284.685 213.49C284.325 213.49 283.975 213.54 283.635 213.64C283.295 213.72 282.985 213.86 282.705 214.06C282.445 214.26 282.235 214.51 282.075 214.81C281.915 215.09 281.835 215.42 281.835 215.8V226H277.395ZM311.326 209.11V226H306.766V209.11H301.096V205.06H316.996V209.11H311.326ZM324.483 226.36C323.283 226.36 322.213 226.17 321.273 225.79C320.333 225.39 319.533 224.84 318.873 224.14C318.233 223.42 317.743 222.55 317.403 221.53C317.083 220.51 316.923 219.37 316.923 218.11C316.923 216.87 317.083 215.75 317.403 214.75C317.723 213.73 318.193 212.86 318.813 212.14C319.453 211.42 320.233 210.87 321.153 210.49C322.073 210.09 323.123 209.89 324.303 209.89C325.603 209.89 326.713 210.11 327.633 210.55C328.573 210.99 329.333 211.58 329.913 212.32C330.513 213.06 330.943 213.92 331.203 214.9C331.483 215.86 331.623 216.87 331.623 217.93V219.25H321.513V219.49C321.513 220.53 321.793 221.36 322.353 221.98C322.913 222.58 323.793 222.88 324.993 222.88C325.913 222.88 326.663 222.7 327.243 222.34C327.823 221.96 328.363 221.51 328.863 220.99L331.083 223.75C330.383 224.57 329.463 225.21 328.323 225.67C327.203 226.13 325.923 226.36 324.483 226.36ZM324.393 213.16C323.493 213.16 322.783 213.46 322.263 214.06C321.763 214.64 321.513 215.42 321.513 216.4V216.64H327.033V216.37C327.033 215.41 326.813 214.64 326.373 214.06C325.953 213.46 325.293 213.16 324.393 213.16ZM346.398 226C345.598 226 344.928 225.75 344.388 225.25C343.868 224.75 343.538 224.08 343.398 223.24H343.218C342.978 224.26 342.448 225.04 341.628 225.58C340.808 226.1 339.798 226.36 338.598 226.36C337.018 226.36 335.808 225.94 334.968 225.1C334.128 224.26 333.708 223.15 333.708 221.77C333.708 220.11 334.308 218.88 335.508 218.08C336.728 217.26 338.378 216.85 340.458 216.85H342.948V215.86C342.948 215.1 342.748 214.5 342.348 214.06C341.948 213.6 341.278 213.37 340.338 213.37C339.458 213.37 338.758 213.56 338.238 213.94C337.718 214.32 337.288 214.75 336.948 215.23L334.308 212.89C334.948 211.95 335.748 211.22 336.708 210.7C337.688 210.16 339.008 209.89 340.668 209.89C342.908 209.89 344.588 210.38 345.708 211.36C346.828 212.34 347.388 213.77 347.388 215.65V222.55H348.858V226H346.398ZM340.248 223.27C340.988 223.27 341.618 223.11 342.138 222.79C342.678 222.47 342.948 221.95 342.948 221.23V219.37H340.788C339.048 219.37 338.178 219.96 338.178 221.14V221.59C338.178 222.17 338.358 222.6 338.718 222.88C339.078 223.14 339.588 223.27 340.248 223.27ZM351.839 226V210.25H356.279V212.92H356.459C356.739 212.08 357.219 211.37 357.899 210.79C358.579 210.19 359.509 209.89 360.689 209.89C361.769 209.89 362.689 210.16 363.449 210.7C364.209 211.24 364.759 212.03 365.099 213.07H365.189C365.329 212.63 365.539 212.22 365.819 211.84C366.119 211.44 366.479 211.1 366.899 210.82C367.319 210.54 367.789 210.32 368.309 210.16C368.829 209.98 369.389 209.89 369.989 209.89C371.509 209.89 372.669 210.43 373.469 211.51C374.289 212.59 374.699 214.13 374.699 216.13V226H370.259V216.49C370.259 214.49 369.539 213.49 368.099 213.49C367.439 213.49 366.839 213.68 366.299 214.06C365.759 214.44 365.489 215.02 365.489 215.8V226H361.049V216.49C361.049 214.49 360.329 213.49 358.889 213.49C358.569 213.49 358.249 213.54 357.929 213.64C357.629 213.72 357.349 213.86 357.089 214.06C356.849 214.26 356.649 214.51 356.489 214.81C356.349 215.09 356.279 215.42 356.279 215.8V226H351.839ZM383.985 226.36C382.465 226.36 381.185 226.12 380.145 225.64C379.105 225.14 378.175 224.44 377.355 223.54L379.965 220.9C380.525 221.52 381.145 222.01 381.825 222.37C382.505 222.73 383.275 222.91 384.135 222.91C385.015 222.91 385.625 222.78 385.965 222.52C386.305 222.24 386.475 221.87 386.475 221.41C386.475 220.67 385.945 220.23 384.885 220.09L383.175 219.88C379.635 219.44 377.865 217.82 377.865 215.02C377.865 214.26 378.005 213.57 378.285 212.95C378.585 212.31 378.995 211.77 379.515 211.33C380.055 210.87 380.695 210.52 381.435 210.28C382.195 210.02 383.045 209.89 383.985 209.89C384.805 209.89 385.525 209.95 386.145 210.07C386.785 210.17 387.345 210.33 387.825 210.55C388.325 210.75 388.775 211.01 389.175 211.33C389.595 211.63 390.005 211.97 390.405 212.35L387.855 214.96C387.355 214.46 386.785 214.07 386.145 213.79C385.525 213.49 384.885 213.34 384.225 213.34C383.465 213.34 382.925 213.46 382.605 213.7C382.285 213.94 382.125 214.26 382.125 214.66C382.125 215.08 382.235 215.41 382.455 215.65C382.695 215.87 383.135 216.03 383.775 216.13L385.545 216.37C389.005 216.83 390.735 218.41 390.735 221.11C390.735 221.87 390.575 222.57 390.255 223.21C389.935 223.85 389.475 224.41 388.875 224.89C388.295 225.35 387.585 225.71 386.745 225.97C385.925 226.23 385.005 226.36 383.985 226.36Z" fill="white"/>
<rect x="5" y="5" width="558" height="351" rx="10" stroke="#BDDBFF" stroke-width="10"/>
<rect x="27" y="25" width="558" height="354" rx="10" stroke="#3D9AE2" stroke-width="10"/>
<path d="M307.906 99.7891C307.648 99.4757 307.648 99.3651 306.505 95.9541C305.699 93.546 304.156 91.4522 302.095 89.9687C300.033 88.4852 297.558 87.687 295.018 87.687C292.479 87.687 290.004 88.4852 287.942 89.9687C285.881 91.4522 284.338 93.546 283.532 95.9541C282.352 99.4941 282.389 99.4941 282.131 99.7891C283.286 100.623 284.521 101.339 285.818 101.928V100.084C285.818 99.6245 286.001 99.1836 286.326 98.8586C286.651 98.5336 287.092 98.351 287.551 98.351H302.522C302.982 98.351 303.423 98.5336 303.748 98.8586C304.073 99.1836 304.256 99.6245 304.256 100.084V101.928C305.54 101.337 306.763 100.621 307.906 99.7891Z" fill="white"/>
<path d="M301.195 77.7931V75.7834C301.195 74.1404 300.542 72.5646 299.381 71.4029C298.219 70.2411 296.643 69.5884 295 69.5884C293.357 69.5884 291.781 70.2411 290.619 71.4029C289.458 72.5646 288.805 74.1404 288.805 75.7834V77.7931C288.805 79.4361 289.458 81.0118 290.619 82.1736C291.781 83.3354 293.357 83.9881 295 83.9881C296.643 83.9881 298.219 83.3354 299.381 82.1736C300.542 81.0118 301.195 79.4361 301.195 77.7931Z" fill="white"/>
<path d="M288.621 85.3341C285.044 82.3103 285.117 78.8072 285.117 75.7834C285.117 73.1624 286.159 70.6488 288.012 68.7955C289.865 66.9421 292.379 65.9009 295 65.9009C297.621 65.9009 300.135 66.9421 301.988 68.7955C303.841 70.6488 304.882 73.1624 304.882 75.7834C304.882 79.0653 304.882 82.3472 301.379 85.3341C307.74 88.1181 309.418 93.0594 310.819 97.2816C324.316 83.5272 314.802 59.6875 295 59.6875C275.198 59.6875 265.684 83.5272 279.181 97.2816C280.711 92.6353 282.37 88.0628 288.621 85.3341Z" fill="white"/>
<path d="M341.518 162.329C340.711 159.921 339.169 157.827 337.107 156.344C335.046 154.86 332.571 154.062 330.031 154.062C327.492 154.062 325.016 154.86 322.955 156.344C320.894 157.827 319.351 159.921 318.545 162.329C317.365 165.869 317.402 165.869 317.143 166.164C320.905 168.865 325.419 170.318 330.05 170.318C334.681 170.318 339.195 168.865 342.956 166.164C342.661 165.851 342.661 165.74 341.518 162.329Z" fill="white"/>
<path d="M336.226 144.168V142.158C336.226 141.345 336.066 140.539 335.755 139.788C335.443 139.036 334.987 138.353 334.412 137.778C333.837 137.203 333.154 136.746 332.402 136.435C331.65 136.124 330.845 135.963 330.031 135.963C329.218 135.963 328.412 136.124 327.661 136.435C326.909 136.746 326.226 137.203 325.651 137.778C325.075 138.353 324.619 139.036 324.308 139.788C323.996 140.539 323.836 141.345 323.836 142.158V144.168C323.836 145.811 324.489 147.387 325.651 148.549C326.813 149.71 328.388 150.363 330.031 150.363C331.674 150.363 333.25 149.71 334.412 148.549C335.574 147.387 336.226 145.811 336.226 144.168Z" fill="white"/>
<path d="M330.031 126.063C326.695 126.061 323.401 126.805 320.388 128.238C320.595 128.346 320.778 128.495 320.925 128.675C321.073 128.855 321.183 129.064 321.249 129.288C321.314 129.511 321.334 129.746 321.306 129.978C321.279 130.209 321.205 130.433 321.089 130.635L313.603 143.541C313.491 143.739 313.34 143.912 313.16 144.05C312.98 144.189 312.774 144.29 312.555 144.348C312.335 144.407 312.106 144.421 311.881 144.39C311.656 144.359 311.439 144.284 311.243 144.168L308.588 142.656C307.649 146.337 307.673 150.197 308.658 153.865C309.643 157.533 311.555 160.886 314.212 163.601C315.742 158.955 317.402 154.383 323.652 151.654C320.075 148.63 320.149 145.127 320.149 142.103C320.149 139.482 321.19 136.968 323.043 135.115C324.897 133.262 327.41 132.221 330.031 132.221C332.652 132.221 335.166 133.262 337.019 135.115C338.873 136.968 339.914 139.482 339.914 142.103C339.914 145.385 339.914 148.667 336.411 151.654C342.772 154.438 344.449 159.397 345.851 163.601C359.347 149.902 349.833 126.063 330.031 126.063Z" fill="white"/>
<path d="M271.455 162.329C270.649 159.921 269.106 157.827 267.045 156.344C264.984 154.86 262.508 154.062 259.969 154.062C257.429 154.062 254.954 154.86 252.893 156.344C250.831 157.827 249.289 159.921 248.482 162.329C247.302 165.869 247.339 165.869 247.081 166.164C250.842 168.865 255.356 170.318 259.987 170.318C264.618 170.318 269.132 168.865 272.893 166.164C272.598 165.851 272.598 165.74 271.455 162.329Z" fill="white"/>
<path d="M266.164 144.168V142.158C266.164 141.345 266.004 140.539 265.692 139.788C265.381 139.036 264.925 138.353 264.349 137.778C263.774 137.203 263.091 136.746 262.339 136.435C261.588 136.124 260.782 135.963 259.969 135.963C259.155 135.963 258.35 136.124 257.598 136.435C256.846 136.746 256.163 137.203 255.588 137.778C255.013 138.353 254.557 139.036 254.245 139.788C253.934 140.539 253.774 141.345 253.774 142.158V144.168C253.774 145.811 254.426 147.387 255.588 148.549C256.75 149.71 258.326 150.363 259.969 150.363C261.612 150.363 263.187 149.71 264.349 148.549C265.511 147.387 266.164 145.811 266.164 144.168Z" fill="white"/>
<path d="M278.757 144.242C278.561 144.357 278.344 144.433 278.119 144.464C277.894 144.495 277.665 144.48 277.445 144.422C277.226 144.364 277.02 144.262 276.84 144.124C276.66 143.985 276.509 143.812 276.397 143.615L268.911 130.709C268.795 130.506 268.721 130.283 268.694 130.051C268.666 129.82 268.686 129.585 268.751 129.361C268.817 129.138 268.927 128.929 269.075 128.749C269.222 128.569 269.405 128.42 269.612 128.312C264.93 126.064 259.606 125.535 254.574 126.817C249.541 128.099 245.12 131.111 242.084 135.325C239.048 139.539 237.592 144.686 237.969 149.866C238.347 155.046 240.535 159.928 244.149 163.657C245.68 159.01 247.339 154.438 253.589 151.709C250.012 148.685 250.086 145.182 250.086 142.158C250.086 139.537 251.127 137.024 252.981 135.17C254.834 133.317 257.348 132.276 259.969 132.276C262.59 132.276 265.103 133.317 266.957 135.17C268.81 137.024 269.851 139.537 269.851 142.158C269.851 145.44 269.851 148.722 266.348 151.709C272.709 154.493 274.387 159.453 275.788 163.657C278.454 160.936 280.372 157.574 281.357 153.895C282.342 150.216 282.361 146.345 281.412 142.656L278.757 144.242Z" fill="white"/>
<path d="M295 127.906C297.037 127.906 298.688 126.255 298.688 124.219C298.688 122.182 297.037 120.531 295 120.531C292.963 120.531 291.312 122.182 291.312 124.219C291.312 126.255 292.963 127.906 295 127.906Z" fill="white"/>
<path d="M316.922 130.488L311.391 127.242C311.778 125.245 311.778 123.192 311.391 121.195L316.922 117.95L311.391 108.362L305.86 111.608C304.283 110.282 302.477 109.257 300.531 108.584V102.094H289.469V108.584C287.555 109.267 285.781 110.292 284.233 111.608L278.609 108.362L273.078 117.95L278.701 121.195C278.305 123.191 278.305 125.246 278.701 127.242L273.078 130.488L278.609 140.075L284.233 136.83C285.781 138.146 287.555 139.17 289.469 139.854V146.344H300.531V139.854C302.445 139.17 304.219 138.146 305.768 136.83L311.299 140.075L316.922 130.488ZM295 131.594C293.541 131.594 292.115 131.161 290.903 130.351C289.69 129.54 288.745 128.389 288.186 127.041C287.628 125.693 287.482 124.211 287.767 122.78C288.051 121.349 288.754 120.035 289.785 119.004C290.817 117.972 292.131 117.27 293.561 116.985C294.992 116.701 296.475 116.847 297.822 117.405C299.17 117.963 300.322 118.909 301.132 120.121C301.942 121.334 302.375 122.76 302.375 124.219C302.375 126.175 301.598 128.051 300.215 129.434C298.832 130.817 296.956 131.594 295 131.594Z" fill="white"/>
</svg>
