<svg width="72" height="73" viewBox="0 0 72 73" fill="none" xmlns="http://www.w3.org/2000/svg">
<path d="M50.5948 0.946289C70.1398 0.946289 71.6693 2.47583 71.6693 22.0209V51.4717C71.6693 71.0167 70.1398 72.5463 50.5948 72.5463H46.8556V46.48H56.0453L57.4897 36.152H46.8556C46.8556 36.152 46.8398 30.105 46.8556 28.5964C46.886 25.6453 49.3505 24.1511 51.4689 24.1732C53.5873 24.1951 57.9742 24.1805 57.9742 24.1805V14.663C57.9742 14.663 54.1744 14.1713 50.1886 14.1299C46.8396 14.0954 43.1416 15.0013 40.1569 18.009C37.1213 21.0677 36.6423 25.6229 36.5847 31.1898C36.5681 32.8 36.5847 36.152 36.5847 36.152H27.5923V46.48H36.5847V72.5463H21.1438C1.59888 72.5463 0.0693359 71.0167 0.0693359 51.4717V22.0209C0.0693359 2.47583 1.59888 0.946289 21.1438 0.946289H50.5948Z" fill="black"/>
</svg>
