<svg width="72" height="73" viewBox="0 0 72 73" fill="none" xmlns="http://www.w3.org/2000/svg">
<path d="M53.7609 15.2664C55.7388 15.2616 57.3446 16.8598 57.3494 18.8377C57.3541 20.8157 55.756 22.4216 53.7781 22.4263C51.8002 22.4311 50.1942 20.833 50.1895 18.855C50.1847 16.877 51.7828 15.2711 53.7609 15.2664Z" fill="black"/>
<path d="M35.8266 18.8462C45.7117 18.8224 53.7459 26.8181 53.7697 36.7031C53.7934 46.5879 45.7979 54.6223 35.9129 54.6461C26.0278 54.6699 17.9936 46.6742 17.9698 36.7892C17.946 26.9043 25.9416 18.87 35.8266 18.8462ZM35.8956 47.4861C41.8266 47.4719 46.624 42.6512 46.6097 36.7203C46.5954 30.7893 41.7748 25.9919 35.8438 26.0062C29.9128 26.0206 25.1155 30.8411 25.1297 36.7721C25.1441 42.7031 29.9647 47.5004 35.8956 47.4861Z" fill="black"/>
<path d="M71.6693 36.7463V37.0682C71.6693 69.9712 69.0944 72.5463 36.1912 72.5463H35.5475C2.64429 72.5463 0.0693359 69.9712 0.0693359 37.0682V36.4243C0.0693359 3.5213 2.64429 0.946289 35.5475 0.946289H35.8693C69.0709 0.946289 71.6693 3.54468 71.6693 36.7463ZM64.5093 43.9063V29.5863C64.5093 9.66534 62.9503 8.10626 43.0293 8.10626H28.7094C8.78833 8.10626 7.22925 9.66534 7.22925 29.5863V43.9063C7.22925 63.8273 8.78833 65.3863 28.7094 65.3863H43.0293C62.9503 65.3863 64.5093 63.8273 64.5093 43.9063Z" fill="black"/>
</svg>
