<svg width="72" height="73" viewBox="0 0 72 73" fill="none" xmlns="http://www.w3.org/2000/svg">
<path d="M50.5947 0.946289C70.1396 0.946289 71.6693 2.47583 71.6693 22.0209V51.4717C71.6693 71.0167 70.1396 72.5463 50.5947 72.5463H21.1439C1.599 72.5463 0.0693359 71.0167 0.0693359 51.4717V22.0209C0.0693359 2.47583 1.599 0.946289 21.1439 0.946289H50.5947ZM23.3904 56.4363V27.3093H14.3381V56.4363H23.3904ZM18.8658 23.1432C21.775 23.1432 24.1411 20.7771 24.1411 17.8649C24.1411 14.9557 21.775 12.5896 18.8658 12.5896C15.9506 12.5896 13.5875 14.9526 13.5875 17.8649C13.5875 20.7771 15.9475 23.1432 18.8658 23.1432ZM57.3494 56.4363V40.4613C57.3494 32.618 55.6554 26.5852 46.4896 26.5852C42.0862 26.5852 39.1343 29.0001 37.9252 31.2893H37.8025V27.3093H29.1184V56.4363H38.1646V42.0262C38.1646 38.2273 38.8887 34.5481 43.5991 34.5481C48.2418 34.5481 48.3032 38.8932 48.3032 42.2717V56.4363H57.3494V56.4363Z" fill="black"/>
</svg>
