<svg width="974" height="908" viewBox="0 0 974 908" fill="none" xmlns="http://www.w3.org/2000/svg">
<rect width="493.97" height="284.135" transform="matrix(0.866044 0.499967 -0.866044 0.499967 373.073 426)" fill="#0C708F"/>
<path d="M938.278 461.168C933.364 661.734 729.018 821.822 481.859 818.734C234.701 815.646 38.3231 650.552 43.2374 449.987C48.1517 249.421 252.497 89.3331 499.656 92.4209C746.814 95.5086 943.192 260.603 938.278 461.168Z" fill="url(#paint0_linear_545_622)"/>
<g filter="url(#filter0_d_545_622)">
<circle r="8.16479" transform="matrix(0.866044 0.499967 -0.866044 0.499967 157.213 666.848)" fill="#57DFF6"/>
<circle r="9.74718" transform="matrix(0.866044 0.499967 -0.866044 0.499967 157.213 666.848)" stroke="#61E2F8" stroke-opacity="0.5" stroke-width="5"/>
<line y1="-2.5" x2="163.296" y2="-2.5" transform="matrix(0.866044 -0.499967 0.866044 0.499967 164 665.643)" stroke="#57DFF6" stroke-width="5"/>
</g>
<g filter="url(#filter1_d_545_622)">
<circle r="8.16479" transform="matrix(0.866044 0.499967 -0.866044 0.499967 347.213 741.848)" fill="#57DFF6"/>
<circle r="9.74718" transform="matrix(0.866044 0.499967 -0.866044 0.499967 347.213 741.848)" stroke="#61E2F8" stroke-opacity="0.5" stroke-width="5"/>
<line y1="-2.5" x2="163.296" y2="-2.5" transform="matrix(0.866044 -0.499967 0.866044 0.499967 354 740.643)" stroke="#57DFF6" stroke-width="5"/>
</g>
<g filter="url(#filter2_d_545_622)">
<circle r="8.16479" transform="matrix(0.866044 -0.499967 -0.866044 -0.499967 202.213 398.246)" fill="#57DFF6"/>
<circle r="9.74718" transform="matrix(0.866044 -0.499967 -0.866044 -0.499967 202.213 398.246)" stroke="#61E2F8" stroke-opacity="0.5" stroke-width="5"/>
<line y1="-2.5" x2="163.296" y2="-2.5" transform="matrix(0.866044 0.499967 0.866044 -0.499967 211.406 401.104)" stroke="#57DFF6" stroke-width="5"/>
</g>
<g filter="url(#filter3_d_545_622)">
<circle r="8.16479" transform="matrix(-0.866044 -0.499967 0.866044 -0.499967 844.099 514.246)" fill="#57DFF6"/>
<circle r="9.74718" transform="matrix(-0.866044 -0.499967 0.866044 -0.499967 844.099 514.246)" stroke="#61E2F8" stroke-opacity="0.5" stroke-width="5"/>
<line y1="-2.5" x2="163.296" y2="-2.5" transform="matrix(-0.866044 0.499967 -0.866044 -0.499967 837.422 515)" stroke="#57DFF6" stroke-width="5"/>
</g>
<g filter="url(#filter4_d_545_622)">
<circle r="8.16479" transform="matrix(0.866044 0.499967 0.866044 -0.499967 589.099 419.246)" fill="#57DFF6"/>
<circle r="9.74718" transform="matrix(0.866044 0.499967 0.866044 -0.499967 589.099 419.246)" stroke="#61E2F8" stroke-opacity="0.5" stroke-width="5"/>
<line y1="-2.5" x2="163.296" y2="-2.5" transform="matrix(-0.866044 0.499967 0.866044 0.499967 586.421 423)" stroke="#57DFF6" stroke-width="5"/>
</g>
<g filter="url(#filter5_d_545_622)">
<circle r="8.16479" transform="matrix(0.866044 -0.499967 0.866044 0.499967 705.099 783.848)" fill="#57DFF6"/>
<circle r="9.74718" transform="matrix(0.866044 -0.499967 0.866044 0.499967 705.099 783.848)" stroke="#61E2F8" stroke-opacity="0.5" stroke-width="5"/>
<path d="M699.5 780.5L556.563 698.148" stroke="#57DFF6" stroke-width="5"/>
</g>
<g filter="url(#filter6_d_545_622)">
<circle r="8.16479" transform="matrix(-0.866044 0.499967 0.866044 0.499967 868.771 744.138)" fill="#57DFF6"/>
<circle r="9.74718" transform="matrix(-0.866044 0.499967 0.866044 0.499967 868.771 744.138)" stroke="#61E2F8" stroke-opacity="0.5" stroke-width="5"/>
<path d="M861 744L741.5 739L669.359 697.017" stroke="#57DFF6" stroke-width="5"/>
</g>
<g filter="url(#filter7_d_545_622)">
<circle r="8.16479" transform="matrix(0.866044 0.499967 -0.866044 0.499967 80.2133 703.138)" fill="#57DFF6"/>
<circle r="9.74718" transform="matrix(0.866044 0.499967 -0.866044 0.499967 80.2133 703.138)" stroke="#61E2F8" stroke-opacity="0.5" stroke-width="5"/>
<path d="M88 703.5L214.5 702.5L339 631" stroke="#57DFF6" stroke-width="5"/>
</g>
<rect width="493.97" height="284.135" transform="matrix(0.866044 0.499967 -0.866044 0.499967 373.637 380.415)" fill="#1AA9CB"/>
<rect width="81.6479" height="81.6479" rx="10" transform="matrix(0.866044 0.499967 -0.866044 0.499967 554.71 676)" fill="#0D7391"/>
<path fill-rule="evenodd" clip-rule="evenodd" d="M559.316 690.891C556.974 689.539 552.475 689.535 550.139 690.884L509.247 714.491C506.911 715.839 506.917 718.436 509.259 719.789L550.257 743.456C552.599 744.809 557.098 744.812 559.434 743.463L600.325 719.857C602.661 718.508 602.656 715.911 600.313 714.559L559.316 690.891ZM545.898 688.435C550.57 685.738 558.861 685.744 563.546 688.449L604.544 712.116C609.228 714.821 609.239 719.607 604.566 722.305L563.675 745.912C559.002 748.609 550.711 748.603 546.026 745.898L505.029 722.231C500.344 719.526 500.334 714.74 505.006 712.042L545.898 688.435Z" fill="#0D7391"/>
<path d="M524.958 722.505C528.331 724.452 532.918 725.16 537.62 725.399L537.852 725.534L535.189 727.609L540.712 730.797L557.573 721.063C565.511 716.481 566.311 711.925 559.217 707.83C554.682 705.212 548.874 703.866 543.763 703.191L541.745 707.176C545.809 707.783 549.759 708.591 552.549 710.202C556.445 712.451 555.116 714.628 552.22 716.434C539.2 710.39 530.954 709.309 524.87 712.821C519.889 715.698 519.958 719.619 524.958 722.505ZM532.324 720.736C529.94 719.36 529.297 717.718 531.846 716.246C534.685 714.607 539.271 714.913 548.047 718.842L541.673 722.522C537.553 722.417 534.65 722.079 532.324 720.736ZM546.608 734.201L553.294 738.061L579.623 722.861L572.938 719.001L546.608 734.201ZM581.292 718.071C583.676 719.447 586.81 719.517 589.128 718.179C591.389 716.874 591.266 715.065 588.882 713.689C586.499 712.313 583.365 712.243 581.107 713.547C578.788 714.886 578.909 716.695 581.293 718.071L581.292 718.071Z" fill="#003C58"/>
<rect width="81.6479" height="81.6479" rx="10" transform="matrix(0.866044 0.499967 -0.866044 0.499967 554.71 661)" fill="white"/>
<path fill-rule="evenodd" clip-rule="evenodd" d="M559.316 675.891C556.974 674.539 552.475 674.535 550.139 675.884L509.247 699.491C506.911 700.839 506.917 703.436 509.259 704.789L550.257 728.456C552.599 729.809 557.098 729.812 559.434 728.463L600.325 704.857C602.661 703.508 602.656 700.911 600.313 699.559L559.316 675.891ZM545.898 673.435C550.57 670.738 558.861 670.744 563.546 673.449L604.544 697.116C609.228 699.821 609.239 704.607 604.566 707.305L563.675 730.912C559.002 733.609 550.711 733.603 546.026 730.898L505.029 707.231C500.344 704.526 500.334 699.74 505.006 697.042L545.898 673.435Z" fill="#1AA9CB"/>
<path d="M524.958 707.505C528.331 709.452 532.918 710.16 537.62 710.399L537.852 710.534L535.189 712.609L540.712 715.797L557.573 706.063C565.511 701.481 566.311 696.925 559.217 692.83C554.682 690.212 548.874 688.866 543.763 688.191L541.745 692.176C545.809 692.783 549.759 693.591 552.549 695.202C556.445 697.451 555.116 699.628 552.22 701.434C539.2 695.39 530.954 694.309 524.87 697.821C519.889 700.698 519.958 704.619 524.958 707.505ZM532.324 705.736C529.94 704.36 529.297 702.718 531.846 701.246C534.685 699.607 539.271 699.913 548.047 703.842L541.673 707.522C537.553 707.417 534.65 707.079 532.324 705.736ZM546.608 719.201L553.294 723.061L579.623 707.861L572.938 704.001L546.608 719.201ZM581.292 703.071C583.676 704.447 586.81 704.517 589.128 703.179C591.389 701.874 591.266 700.065 588.882 698.689C586.499 697.313 583.365 697.243 581.107 698.547C578.788 699.886 578.909 701.695 581.293 703.071L581.292 703.071Z" fill="#003C58"/>
<path d="M498.02 601.04L508.582 594.948L508.617 607.072L498.02 601.04Z" fill="#0D7391"/>
<path fill-rule="evenodd" clip-rule="evenodd" d="M323.943 563.481L337.416 571.103L365.707 555.099L352.389 547.565C354.652 545.208 356.455 542.748 357.799 540.227H376.929L376.929 517.594H357.799C356.527 515.207 354.843 512.875 352.748 510.635L366.221 503.013L337.931 487.009L324.613 494.543C320.504 493.28 316.217 492.27 311.824 491.514L311.824 480.763L271.815 480.763L271.815 491.452C267.294 492.215 262.883 493.245 258.662 494.543L245.344 487.009L217.053 503.013L230.527 510.635C228.431 512.875 226.748 515.207 225.476 517.594L206.71 517.594L206.71 540.227H225.476C226.819 542.748 228.623 545.208 230.886 547.565L217.568 555.099L245.858 571.103L259.331 563.481C263.349 564.683 267.532 565.646 271.815 566.369L271.815 577.057L311.824 577.057L311.824 566.307C315.979 565.591 320.039 564.649 323.943 563.481Z" fill="#003C58" fill-opacity="0.5"/>
<path d="M317.356 514.361C331.56 522.396 331.56 535.424 317.356 543.459C303.152 551.495 280.123 551.495 265.919 543.459C251.715 535.424 251.715 522.396 265.919 514.361C280.123 506.326 303.152 506.326 317.356 514.361Z" fill="white" fill-opacity="0.1"/>
<path fill-rule="evenodd" clip-rule="evenodd" d="M316.669 545.66L330.142 553.282L358.432 537.278L345.114 529.744C347.377 527.388 349.181 524.928 350.524 522.406H369.654V499.773H350.524C349.253 497.386 347.569 495.055 345.473 492.814L358.947 485.192L330.656 469.188L317.338 476.722C313.23 475.46 308.943 474.45 304.549 473.693L304.549 462.943L264.541 462.943L264.541 473.631C260.019 474.394 255.609 475.425 251.387 476.722L238.069 469.188L209.779 485.192L223.252 492.814C221.157 495.055 219.473 497.386 218.202 499.773L199.436 499.773V522.406L218.202 522.406C219.545 524.928 221.348 527.388 223.611 529.744L210.293 537.278L238.584 553.282L252.057 545.66C256.075 546.863 260.258 547.825 264.541 548.548V559.236L304.549 559.236L304.549 548.486C308.705 547.771 312.765 546.829 316.669 545.66Z" fill="#C4C4C4"/>
<path d="M310.081 496.541C324.285 504.576 324.285 517.604 310.081 525.639C295.877 533.674 272.848 533.674 258.644 525.639C244.44 517.604 244.44 504.576 258.644 496.541C272.848 488.505 295.877 488.505 310.081 496.541Z" fill="white" fill-opacity="0.75"/>
<path fill-rule="evenodd" clip-rule="evenodd" d="M448.827 594.881L459.258 600.82L481.16 588.35L470.849 582.479C472.601 580.643 473.997 578.726 475.038 576.761H489.848V559.125H475.038C474.053 557.265 472.75 555.448 471.127 553.702L481.558 547.763L459.656 535.293L449.345 541.163C446.165 540.179 442.846 539.393 439.444 538.803V530.426L408.47 530.426L408.47 538.755C404.969 539.349 401.555 540.152 398.286 541.163L387.976 535.293L366.074 547.763L376.504 553.702C374.882 555.448 373.579 557.265 372.594 559.125L358.066 559.125V576.761H372.594C373.634 578.726 375.03 580.643 376.782 582.479L366.472 588.35L388.374 600.82L398.805 594.881C401.915 595.818 405.154 596.568 408.47 597.132V605.46L439.444 605.46L439.444 597.083C442.661 596.526 445.805 595.792 448.827 594.881Z" fill="#003C58" fill-opacity="0.5"/>
<path d="M443.727 556.606C454.724 562.867 454.724 573.019 443.727 579.28C432.73 585.541 414.901 585.541 403.905 579.28C392.908 573.019 392.908 562.867 403.905 556.606C414.901 550.345 432.73 550.345 443.727 556.606Z" fill="white" fill-opacity="0.1"/>
<path fill-rule="evenodd" clip-rule="evenodd" d="M443.195 580.995L453.626 586.934L475.528 574.463L465.218 568.593C466.97 566.757 468.366 564.84 469.406 562.875H484.216V545.239H469.406C468.421 543.379 467.118 541.562 465.496 539.816L475.926 533.877L454.024 521.407L443.714 527.277C440.533 526.293 437.214 525.506 433.812 524.917L433.812 516.54L402.838 516.54L402.838 524.868C399.338 525.463 395.923 526.266 392.655 527.277L382.344 521.407L360.442 533.877L370.873 539.816C369.25 541.562 367.947 543.379 366.963 545.239L352.434 545.239L352.434 562.875L366.963 562.875C368.003 564.84 369.399 566.757 371.151 568.593L360.84 574.463L382.742 586.934L393.173 580.995C396.284 581.932 399.522 582.682 402.838 583.245L402.838 591.574L433.812 591.574L433.812 583.197C437.03 582.639 440.173 581.905 443.195 580.995Z" fill="#C4C4C4"/>
<path d="M438.095 542.72C449.092 548.981 449.092 559.133 438.095 565.394C427.099 571.655 409.27 571.655 398.273 565.394C387.276 559.133 387.276 548.981 398.273 542.72C409.27 536.459 427.099 536.459 438.095 542.72Z" fill="white" fill-opacity="0.75"/>
<path fill-rule="evenodd" clip-rule="evenodd" d="M459.58 663.758L467.295 668.361L483.493 658.696L475.868 654.146C477.164 652.723 478.196 651.238 478.965 649.715H489.919V636.047H478.965C478.237 634.605 477.273 633.197 476.073 631.844L483.788 627.242L467.589 617.577L459.964 622.127C457.611 621.364 455.157 620.754 452.641 620.297L452.641 613.805L429.733 613.805L429.733 620.26C427.144 620.721 424.619 621.343 422.201 622.127L414.576 617.577L398.377 627.242L406.092 631.844C404.892 633.197 403.928 634.605 403.2 636.047L392.455 636.047L392.455 649.715H403.2C403.969 651.238 405.002 652.723 406.297 654.146L398.672 658.696L414.87 668.361L422.585 663.758C424.885 664.484 427.281 665.065 429.733 665.502L429.733 671.956L452.641 671.956V665.464C455.02 665.032 457.345 664.463 459.58 663.758Z" fill="#003C58" fill-opacity="0.5"/>
<path d="M455.809 634.095C463.942 638.947 463.942 646.815 455.809 651.667C447.676 656.519 434.49 656.519 426.357 651.667C418.224 646.815 418.224 638.947 426.357 634.095C434.49 629.242 447.676 629.242 455.809 634.095Z" fill="white" fill-opacity="0.1"/>
<path fill-rule="evenodd" clip-rule="evenodd" d="M455.415 652.996L463.13 657.599L479.328 647.934L471.703 643.384C472.998 641.962 474.031 640.476 474.8 638.953H485.754L485.754 625.285L474.8 625.285C474.072 623.844 473.108 622.436 471.908 621.083L479.623 616.48L463.424 606.815L455.799 611.365C453.446 610.602 450.992 609.992 448.476 609.536L448.476 603.044L425.568 603.044L425.568 609.498C422.979 609.959 420.454 610.581 418.036 611.365L410.411 606.815L394.212 616.48L401.927 621.083C400.727 622.436 399.763 623.844 399.035 625.285L388.29 625.285L388.29 638.953L399.035 638.953C399.804 640.476 400.837 641.962 402.132 643.384L394.507 647.934L410.705 657.599L418.42 652.996C420.72 653.722 423.115 654.304 425.568 654.74L425.568 661.195L448.476 661.195L448.476 654.703C450.855 654.271 453.18 653.702 455.415 652.996Z" fill="#C4C4C4"/>
<path d="M451.643 623.333C459.776 628.185 459.776 636.053 451.643 640.905C443.511 645.758 430.324 645.758 422.192 640.905C414.059 636.053 414.059 628.185 422.192 623.333C430.324 618.481 443.511 618.481 451.643 623.333Z" fill="white" fill-opacity="0.75"/>
<mask id="mask0_545_622" style="mask-type:alpha" maskUnits="userSpaceOnUse" x="507" y="406" width="249" height="287">
<rect width="80.8279" height="65.6727" transform="matrix(0.872399 -0.488794 0.872399 0.488794 507.928 528.606)" fill="#0D7391"/>
<rect width="80.5346" height="65.4344" transform="matrix(-0.0044828 -0.988685 -0.879983 -0.49811 566.196 640.126)" fill="#0D7391"/>
<rect width="109.756" height="107.631" transform="matrix(-0.00308491 -0.988594 0.883685 -0.491704 660.664 692.167)" fill="#0D7391"/>
<rect width="74.5573" height="73.1142" transform="matrix(-0.232841 -0.965752 0.291674 -0.963346 660.553 691.526)" fill="#0D7391"/>
<rect width="28.5407" height="27.9883" transform="matrix(-0.662892 -0.731248 0.707303 -0.724964 659.553 692.249)" fill="#0D7391"/>
<rect width="109.756" height="107.631" transform="matrix(0.00308491 -0.988594 -0.883685 -0.491704 659.176 691.955)" fill="#0D7391"/>
<rect width="110.976" height="108.828" transform="matrix(-0.870919 -0.491427 -0.870919 0.491427 755.249 531.536)" fill="#0D7391"/>
<rect x="668" y="428.681" width="25" height="90.7975" fill="#0D7391"/>
<ellipse cx="680.5" cy="430.215" rx="12.5" ry="5.21472" fill="#0D7391"/>
<ellipse cx="680.5" cy="519.785" rx="12.5" ry="5.21472" fill="#0D7391"/>
<rect x="636" y="409.681" width="25" height="90.7975" fill="#0D7391"/>
<ellipse cx="648.5" cy="411.215" rx="12.5" ry="5.21472" fill="#0D7391"/>
<ellipse cx="648.5" cy="500.785" rx="12.5" ry="5.21472" fill="#0D7391"/>
<rect x="700" y="445.681" width="25" height="90.7975" fill="#0D7391"/>
<ellipse cx="712.5" cy="447.215" rx="12.5" ry="5.21472" fill="#0D7391"/>
<ellipse cx="712.5" cy="536.785" rx="12.5" ry="5.21472" fill="#0D7391"/>
<rect width="38.3745" height="24.4944" transform="matrix(0.866044 0.499967 0.866044 -0.499967 607 542.246)" fill="#0D7391"/>
</mask>
<g mask="url(#mask0_545_622)">
<rect x="505.178" y="492.645" width="369.518" height="139.806" transform="rotate(30.6648 505.178 492.645)" fill="#0D7391"/>
</g>
<rect width="80.8279" height="65.6727" transform="matrix(0.872399 -0.488794 0.872399 0.488794 499.928 512.606)" fill="#7CC4CF"/>
<rect width="80.5346" height="65.4344" transform="matrix(-0.0044828 -0.988685 -0.879983 -0.49811 558.196 624.126)" fill="#003C58"/>
<rect width="109.756" height="107.631" transform="matrix(-0.00308491 -0.988594 0.883685 -0.491704 652.562 675.955)" fill="#C1F7FF"/>
<rect width="109.756" height="107.631" transform="matrix(0.00308491 -0.988594 -0.883685 -0.491704 651.176 675.955)" fill="#003C58"/>
<rect width="110.976" height="108.828" transform="matrix(-0.870919 -0.491427 -0.870919 0.491427 747.249 515.536)" fill="#8FE3F0"/>
<rect x="660" y="412.681" width="25" height="90.7975" fill="#0D7391"/>
<ellipse cx="672.5" cy="414.215" rx="12.5" ry="5.21472" fill="#0D7391"/>
<ellipse cx="672.5" cy="503.785" rx="12.5" ry="5.21472" fill="#0D7391"/>
<rect x="628" y="393.681" width="25" height="90.7975" fill="#0D7391"/>
<ellipse cx="640.5" cy="395.215" rx="12.5" ry="5.21472" fill="#0D7391"/>
<ellipse cx="640.5" cy="484.785" rx="12.5" ry="5.21472" fill="#0D7391"/>
<rect x="692" y="429.681" width="25" height="90.7975" fill="#0D7391"/>
<ellipse cx="704.5" cy="431.215" rx="12.5" ry="5.21472" fill="#0D7391"/>
<ellipse cx="704.5" cy="520.785" rx="12.5" ry="5.21472" fill="#0D7391"/>
<rect width="38.3745" height="24.4944" transform="matrix(0.866044 0.499967 0.866044 -0.499967 599 526.246)" fill="#003C58"/>
<mask id="mask1_545_622" style="mask-type:alpha" maskUnits="userSpaceOnUse" x="507" y="406" width="249" height="287">
<rect width="80.8279" height="65.6727" transform="matrix(0.872399 -0.488794 0.872399 0.488794 507.928 528.606)" fill="#0D7391"/>
<rect width="80.5346" height="65.4344" transform="matrix(-0.0044828 -0.988685 -0.879983 -0.49811 566.196 640.126)" fill="#0D7391"/>
<rect width="109.756" height="107.631" transform="matrix(-0.00308491 -0.988594 0.883685 -0.491704 660.664 692.167)" fill="#0D7391"/>
<rect width="74.5573" height="73.1142" transform="matrix(-0.232841 -0.965752 0.291674 -0.963346 660.553 691.526)" fill="#0D7391"/>
<rect width="28.5407" height="27.9883" transform="matrix(-0.662892 -0.731248 0.707303 -0.724964 659.553 692.249)" fill="#0D7391"/>
<rect width="109.756" height="107.631" transform="matrix(0.00308491 -0.988594 -0.883685 -0.491704 659.176 691.955)" fill="#0D7391"/>
<rect width="110.976" height="108.828" transform="matrix(-0.870919 -0.491427 -0.870919 0.491427 755.249 531.536)" fill="#0D7391"/>
<rect x="668" y="428.681" width="25" height="90.7975" fill="#0D7391"/>
<ellipse cx="680.5" cy="430.215" rx="12.5" ry="5.21472" fill="#0D7391"/>
<ellipse cx="680.5" cy="519.785" rx="12.5" ry="5.21472" fill="#0D7391"/>
<rect x="636" y="409.681" width="25" height="90.7975" fill="#0D7391"/>
<ellipse cx="648.5" cy="411.215" rx="12.5" ry="5.21472" fill="#0D7391"/>
<ellipse cx="648.5" cy="500.785" rx="12.5" ry="5.21472" fill="#0D7391"/>
<rect x="700" y="445.681" width="25" height="90.7975" fill="#0D7391"/>
<ellipse cx="712.5" cy="447.215" rx="12.5" ry="5.21472" fill="#0D7391"/>
<ellipse cx="712.5" cy="536.785" rx="12.5" ry="5.21472" fill="#0D7391"/>
<rect width="38.3745" height="24.4944" transform="matrix(0.866044 0.499967 0.866044 -0.499967 607 542.246)" fill="#0D7391"/>
</mask>
<g mask="url(#mask1_545_622)">
<rect x="505.178" y="492.645" width="369.518" height="139.806" transform="rotate(30.6648 505.178 492.645)" fill="#0D7391"/>
</g>
<rect width="80.8279" height="65.6727" transform="matrix(0.872399 -0.488794 0.872399 0.488794 499.928 512.606)" fill="#7CC4CF"/>
<rect width="80.5346" height="65.4344" transform="matrix(-0.0044828 -0.988685 -0.879983 -0.49811 558.196 624.126)" fill="#003C58"/>
<rect width="109.756" height="107.631" transform="matrix(-0.00308491 -0.988594 0.883685 -0.491704 652.562 675.955)" fill="#C1F7FF"/>
<rect width="109.756" height="107.631" transform="matrix(0.00308491 -0.988594 -0.883685 -0.491704 651.176 675.955)" fill="#003C58"/>
<rect width="110.976" height="108.828" transform="matrix(-0.870919 -0.491427 -0.870919 0.491427 747.249 515.536)" fill="#8FE3F0"/>
<rect x="660" y="412.681" width="25" height="90.7975" fill="#1AA9CB"/>
<ellipse cx="672.5" cy="414.215" rx="12.5" ry="5.21472" fill="#1AA9CB"/>
<ellipse cx="672.5" cy="503.785" rx="12.5" ry="5.21472" fill="#1AA9CB"/>
<rect x="628" y="393.681" width="25" height="90.7975" fill="#1AA9CB"/>
<ellipse cx="640.5" cy="395.215" rx="12.5" ry="5.21472" fill="#1AA9CB"/>
<ellipse cx="640.5" cy="484.785" rx="12.5" ry="5.21472" fill="#1AA9CB"/>
<rect x="692" y="429.681" width="25" height="90.7975" fill="#1AA9CB"/>
<ellipse cx="704.5" cy="431.215" rx="12.5" ry="5.21472" fill="#1AA9CB"/>
<ellipse cx="704.5" cy="520.785" rx="12.5" ry="5.21472" fill="#1AA9CB"/>
<rect width="38.3745" height="24.4944" transform="matrix(0.866044 0.499967 0.866044 -0.499967 599 526.246)" fill="#003C58"/>
<rect x="416" y="442.871" width="80" height="225.178" transform="rotate(-180 416 442.871)" fill="url(#paint1_linear_545_622)"/>
<ellipse cx="376" cy="439.067" rx="40" ry="12.9325" transform="rotate(-180 376 439.067)" fill="#FBD488"/>
<rect x="504" y="499.871" width="80" height="225.178" transform="rotate(-180 504 499.871)" fill="url(#paint2_linear_545_622)"/>
<ellipse cx="464" cy="496.067" rx="40" ry="12.9325" transform="rotate(-180 464 496.067)" fill="#FBD488"/>
<path fill-rule="evenodd" clip-rule="evenodd" d="M658.471 300.035C657.192 303.005 655.423 305.536 653.406 307.476C661.001 308.473 666.734 311.915 668.302 317.232C669.141 320.078 668.686 323.12 667.187 326.092C676.99 331.829 682.563 340.244 680.269 347.212C678.286 353.235 670.929 356.636 661.675 356.665C662.055 361.245 661.625 366.369 660.261 371.607C656.225 387.106 645.545 397.742 636.407 395.363C629.717 393.621 625.709 385.386 625.624 375.017C623.88 373.721 622.168 372.258 620.523 370.638C614.593 364.797 610.697 358.058 609.253 351.988C597.107 346.359 589.737 336.693 592.317 328.857C593.425 325.49 596.212 322.943 600.071 321.345C599.341 317.012 599.942 312.732 602.089 309.011C603.456 306.642 605.333 304.7 607.58 303.206C604.692 295.989 604.908 289.192 608.859 285.181C614.661 279.29 626.595 281.362 637.134 289.515C641.043 281.541 648.535 277.145 654.305 279.628C660.339 282.225 662.204 291.361 658.471 300.035Z" fill="url(#paint3_linear_545_622)"/>
<path fill-rule="evenodd" clip-rule="evenodd" d="M674.268 242.878C663.762 246.347 658.004 255.735 661.409 263.846C663.061 267.782 666.568 270.695 670.942 272.253C672.53 274.318 675.086 276.048 678.247 277.268C678.271 279.614 678.983 282.271 680.419 284.852C683.765 290.864 689.773 294.179 693.838 292.256C697.726 290.417 698.43 284.453 695.558 278.677C704.722 277.014 711.016 271.772 710.143 265.987C709.549 262.049 705.766 258.747 700.414 256.865C700.525 254.994 700.223 253.106 699.457 251.282C696.053 243.171 684.775 239.409 674.268 242.878Z" fill="url(#paint4_linear_545_622)"/>
<defs>
<filter id="filter0_d_545_622" x="138.213" y="581.5" width="171.208" height="102.007" filterUnits="userSpaceOnUse" color-interpolation-filters="sRGB">
<feFlood flood-opacity="0" result="BackgroundImageFix"/>
<feColorMatrix in="SourceAlpha" type="matrix" values="0 0 0 0 0 0 0 0 0 0 0 0 0 0 0 0 0 0 127 0" result="hardAlpha"/>
<feOffset dy="4"/>
<feGaussianBlur stdDeviation="2"/>
<feComposite in2="hardAlpha" operator="out"/>
<feColorMatrix type="matrix" values="0 0 0 0 0 0 0 0 0 0 0 0 0 0 0 0 0 0 0.25 0"/>
<feBlend mode="normal" in2="BackgroundImageFix" result="effect1_dropShadow_545_622"/>
<feBlend mode="normal" in="SourceGraphic" in2="effect1_dropShadow_545_622" result="shape"/>
</filter>
<filter id="filter1_d_545_622" x="328.213" y="656.5" width="171.208" height="102.007" filterUnits="userSpaceOnUse" color-interpolation-filters="sRGB">
<feFlood flood-opacity="0" result="BackgroundImageFix"/>
<feColorMatrix in="SourceAlpha" type="matrix" values="0 0 0 0 0 0 0 0 0 0 0 0 0 0 0 0 0 0 127 0" result="hardAlpha"/>
<feOffset dy="4"/>
<feGaussianBlur stdDeviation="2"/>
<feComposite in2="hardAlpha" operator="out"/>
<feColorMatrix type="matrix" values="0 0 0 0 0 0 0 0 0 0 0 0 0 0 0 0 0 0 0.25 0"/>
<feBlend mode="normal" in2="BackgroundImageFix" result="effect1_dropShadow_545_622"/>
<feBlend mode="normal" in="SourceGraphic" in2="effect1_dropShadow_545_622" result="shape"/>
</filter>
<filter id="filter2_d_545_622" x="183.213" y="389.587" width="173.614" height="103.659" filterUnits="userSpaceOnUse" color-interpolation-filters="sRGB">
<feFlood flood-opacity="0" result="BackgroundImageFix"/>
<feColorMatrix in="SourceAlpha" type="matrix" values="0 0 0 0 0 0 0 0 0 0 0 0 0 0 0 0 0 0 127 0" result="hardAlpha"/>
<feOffset dy="4"/>
<feGaussianBlur stdDeviation="2"/>
<feComposite in2="hardAlpha" operator="out"/>
<feColorMatrix type="matrix" values="0 0 0 0 0 0 0 0 0 0 0 0 0 0 0 0 0 0 0.25 0"/>
<feBlend mode="normal" in2="BackgroundImageFix" result="effect1_dropShadow_545_622"/>
<feBlend mode="normal" in="SourceGraphic" in2="effect1_dropShadow_545_622" result="shape"/>
</filter>
<filter id="filter3_d_545_622" x="692" y="505.587" width="171.099" height="101.556" filterUnits="userSpaceOnUse" color-interpolation-filters="sRGB">
<feFlood flood-opacity="0" result="BackgroundImageFix"/>
<feColorMatrix in="SourceAlpha" type="matrix" values="0 0 0 0 0 0 0 0 0 0 0 0 0 0 0 0 0 0 127 0" result="hardAlpha"/>
<feOffset dy="4"/>
<feGaussianBlur stdDeviation="2"/>
<feComposite in2="hardAlpha" operator="out"/>
<feColorMatrix type="matrix" values="0 0 0 0 0 0 0 0 0 0 0 0 0 0 0 0 0 0 0.25 0"/>
<feBlend mode="normal" in2="BackgroundImageFix" result="effect1_dropShadow_545_622"/>
<feBlend mode="normal" in="SourceGraphic" in2="effect1_dropShadow_545_622" result="shape"/>
</filter>
<filter id="filter4_d_545_622" x="436.67" y="410.587" width="171.429" height="102.056" filterUnits="userSpaceOnUse" color-interpolation-filters="sRGB">
<feFlood flood-opacity="0" result="BackgroundImageFix"/>
<feColorMatrix in="SourceAlpha" type="matrix" values="0 0 0 0 0 0 0 0 0 0 0 0 0 0 0 0 0 0 127 0" result="hardAlpha"/>
<feOffset dy="4"/>
<feGaussianBlur stdDeviation="2"/>
<feComposite in2="hardAlpha" operator="out"/>
<feColorMatrix type="matrix" values="0 0 0 0 0 0 0 0 0 0 0 0 0 0 0 0 0 0 0.25 0"/>
<feBlend mode="normal" in2="BackgroundImageFix" result="effect1_dropShadow_545_622"/>
<feBlend mode="normal" in="SourceGraphic" in2="effect1_dropShadow_545_622" result="shape"/>
</filter>
<filter id="filter5_d_545_622" x="553.4" y="696.897" width="167.699" height="100.61" filterUnits="userSpaceOnUse" color-interpolation-filters="sRGB">
<feFlood flood-opacity="0" result="BackgroundImageFix"/>
<feColorMatrix in="SourceAlpha" type="matrix" values="0 0 0 0 0 0 0 0 0 0 0 0 0 0 0 0 0 0 127 0" result="hardAlpha"/>
<feOffset dy="4"/>
<feGaussianBlur stdDeviation="0.5"/>
<feComposite in2="hardAlpha" operator="out"/>
<feColorMatrix type="matrix" values="0 0 0 0 0 0 0 0 0 0 0 0 0 0 0 0 0 0 0.25 0"/>
<feBlend mode="normal" in2="BackgroundImageFix" result="effect1_dropShadow_545_622"/>
<feBlend mode="normal" in="SourceGraphic" in2="effect1_dropShadow_545_622" result="shape"/>
</filter>
<filter id="filter6_d_545_622" x="663.19" y="695.775" width="224.581" height="65.0223" filterUnits="userSpaceOnUse" color-interpolation-filters="sRGB">
<feFlood flood-opacity="0" result="BackgroundImageFix"/>
<feColorMatrix in="SourceAlpha" type="matrix" values="0 0 0 0 0 0 0 0 0 0 0 0 0 0 0 0 0 0 127 0" result="hardAlpha"/>
<feOffset dy="4"/>
<feGaussianBlur stdDeviation="2"/>
<feComposite in2="hardAlpha" operator="out"/>
<feColorMatrix type="matrix" values="0 0 0 0 0 0 0 0 0 0 0 0 0 0 0 0 0 0 0.25 0"/>
<feBlend mode="normal" in2="BackgroundImageFix" result="effect1_dropShadow_545_622"/>
<feBlend mode="normal" in="SourceGraphic" in2="effect1_dropShadow_545_622" result="shape"/>
</filter>
<filter id="filter7_d_545_622" x="61.2133" y="629.747" width="283.946" height="90.0504" filterUnits="userSpaceOnUse" color-interpolation-filters="sRGB">
<feFlood flood-opacity="0" result="BackgroundImageFix"/>
<feColorMatrix in="SourceAlpha" type="matrix" values="0 0 0 0 0 0 0 0 0 0 0 0 0 0 0 0 0 0 127 0" result="hardAlpha"/>
<feOffset dy="4"/>
<feGaussianBlur stdDeviation="2"/>
<feComposite in2="hardAlpha" operator="out"/>
<feColorMatrix type="matrix" values="0 0 0 0 0 0 0 0 0 0 0 0 0 0 0 0 0 0 0.25 0"/>
<feBlend mode="normal" in2="BackgroundImageFix" result="effect1_dropShadow_545_622"/>
<feBlend mode="normal" in="SourceGraphic" in2="effect1_dropShadow_545_622" result="shape"/>
</filter>
<linearGradient id="paint0_linear_545_622" x1="499.656" y1="92.4209" x2="483.34" y2="662.196" gradientUnits="userSpaceOnUse">
<stop stop-color="#57DFF6"/>
<stop offset="1" stop-color="#57DFF6" stop-opacity="0"/>
</linearGradient>
<linearGradient id="paint1_linear_545_622" x1="456" y1="442.871" x2="456" y2="668.049" gradientUnits="userSpaceOnUse">
<stop stop-color="#FFC24B"/>
<stop offset="0.942708" stop-color="#FBD488" stop-opacity="0.0572917"/>
<stop offset="1" stop-color="#FBD488" stop-opacity="0"/>
</linearGradient>
<linearGradient id="paint2_linear_545_622" x1="544" y1="499.871" x2="544" y2="725.049" gradientUnits="userSpaceOnUse">
<stop stop-color="#FFC24B"/>
<stop offset="0.942708" stop-color="#FBD488" stop-opacity="0.0572917"/>
<stop offset="1" stop-color="#FBD488" stop-opacity="0"/>
</linearGradient>
<linearGradient id="paint3_linear_545_622" x1="636.293" y1="278.935" x2="636.293" y2="395.696" gradientUnits="userSpaceOnUse">
<stop stop-color="#DED9D9"/>
<stop offset="1" stop-color="#DED9D9" stop-opacity="0.44"/>
</linearGradient>
<linearGradient id="paint4_linear_545_622" x1="685.327" y1="241.587" x2="685.327" y2="292.802" gradientUnits="userSpaceOnUse">
<stop stop-color="#D7D7D7"/>
<stop offset="1" stop-color="#D7D7D7" stop-opacity="0.38"/>
</linearGradient>
</defs>
</svg>
