<svg width="433" height="286" viewBox="0 0 433 286" fill="none" xmlns="http://www.w3.org/2000/svg">
<rect x="5" y="5" width="406.854" height="258.87" rx="10" stroke="#BDDBFF" stroke-width="10"/>
<path d="M141.187 201.1L139.177 196.9H139.087V211H134.797V190.06H139.777L145.507 199.96L147.517 204.16H147.607V190.06H151.897V211H146.917L141.187 201.1ZM162.836 211.36C161.636 211.36 160.566 211.17 159.626 210.79C158.686 210.39 157.886 209.84 157.226 209.14C156.586 208.42 156.096 207.55 155.756 206.53C155.436 205.51 155.276 204.37 155.276 203.11C155.276 201.87 155.436 200.75 155.756 199.75C156.076 198.73 156.546 197.86 157.166 197.14C157.806 196.42 158.586 195.87 159.506 195.49C160.426 195.09 161.476 194.89 162.656 194.89C163.956 194.89 165.066 195.11 165.986 195.55C166.926 195.99 167.686 196.58 168.266 197.32C168.866 198.06 169.296 198.92 169.556 199.9C169.836 200.86 169.976 201.87 169.976 202.93V204.25H159.866V204.49C159.866 205.53 160.146 206.36 160.706 206.98C161.266 207.58 162.146 207.88 163.346 207.88C164.266 207.88 165.016 207.7 165.596 207.34C166.176 206.96 166.716 206.51 167.216 205.99L169.436 208.75C168.736 209.57 167.816 210.21 166.676 210.67C165.556 211.13 164.276 211.36 162.836 211.36ZM162.746 198.16C161.846 198.16 161.136 198.46 160.616 199.06C160.116 199.64 159.866 200.42 159.866 201.4V201.64H165.386V201.37C165.386 200.41 165.166 199.64 164.726 199.06C164.306 198.46 163.646 198.16 162.746 198.16ZM178.632 211C177.092 211 175.922 210.61 175.122 209.83C174.342 209.05 173.952 207.91 173.952 206.41V198.7H171.732V195.25H172.842C173.442 195.25 173.852 195.11 174.072 194.83C174.292 194.53 174.402 194.11 174.402 193.57V190.99H178.392V195.25H181.512V198.7H178.392V207.55H181.272V211H178.632ZM183.097 195.25H187.387L188.917 201.61L189.997 206.41H190.117L191.377 201.61L193.177 195.25H197.227L199.057 201.61L200.347 206.41H200.467L201.547 201.61L203.077 195.25H207.187L202.837 211H198.187L196.267 204.34L195.157 200.26H195.067L193.987 204.34L192.067 211H187.507L183.097 195.25ZM215.918 211.36C214.758 211.36 213.718 211.17 212.798 210.79C211.898 210.41 211.128 209.86 210.488 209.14C209.868 208.42 209.388 207.55 209.048 206.53C208.708 205.51 208.538 204.37 208.538 203.11C208.538 201.85 208.708 200.71 209.048 199.69C209.388 198.67 209.868 197.81 210.488 197.11C211.128 196.39 211.898 195.84 212.798 195.46C213.718 195.08 214.758 194.89 215.918 194.89C217.078 194.89 218.108 195.08 219.008 195.46C219.928 195.84 220.698 196.39 221.318 197.11C221.958 197.81 222.448 198.67 222.788 199.69C223.128 200.71 223.298 201.85 223.298 203.11C223.298 204.37 223.128 205.51 222.788 206.53C222.448 207.55 221.958 208.42 221.318 209.14C220.698 209.86 219.928 210.41 219.008 210.79C218.108 211.17 217.078 211.36 215.918 211.36ZM215.918 207.85C216.798 207.85 217.478 207.58 217.958 207.04C218.438 206.5 218.678 205.73 218.678 204.73V201.52C218.678 200.52 218.438 199.75 217.958 199.21C217.478 198.67 216.798 198.4 215.918 198.4C215.038 198.4 214.358 198.67 213.878 199.21C213.398 199.75 213.158 200.52 213.158 201.52V204.73C213.158 205.73 213.398 206.5 213.878 207.04C214.358 207.58 215.038 207.85 215.918 207.85ZM226.462 211V195.25H230.902V198.67H231.052C231.132 198.23 231.272 197.81 231.472 197.41C231.672 196.99 231.932 196.62 232.252 196.3C232.592 195.98 232.992 195.73 233.452 195.55C233.912 195.35 234.452 195.25 235.072 195.25H235.852V199.39H234.742C233.442 199.39 232.472 199.56 231.832 199.9C231.212 200.24 230.902 200.87 230.902 201.79V211H226.462ZM238.591 188.8H243.031V201.91H243.211L245.161 199L248.311 195.25H253.231L247.981 201.28L253.831 211H248.551L245.011 204.34L243.031 206.56V211H238.591V188.8ZM258.125 193.57C257.225 193.57 256.565 193.37 256.145 192.97C255.745 192.55 255.545 192.02 255.545 191.38V190.72C255.545 190.08 255.745 189.56 256.145 189.16C256.565 188.74 257.225 188.53 258.125 188.53C259.025 188.53 259.675 188.74 260.075 189.16C260.495 189.56 260.705 190.08 260.705 190.72V191.38C260.705 192.02 260.495 192.55 260.075 192.97C259.675 193.37 259.025 193.57 258.125 193.57ZM255.905 195.25H260.345V211H255.905V195.25ZM264.489 211V195.25H268.929V197.92H269.109C269.389 197.1 269.879 196.39 270.579 195.79C271.279 195.19 272.249 194.89 273.489 194.89C275.109 194.89 276.329 195.43 277.149 196.51C277.989 197.59 278.409 199.13 278.409 201.13V211H273.969V201.49C273.969 200.47 273.809 199.72 273.489 199.24C273.169 198.74 272.599 198.49 271.779 198.49C271.419 198.49 271.069 198.54 270.729 198.64C270.389 198.72 270.079 198.86 269.799 199.06C269.539 199.26 269.329 199.51 269.169 199.81C269.009 200.09 268.929 200.42 268.929 200.8V211H264.489ZM296.94 212.14C296.94 212.98 296.79 213.72 296.49 214.36C296.21 215 295.74 215.54 295.08 215.98C294.42 216.44 293.54 216.78 292.44 217C291.36 217.24 290.02 217.36 288.42 217.36C287.06 217.36 285.9 217.27 284.94 217.09C284 216.93 283.23 216.69 282.63 216.37C282.05 216.07 281.62 215.69 281.34 215.23C281.08 214.79 280.95 214.28 280.95 213.7C280.95 212.82 281.21 212.13 281.73 211.63C282.25 211.13 282.97 210.82 283.89 210.7V210.37C283.13 210.23 282.56 209.91 282.18 209.41C281.8 208.89 281.61 208.29 281.61 207.61C281.61 207.19 281.69 206.83 281.85 206.53C282.03 206.21 282.25 205.94 282.51 205.72C282.79 205.48 283.11 205.29 283.47 205.15C283.83 205.01 284.19 204.9 284.55 204.82V204.7C283.59 204.26 282.88 203.66 282.42 202.9C281.96 202.12 281.73 201.22 281.73 200.2C281.73 198.6 282.28 197.32 283.38 196.36C284.5 195.38 286.2 194.89 288.48 194.89C289.52 194.89 290.41 194.99 291.15 195.19V194.59C291.15 193.75 291.35 193.15 291.75 192.79C292.17 192.41 292.76 192.22 293.52 192.22H296.01V195.52H292.53V195.7C293.45 196.14 294.13 196.75 294.57 197.53C295.01 198.29 295.23 199.18 295.23 200.2C295.23 201.78 294.67 203.05 293.55 204.01C292.45 204.95 290.76 205.42 288.48 205.42C287.46 205.42 286.53 205.31 285.69 205.09C285.23 205.39 285 205.81 285 206.35C285 206.73 285.14 207.03 285.42 207.25C285.72 207.45 286.21 207.55 286.89 207.55H291.45C293.37 207.55 294.76 207.95 295.62 208.75C296.5 209.55 296.94 210.68 296.94 212.14ZM292.77 212.74C292.77 212.28 292.59 211.93 292.23 211.69C291.87 211.45 291.24 211.33 290.34 211.33H284.94C284.74 211.53 284.59 211.75 284.49 211.99C284.41 212.25 284.37 212.5 284.37 212.74C284.37 213.32 284.62 213.74 285.12 214C285.62 214.28 286.47 214.42 287.67 214.42H289.47C290.67 214.42 291.52 214.28 292.02 214C292.52 213.74 292.77 213.32 292.77 212.74ZM288.48 202.51C289.36 202.51 290.01 202.33 290.43 201.97C290.87 201.59 291.09 201.05 291.09 200.35V199.99C291.09 199.29 290.87 198.76 290.43 198.4C290.01 198.02 289.36 197.83 288.48 197.83C287.6 197.83 286.94 198.02 286.5 198.4C286.08 198.76 285.87 199.29 285.87 199.99V200.35C285.87 201.05 286.08 201.59 286.5 201.97C286.94 202.33 287.6 202.51 288.48 202.51Z" fill="white"/>
<rect x="21.1457" y="19.8959" width="406.854" height="261.104" rx="10" stroke="#3D9AE2" stroke-width="10"/>
<g filter="url(#filter0_d_470_186)">
<path fill-rule="evenodd" clip-rule="evenodd" d="M225.629 74.4789L219.736 73.9247L224.621 63.2509H231.307L227.522 69.378L234.331 70.1273L221.824 85.1116L225.629 74.4789ZM236.789 111.56C233.385 112.022 230.145 113.089 227.306 115.347C224.097 117.903 221.207 121.587 219.098 126.042C218.985 126.278 218.872 126.524 218.769 126.76C216.146 126.863 213.708 126.432 212.073 124.43C208.771 121.29 205.14 117.369 201.355 114.916C198.064 112.781 196.151 112.381 192.479 111.622H192.448L186.482 126.38L184.456 117.123H185.269C186.009 117.123 186.606 116.517 186.606 115.789V113.613C186.606 112.874 185.999 112.279 185.269 112.279H180.404C179.663 112.279 179.066 112.884 179.066 113.613V115.789C179.066 116.528 179.673 117.123 180.404 117.123H181.226L179.138 126.257L173.481 111.622C166.847 111.909 159.946 117.646 155.883 126.196C153.496 131.214 152.869 134.991 152.478 140.349C151.696 145.757 151.275 151.105 151.306 156.38C152.612 164.601 163.052 162.168 163.947 156.38L165.222 139.815C165.417 137.311 165.582 135.627 166.6 133.236C167.073 132.117 167.649 131.163 168.318 130.362L168.945 160.619L168.791 161.737H197.128L196.933 160.331L197.488 128.012L203.495 134.037C206.467 136.849 210.366 138.799 215.765 139.353L215.704 140.195C214.912 145.593 214.5 150.94 214.531 156.226C215.837 164.447 226.277 162.014 227.172 156.226L228.448 139.661C228.489 139.096 228.53 138.573 228.581 138.08C229.569 137.67 230.464 136.972 231.317 135.751C231.441 135.576 231.544 135.402 231.646 135.227L232.171 160.485L232.017 161.604H260.333L260.138 160.198L260.59 134.15V134.652L260.683 130.219C261.351 131.009 261.927 131.963 262.4 133.082C263.419 135.463 263.583 137.157 263.779 139.661L265.054 156.226C264.684 162.435 278.035 161.871 277.695 156.226C277.726 150.94 277.315 145.593 276.523 140.195C276.132 134.827 275.494 131.06 273.118 126.042C268.952 117.256 263.563 112.607 255.375 111.652L249.605 126.226L247.579 116.969H248.474C249.214 116.969 249.811 116.363 249.811 115.635V113.459C249.811 112.72 249.204 112.125 248.474 112.125H243.609C242.868 112.125 242.272 112.73 242.272 113.459V115.635C242.272 116.374 242.878 116.969 243.609 116.969H244.349L242.261 126.103L236.789 111.56ZM246.9 79.4976C255.118 79.4976 261.783 86.1482 261.783 94.3486C261.783 102.549 255.118 109.2 246.9 109.2C238.682 109.2 232.017 102.549 232.017 94.3486C232.017 86.1482 238.682 79.4976 246.9 79.4976ZM182.831 79.4976C191.049 79.4976 197.714 86.1482 197.714 94.3486C197.714 102.549 191.049 109.2 182.831 109.2C174.613 109.2 167.948 102.559 167.948 94.3588C167.948 86.1482 174.613 79.4976 182.831 79.4976ZM205.974 74.4789L211.867 73.9247L206.982 63.2509H200.296L204.081 69.378L197.272 70.1273L209.779 85.1116L205.974 74.4789Z" fill="white"/>
</g>
<defs>
<filter id="filter0_d_470_186" x="138" y="56" width="153" height="121" filterUnits="userSpaceOnUse" color-interpolation-filters="sRGB">
<feFlood flood-opacity="0" result="BackgroundImageFix"/>
<feColorMatrix in="SourceAlpha" type="matrix" values="0 0 0 0 0 0 0 0 0 0 0 0 0 0 0 0 0 0 127 0" result="hardAlpha"/>
<feOffset dy="4"/>
<feGaussianBlur stdDeviation="2"/>
<feComposite in2="hardAlpha" operator="out"/>
<feColorMatrix type="matrix" values="0 0 0 0 0 0 0 0 0 0 0 0 0 0 0 0 0 0 0.25 0"/>
<feBlend mode="normal" in2="BackgroundImageFix" result="effect1_dropShadow_470_186"/>
<feBlend mode="normal" in="SourceGraphic" in2="effect1_dropShadow_470_186" result="shape"/>
</filter>
</defs>
</svg>
