<svg width="590" height="384" viewBox="0 0 590 384" fill="none" xmlns="http://www.w3.org/2000/svg">
<rect x="5" y="5" width="558" height="351" rx="10" stroke="#BDDBFF" stroke-width="10"/>
<path d="M66.6906 284L63.2906 270.04H65.0706L66.5706 276.76L67.7306 281.98H67.7706L69.0706 276.76L70.8306 270.04H72.7506L74.4506 276.76L75.7506 281.96H75.8106L77.0106 276.76L78.5906 270.04H80.3106L76.7306 284H74.8706L73.0506 277.04L71.7706 271.92H71.7306L70.4106 277.04L68.5506 284H66.6906ZM89.7078 284C89.1078 284 88.6745 283.84 88.4078 283.52C88.1545 283.2 87.9945 282.8 87.9278 282.32H87.8278C87.6011 282.96 87.2278 283.44 86.7078 283.76C86.1878 284.08 85.5678 284.24 84.8478 284.24C83.7545 284.24 82.9011 283.96 82.2878 283.4C81.6878 282.84 81.3878 282.08 81.3878 281.12C81.3878 280.147 81.7411 279.4 82.4478 278.88C83.1678 278.36 84.2811 278.1 85.7878 278.1H87.8278V277.08C87.8278 276.347 87.6278 275.787 87.2278 275.4C86.8278 275.013 86.2145 274.82 85.3878 274.82C84.7611 274.82 84.2345 274.96 83.8078 275.24C83.3945 275.52 83.0478 275.893 82.7678 276.36L81.8078 275.46C82.0878 274.9 82.5345 274.427 83.1478 274.04C83.7611 273.64 84.5345 273.44 85.4678 273.44C86.7211 273.44 87.6945 273.747 88.3878 274.36C89.0811 274.973 89.4278 275.827 89.4278 276.92V282.6H90.6078V284H89.7078ZM85.1078 282.88C85.5078 282.88 85.8745 282.833 86.2078 282.74C86.5411 282.647 86.8278 282.513 87.0678 282.34C87.3078 282.167 87.4945 281.967 87.6278 281.74C87.7611 281.513 87.8278 281.267 87.8278 281V279.3H85.7078C84.7878 279.3 84.1145 279.433 83.6878 279.7C83.2745 279.967 83.0678 280.353 83.0678 280.86V281.28C83.0678 281.787 83.2478 282.18 83.6078 282.46C83.9811 282.74 84.4811 282.88 85.1078 282.88ZM95.1714 284C94.6114 284 94.1847 283.847 93.8914 283.54C93.6114 283.22 93.4714 282.807 93.4714 282.3V275.08H91.7714V273.68H92.7314C93.0781 273.68 93.3114 273.613 93.4314 273.48C93.5647 273.333 93.6314 273.087 93.6314 272.74V270.82H95.0714V273.68H97.3314V275.08H95.0714V282.6H97.1714V284H95.1714ZM103.665 284.24C102.945 284.24 102.298 284.113 101.725 283.86C101.152 283.607 100.665 283.247 100.265 282.78C99.8783 282.313 99.5783 281.747 99.365 281.08C99.165 280.413 99.065 279.667 99.065 278.84C99.065 278.013 99.165 277.267 99.365 276.6C99.5783 275.933 99.8783 275.367 100.265 274.9C100.665 274.433 101.152 274.073 101.725 273.82C102.298 273.567 102.945 273.44 103.665 273.44C104.692 273.44 105.512 273.667 106.125 274.12C106.752 274.56 107.218 275.14 107.525 275.86L106.185 276.54C105.998 276.007 105.692 275.593 105.265 275.3C104.838 275.007 104.305 274.86 103.665 274.86C103.185 274.86 102.765 274.94 102.405 275.1C102.045 275.247 101.745 275.46 101.505 275.74C101.265 276.007 101.085 276.333 100.965 276.72C100.845 277.093 100.785 277.507 100.785 277.96V279.72C100.785 280.627 101.025 281.373 101.505 281.96C101.998 282.533 102.718 282.82 103.665 282.82C104.958 282.82 105.892 282.22 106.465 281.02L107.625 281.8C107.292 282.547 106.792 283.14 106.125 283.58C105.472 284.02 104.652 284.24 103.665 284.24ZM109.884 269.2H111.484V275.36H111.564C111.817 274.773 112.17 274.307 112.624 273.96C113.09 273.613 113.71 273.44 114.484 273.44C115.55 273.44 116.39 273.787 117.004 274.48C117.63 275.16 117.944 276.127 117.944 277.38V284H116.344V277.66C116.344 275.807 115.564 274.88 114.004 274.88C113.684 274.88 113.37 274.92 113.064 275C112.77 275.08 112.504 275.2 112.264 275.36C112.024 275.52 111.83 275.727 111.684 275.98C111.55 276.22 111.484 276.507 111.484 276.84V284H109.884V269.2ZM128.257 284C127.697 284 127.271 283.847 126.977 283.54C126.697 283.22 126.557 282.807 126.557 282.3V275.08H124.857V273.68H125.817C126.164 273.68 126.397 273.613 126.517 273.48C126.651 273.333 126.717 273.087 126.717 272.74V270.82H128.157V273.68H130.417V275.08H128.157V282.6H130.257V284H128.257ZM136.791 284.24C136.084 284.24 135.444 284.113 134.871 283.86C134.311 283.607 133.824 283.247 133.411 282.78C133.011 282.3 132.698 281.733 132.471 281.08C132.258 280.413 132.151 279.667 132.151 278.84C132.151 278.027 132.258 277.287 132.471 276.62C132.698 275.953 133.011 275.387 133.411 274.92C133.824 274.44 134.311 274.073 134.871 273.82C135.444 273.567 136.084 273.44 136.791 273.44C137.484 273.44 138.104 273.567 138.651 273.82C139.198 274.073 139.664 274.427 140.051 274.88C140.438 275.32 140.731 275.847 140.931 276.46C141.144 277.073 141.251 277.747 141.251 278.48V279.24H133.831V279.72C133.831 280.16 133.898 280.573 134.031 280.96C134.178 281.333 134.378 281.66 134.631 281.94C134.898 282.22 135.218 282.44 135.591 282.6C135.978 282.76 136.411 282.84 136.891 282.84C137.544 282.84 138.111 282.687 138.591 282.38C139.084 282.073 139.464 281.633 139.731 281.06L140.871 281.88C140.538 282.587 140.018 283.16 139.311 283.6C138.604 284.027 137.764 284.24 136.791 284.24ZM136.791 274.78C136.351 274.78 135.951 274.86 135.591 275.02C135.231 275.167 134.918 275.38 134.651 275.66C134.398 275.94 134.198 276.273 134.051 276.66C133.904 277.033 133.831 277.447 133.831 277.9V278.04H139.531V277.82C139.531 276.9 139.278 276.167 138.771 275.62C138.278 275.06 137.618 274.78 136.791 274.78ZM151.388 284C150.788 284 150.354 283.84 150.088 283.52C149.834 283.2 149.674 282.8 149.608 282.32H149.508C149.281 282.96 148.908 283.44 148.388 283.76C147.868 284.08 147.248 284.24 146.528 284.24C145.434 284.24 144.581 283.96 143.968 283.4C143.368 282.84 143.068 282.08 143.068 281.12C143.068 280.147 143.421 279.4 144.128 278.88C144.848 278.36 145.961 278.1 147.467 278.1H149.508V277.08C149.508 276.347 149.308 275.787 148.908 275.4C148.508 275.013 147.894 274.82 147.068 274.82C146.441 274.82 145.914 274.96 145.488 275.24C145.074 275.52 144.728 275.893 144.448 276.36L143.488 275.46C143.768 274.9 144.214 274.427 144.827 274.04C145.441 273.64 146.214 273.44 147.148 273.44C148.401 273.44 149.374 273.747 150.068 274.36C150.761 274.973 151.108 275.827 151.108 276.92V282.6H152.287V284H151.388ZM146.788 282.88C147.188 282.88 147.554 282.833 147.888 282.74C148.221 282.647 148.508 282.513 148.748 282.34C148.988 282.167 149.174 281.967 149.308 281.74C149.441 281.513 149.508 281.267 149.508 281V279.3H147.388C146.468 279.3 145.794 279.433 145.368 279.7C144.954 279.967 144.748 280.353 144.748 280.86V281.28C144.748 281.787 144.928 282.18 145.288 282.46C145.661 282.74 146.161 282.88 146.788 282.88ZM154.571 284V273.68H156.171V275.36H156.251C156.371 275.093 156.504 274.847 156.651 274.62C156.811 274.38 156.998 274.173 157.211 274C157.438 273.827 157.698 273.693 157.991 273.6C158.284 273.493 158.631 273.44 159.031 273.44C159.711 273.44 160.338 273.607 160.911 273.94C161.484 274.26 161.911 274.793 162.191 275.54H162.231C162.418 274.98 162.764 274.493 163.271 274.08C163.791 273.653 164.491 273.44 165.371 273.44C166.424 273.44 167.244 273.787 167.831 274.48C168.431 275.16 168.731 276.127 168.731 277.38V284H167.131V277.66C167.131 276.74 166.951 276.047 166.591 275.58C166.231 275.113 165.658 274.88 164.871 274.88C164.551 274.88 164.244 274.92 163.951 275C163.671 275.08 163.418 275.2 163.191 275.36C162.964 275.52 162.784 275.727 162.651 275.98C162.518 276.22 162.451 276.507 162.451 276.84V284H160.851V277.66C160.851 276.74 160.671 276.047 160.311 275.58C159.951 275.113 159.391 274.88 158.631 274.88C158.311 274.88 158.004 274.92 157.711 275C157.418 275.08 157.158 275.2 156.931 275.36C156.704 275.52 156.518 275.727 156.371 275.98C156.238 276.22 156.171 276.507 156.171 276.84V284H154.571ZM175.132 284.24C174.172 284.24 173.365 284.06 172.712 283.7C172.072 283.327 171.519 282.833 171.052 282.22L172.192 281.3C172.592 281.807 173.039 282.2 173.532 282.48C174.025 282.747 174.599 282.88 175.252 282.88C175.932 282.88 176.459 282.733 176.832 282.44C177.219 282.147 177.412 281.733 177.412 281.2C177.412 280.8 177.279 280.46 177.012 280.18C176.759 279.887 176.292 279.687 175.612 279.58L174.792 279.46C174.312 279.393 173.872 279.293 173.472 279.16C173.072 279.013 172.719 278.827 172.412 278.6C172.119 278.36 171.885 278.067 171.712 277.72C171.552 277.373 171.472 276.96 171.472 276.48C171.472 275.973 171.565 275.533 171.752 275.16C171.939 274.773 172.192 274.453 172.512 274.2C172.845 273.947 173.239 273.76 173.692 273.64C174.145 273.507 174.632 273.44 175.152 273.44C175.992 273.44 176.692 273.587 177.252 273.88C177.825 274.173 178.325 274.58 178.752 275.1L177.692 276.06C177.465 275.74 177.132 275.453 176.692 275.2C176.252 274.933 175.699 274.8 175.032 274.8C174.365 274.8 173.859 274.947 173.512 275.24C173.179 275.52 173.012 275.907 173.012 276.4C173.012 276.907 173.179 277.273 173.512 277.5C173.859 277.727 174.352 277.893 174.992 278L175.792 278.12C176.939 278.293 177.752 278.627 178.232 279.12C178.712 279.6 178.952 280.233 178.952 281.02C178.952 282.02 178.612 282.807 177.932 283.38C177.252 283.953 176.319 284.24 175.132 284.24ZM186.505 273.68H188.105V275.36H188.185C188.451 274.707 188.838 274.227 189.345 273.92C189.865 273.6 190.485 273.44 191.205 273.44C191.845 273.44 192.425 273.567 192.945 273.82C193.465 274.073 193.905 274.433 194.265 274.9C194.638 275.367 194.918 275.933 195.105 276.6C195.305 277.267 195.405 278.013 195.405 278.84C195.405 279.667 195.305 280.413 195.105 281.08C194.918 281.747 194.638 282.313 194.265 282.78C193.905 283.247 193.465 283.607 192.945 283.86C192.425 284.113 191.845 284.24 191.205 284.24C189.805 284.24 188.798 283.6 188.185 282.32H188.105V288H186.505V273.68ZM190.765 282.8C191.671 282.8 192.385 282.52 192.905 281.96C193.425 281.387 193.685 280.64 193.685 279.72V277.96C193.685 277.04 193.425 276.3 192.905 275.74C192.385 275.167 191.671 274.88 190.765 274.88C190.405 274.88 190.058 274.933 189.725 275.04C189.405 275.133 189.125 275.267 188.885 275.44C188.645 275.613 188.451 275.827 188.305 276.08C188.171 276.32 188.105 276.58 188.105 276.86V280.7C188.105 281.033 188.171 281.333 188.305 281.6C188.451 281.853 188.645 282.073 188.885 282.26C189.125 282.433 189.405 282.567 189.725 282.66C190.058 282.753 190.405 282.8 190.765 282.8ZM198.906 271.26C198.56 271.26 198.306 271.18 198.146 271.02C198 270.847 197.926 270.627 197.926 270.36V270.1C197.926 269.833 198 269.62 198.146 269.46C198.306 269.287 198.56 269.2 198.906 269.2C199.253 269.2 199.5 269.287 199.646 269.46C199.806 269.62 199.886 269.833 199.886 270.1V270.36C199.886 270.627 199.806 270.847 199.646 271.02C199.5 271.18 199.253 271.26 198.906 271.26ZM198.106 273.68H199.706V284H198.106V273.68ZM205.386 284C204.826 284 204.4 283.847 204.106 283.54C203.826 283.22 203.686 282.807 203.686 282.3V275.08H201.986V273.68H202.946C203.293 273.68 203.526 273.613 203.646 273.48C203.78 273.333 203.846 273.087 203.846 272.74V270.82H205.286V273.68H207.546V275.08H205.286V282.6H207.386V284H205.386ZM213.88 284.24C213.16 284.24 212.513 284.113 211.94 283.86C211.367 283.607 210.88 283.247 210.48 282.78C210.093 282.313 209.793 281.747 209.58 281.08C209.38 280.413 209.28 279.667 209.28 278.84C209.28 278.013 209.38 277.267 209.58 276.6C209.793 275.933 210.093 275.367 210.48 274.9C210.88 274.433 211.367 274.073 211.94 273.82C212.513 273.567 213.16 273.44 213.88 273.44C214.907 273.44 215.727 273.667 216.34 274.12C216.967 274.56 217.433 275.14 217.74 275.86L216.4 276.54C216.213 276.007 215.907 275.593 215.48 275.3C215.053 275.007 214.52 274.86 213.88 274.86C213.4 274.86 212.98 274.94 212.62 275.1C212.26 275.247 211.96 275.46 211.72 275.74C211.48 276.007 211.3 276.333 211.18 276.72C211.06 277.093 211 277.507 211 277.96V279.72C211 280.627 211.24 281.373 211.72 281.96C212.213 282.533 212.933 282.82 213.88 282.82C215.173 282.82 216.107 282.22 216.68 281.02L217.84 281.8C217.507 282.547 217.007 283.14 216.34 283.58C215.687 284.02 214.867 284.24 213.88 284.24ZM220.098 269.2H221.698V275.36H221.778C222.032 274.773 222.385 274.307 222.838 273.96C223.305 273.613 223.925 273.44 224.698 273.44C225.765 273.44 226.605 273.787 227.218 274.48C227.845 275.16 228.158 276.127 228.158 277.38V284H226.558V277.66C226.558 275.807 225.778 274.88 224.218 274.88C223.898 274.88 223.585 274.92 223.278 275C222.985 275.08 222.718 275.2 222.478 275.36C222.238 275.52 222.045 275.727 221.898 275.98C221.765 276.22 221.698 276.507 221.698 276.84V284H220.098V269.2ZM238.472 284C237.912 284 237.486 283.847 237.192 283.54C236.912 283.22 236.772 282.807 236.772 282.3V275.08H235.072V273.68H236.032C236.379 273.68 236.612 273.613 236.732 273.48C236.866 273.333 236.932 273.087 236.932 272.74V270.82H238.372V273.68H240.632V275.08H238.372V282.6H240.472V284H238.472ZM243.204 269.2H244.804V275.36H244.884C245.137 274.773 245.491 274.307 245.944 273.96C246.411 273.613 247.031 273.44 247.804 273.44C248.871 273.44 249.711 273.787 250.324 274.48C250.951 275.16 251.264 276.127 251.264 277.38V284H249.664V277.66C249.664 275.807 248.884 274.88 247.324 274.88C247.004 274.88 246.691 274.92 246.384 275C246.091 275.08 245.824 275.2 245.584 275.36C245.344 275.52 245.151 275.727 245.004 275.98C244.871 276.22 244.804 276.507 244.804 276.84V284H243.204V269.2ZM258.451 284.24C257.744 284.24 257.104 284.113 256.531 283.86C255.971 283.607 255.484 283.247 255.071 282.78C254.671 282.3 254.358 281.733 254.131 281.08C253.918 280.413 253.811 279.667 253.811 278.84C253.811 278.027 253.918 277.287 254.131 276.62C254.358 275.953 254.671 275.387 255.071 274.92C255.484 274.44 255.971 274.073 256.531 273.82C257.104 273.567 257.744 273.44 258.451 273.44C259.144 273.44 259.764 273.567 260.311 273.82C260.858 274.073 261.324 274.427 261.711 274.88C262.098 275.32 262.391 275.847 262.591 276.46C262.804 277.073 262.911 277.747 262.911 278.48V279.24H255.491V279.72C255.491 280.16 255.558 280.573 255.691 280.96C255.838 281.333 256.038 281.66 256.291 281.94C256.558 282.22 256.878 282.44 257.251 282.6C257.638 282.76 258.071 282.84 258.551 282.84C259.204 282.84 259.771 282.687 260.251 282.38C260.744 282.073 261.124 281.633 261.391 281.06L262.531 281.88C262.198 282.587 261.678 283.16 260.971 283.6C260.264 284.027 259.424 284.24 258.451 284.24ZM258.451 274.78C258.011 274.78 257.611 274.86 257.251 275.02C256.891 275.167 256.578 275.38 256.311 275.66C256.058 275.94 255.858 276.273 255.711 276.66C255.564 277.033 255.491 277.447 255.491 277.9V278.04H261.191V277.82C261.191 276.9 260.938 276.167 260.431 275.62C259.938 275.06 259.278 274.78 258.451 274.78ZM266.348 271.26C266.001 271.26 265.748 271.18 265.588 271.02C265.441 270.847 265.368 270.627 265.368 270.36V270.1C265.368 269.833 265.441 269.62 265.588 269.46C265.748 269.287 266.001 269.2 266.348 269.2C266.694 269.2 266.941 269.287 267.088 269.46C267.248 269.62 267.328 269.833 267.328 270.1V270.36C267.328 270.627 267.248 270.847 267.088 271.02C266.941 271.18 266.694 271.26 266.348 271.26ZM265.548 273.68H267.148V284H265.548V273.68ZM270.548 284V273.68H272.148V275.58H272.248C272.434 275.087 272.768 274.647 273.248 274.26C273.728 273.873 274.388 273.68 275.228 273.68H275.848V275.28H274.908C274.041 275.28 273.361 275.447 272.868 275.78C272.388 276.1 272.148 276.507 272.148 277V284H270.548ZM291.518 284L290.118 279.88H284.478L283.078 284H281.378L286.258 270.04H288.398L293.278 284H291.518ZM287.338 271.6H287.238L284.878 278.4H289.698L287.338 271.6ZM294.93 284V282.6H296.89V271.44H294.93V270.04H300.53V271.44H298.57V282.6H300.53V284H294.93ZM311.265 284.24C310.305 284.24 309.498 284.06 308.845 283.7C308.205 283.327 307.652 282.833 307.185 282.22L308.325 281.3C308.725 281.807 309.172 282.2 309.665 282.48C310.158 282.747 310.732 282.88 311.385 282.88C312.065 282.88 312.592 282.733 312.965 282.44C313.352 282.147 313.545 281.733 313.545 281.2C313.545 280.8 313.412 280.46 313.145 280.18C312.892 279.887 312.425 279.687 311.745 279.58L310.925 279.46C310.445 279.393 310.005 279.293 309.605 279.16C309.205 279.013 308.852 278.827 308.545 278.6C308.252 278.36 308.018 278.067 307.845 277.72C307.685 277.373 307.605 276.96 307.605 276.48C307.605 275.973 307.698 275.533 307.885 275.16C308.072 274.773 308.325 274.453 308.645 274.2C308.978 273.947 309.372 273.76 309.825 273.64C310.278 273.507 310.765 273.44 311.285 273.44C312.125 273.44 312.825 273.587 313.385 273.88C313.958 274.173 314.458 274.58 314.885 275.1L313.825 276.06C313.598 275.74 313.265 275.453 312.825 275.2C312.385 274.933 311.832 274.8 311.165 274.8C310.498 274.8 309.992 274.947 309.645 275.24C309.312 275.52 309.145 275.907 309.145 276.4C309.145 276.907 309.312 277.273 309.645 277.5C309.992 277.727 310.485 277.893 311.125 278L311.925 278.12C313.072 278.293 313.885 278.627 314.365 279.12C314.845 279.6 315.085 280.233 315.085 281.02C315.085 282.02 314.745 282.807 314.065 283.38C313.385 283.953 312.452 284.24 311.265 284.24ZM321.811 284.24C321.118 284.24 320.484 284.113 319.911 283.86C319.338 283.607 318.844 283.247 318.431 282.78C318.031 282.3 317.718 281.733 317.491 281.08C317.264 280.413 317.151 279.667 317.151 278.84C317.151 278.027 317.264 277.287 317.491 276.62C317.718 275.953 318.031 275.387 318.431 274.92C318.844 274.44 319.338 274.073 319.911 273.82C320.484 273.567 321.118 273.44 321.811 273.44C322.504 273.44 323.131 273.567 323.691 273.82C324.264 274.073 324.758 274.44 325.171 274.92C325.584 275.387 325.904 275.953 326.131 276.62C326.358 277.287 326.471 278.027 326.471 278.84C326.471 279.667 326.358 280.413 326.131 281.08C325.904 281.733 325.584 282.3 325.171 282.78C324.758 283.247 324.264 283.607 323.691 283.86C323.131 284.113 322.504 284.24 321.811 284.24ZM321.811 282.82C322.678 282.82 323.384 282.553 323.931 282.02C324.478 281.487 324.751 280.673 324.751 279.58V278.1C324.751 277.007 324.478 276.193 323.931 275.66C323.384 275.127 322.678 274.86 321.811 274.86C320.944 274.86 320.238 275.127 319.691 275.66C319.144 276.193 318.871 277.007 318.871 278.1V279.58C318.871 280.673 319.144 281.487 319.691 282.02C320.238 282.553 320.944 282.82 321.811 282.82ZM330.802 284C330.242 284 329.816 283.847 329.522 283.54C329.242 283.22 329.102 282.82 329.102 282.34V269.2H330.702V282.6H332.222V284H330.802ZM340.912 282.32H340.832C340.725 282.56 340.592 282.8 340.432 283.04C340.285 283.267 340.098 283.473 339.872 283.66C339.645 283.833 339.372 283.973 339.052 284.08C338.732 284.187 338.358 284.24 337.932 284.24C336.865 284.24 336.018 283.9 335.392 283.22C334.765 282.527 334.452 281.553 334.452 280.3V273.68H336.052V280.02C336.052 281.873 336.838 282.8 338.412 282.8C338.732 282.8 339.038 282.76 339.332 282.68C339.638 282.6 339.905 282.48 340.132 282.32C340.372 282.16 340.558 281.96 340.692 281.72C340.838 281.467 340.912 281.167 340.912 280.82V273.68H342.512V284H340.912V282.32ZM348.199 284C347.639 284 347.212 283.847 346.919 283.54C346.639 283.22 346.499 282.807 346.499 282.3V275.08H344.799V273.68H345.759C346.105 273.68 346.339 273.613 346.459 273.48C346.592 273.333 346.659 273.087 346.659 272.74V270.82H348.099V273.68H350.359V275.08H348.099V282.6H350.199V284H348.199ZM353.73 271.26C353.384 271.26 353.13 271.18 352.97 271.02C352.824 270.847 352.75 270.627 352.75 270.36V270.1C352.75 269.833 352.824 269.62 352.97 269.46C353.13 269.287 353.384 269.2 353.73 269.2C354.077 269.2 354.324 269.287 354.47 269.46C354.63 269.62 354.71 269.833 354.71 270.1V270.36C354.71 270.627 354.63 270.847 354.47 271.02C354.324 271.18 354.077 271.26 353.73 271.26ZM352.93 273.68H354.53V284H352.93V273.68ZM361.83 284.24C361.137 284.24 360.504 284.113 359.93 283.86C359.357 283.607 358.864 283.247 358.45 282.78C358.05 282.3 357.737 281.733 357.51 281.08C357.284 280.413 357.17 279.667 357.17 278.84C357.17 278.027 357.284 277.287 357.51 276.62C357.737 275.953 358.05 275.387 358.45 274.92C358.864 274.44 359.357 274.073 359.93 273.82C360.504 273.567 361.137 273.44 361.83 273.44C362.524 273.44 363.15 273.567 363.71 273.82C364.284 274.073 364.777 274.44 365.19 274.92C365.604 275.387 365.924 275.953 366.15 276.62C366.377 277.287 366.49 278.027 366.49 278.84C366.49 279.667 366.377 280.413 366.15 281.08C365.924 281.733 365.604 282.3 365.19 282.78C364.777 283.247 364.284 283.607 363.71 283.86C363.15 284.113 362.524 284.24 361.83 284.24ZM361.83 282.82C362.697 282.82 363.404 282.553 363.95 282.02C364.497 281.487 364.77 280.673 364.77 279.58V278.1C364.77 277.007 364.497 276.193 363.95 275.66C363.404 275.127 362.697 274.86 361.83 274.86C360.964 274.86 360.257 275.127 359.71 275.66C359.164 276.193 358.89 277.007 358.89 278.1V279.58C358.89 280.673 359.164 281.487 359.71 282.02C360.257 282.553 360.964 282.82 361.83 282.82ZM369.122 284V273.68H370.722V275.36H370.802C371.055 274.773 371.409 274.307 371.862 273.96C372.329 273.613 372.949 273.44 373.722 273.44C374.789 273.44 375.629 273.787 376.242 274.48C376.869 275.16 377.182 276.127 377.182 277.38V284H375.582V277.66C375.582 275.807 374.802 274.88 373.242 274.88C372.922 274.88 372.609 274.92 372.302 275C372.009 275.08 371.742 275.2 371.502 275.36C371.262 275.52 371.069 275.727 370.922 275.98C370.789 276.22 370.722 276.507 370.722 276.84V284H369.122ZM383.589 284.24C382.629 284.24 381.822 284.06 381.169 283.7C380.529 283.327 379.976 282.833 379.509 282.22L380.649 281.3C381.049 281.807 381.496 282.2 381.989 282.48C382.482 282.747 383.056 282.88 383.709 282.88C384.389 282.88 384.916 282.733 385.289 282.44C385.676 282.147 385.869 281.733 385.869 281.2C385.869 280.8 385.736 280.46 385.469 280.18C385.216 279.887 384.749 279.687 384.069 279.58L383.249 279.46C382.769 279.393 382.329 279.293 381.929 279.16C381.529 279.013 381.176 278.827 380.869 278.6C380.576 278.36 380.342 278.067 380.169 277.72C380.009 277.373 379.929 276.96 379.929 276.48C379.929 275.973 380.022 275.533 380.209 275.16C380.396 274.773 380.649 274.453 380.969 274.2C381.302 273.947 381.696 273.76 382.149 273.64C382.602 273.507 383.089 273.44 383.609 273.44C384.449 273.44 385.149 273.587 385.709 273.88C386.282 274.173 386.782 274.58 387.209 275.1L386.149 276.06C385.922 275.74 385.589 275.453 385.149 275.2C384.709 274.933 384.156 274.8 383.489 274.8C382.822 274.8 382.316 274.947 381.969 275.24C381.636 275.52 381.469 275.907 381.469 276.4C381.469 276.907 381.636 277.273 381.969 277.5C382.316 277.727 382.809 277.893 383.449 278L384.249 278.12C385.396 278.293 386.209 278.627 386.689 279.12C387.169 279.6 387.409 280.233 387.409 281.02C387.409 282.02 387.069 282.807 386.389 283.38C385.709 283.953 384.776 284.24 383.589 284.24ZM395.762 271.26C395.415 271.26 395.162 271.18 395.002 271.02C394.855 270.847 394.782 270.627 394.782 270.36V270.1C394.782 269.833 394.855 269.62 395.002 269.46C395.162 269.287 395.415 269.2 395.762 269.2C396.108 269.2 396.355 269.287 396.502 269.46C396.662 269.62 396.742 269.833 396.742 270.1V270.36C396.742 270.627 396.662 270.847 396.502 271.02C396.355 271.18 396.108 271.26 395.762 271.26ZM394.962 273.68H396.562V284H394.962V273.68ZM399.962 284V273.68H401.562V275.36H401.642C401.895 274.773 402.248 274.307 402.702 273.96C403.168 273.613 403.788 273.44 404.562 273.44C405.628 273.44 406.468 273.787 407.082 274.48C407.708 275.16 408.022 276.127 408.022 277.38V284H406.422V277.66C406.422 275.807 405.642 274.88 404.082 274.88C403.762 274.88 403.448 274.92 403.142 275C402.848 275.08 402.582 275.2 402.342 275.36C402.102 275.52 401.908 275.727 401.762 275.98C401.628 276.22 401.562 276.507 401.562 276.84V284H399.962ZM419.895 284.24C419.175 284.24 418.529 284.113 417.955 283.86C417.382 283.607 416.895 283.247 416.495 282.78C416.109 282.313 415.809 281.747 415.595 281.08C415.395 280.413 415.295 279.667 415.295 278.84C415.295 278.013 415.395 277.267 415.595 276.6C415.809 275.933 416.109 275.367 416.495 274.9C416.895 274.433 417.382 274.073 417.955 273.82C418.529 273.567 419.175 273.44 419.895 273.44C420.922 273.44 421.742 273.667 422.355 274.12C422.982 274.56 423.449 275.14 423.755 275.86L422.415 276.54C422.229 276.007 421.922 275.593 421.495 275.3C421.069 275.007 420.535 274.86 419.895 274.86C419.415 274.86 418.995 274.94 418.635 275.1C418.275 275.247 417.975 275.46 417.735 275.74C417.495 276.007 417.315 276.333 417.195 276.72C417.075 277.093 417.015 277.507 417.015 277.96V279.72C417.015 280.627 417.255 281.373 417.735 281.96C418.229 282.533 418.949 282.82 419.895 282.82C421.189 282.82 422.122 282.22 422.695 281.02L423.855 281.8C423.522 282.547 423.022 283.14 422.355 283.58C421.702 284.02 420.882 284.24 419.895 284.24ZM429.897 284.24C429.204 284.24 428.57 284.113 427.997 283.86C427.424 283.607 426.93 283.247 426.517 282.78C426.117 282.3 425.804 281.733 425.577 281.08C425.35 280.413 425.237 279.667 425.237 278.84C425.237 278.027 425.35 277.287 425.577 276.62C425.804 275.953 426.117 275.387 426.517 274.92C426.93 274.44 427.424 274.073 427.997 273.82C428.57 273.567 429.204 273.44 429.897 273.44C430.59 273.44 431.217 273.567 431.777 273.82C432.35 274.073 432.844 274.44 433.257 274.92C433.67 275.387 433.99 275.953 434.217 276.62C434.444 277.287 434.557 278.027 434.557 278.84C434.557 279.667 434.444 280.413 434.217 281.08C433.99 281.733 433.67 282.3 433.257 282.78C432.844 283.247 432.35 283.607 431.777 283.86C431.217 284.113 430.59 284.24 429.897 284.24ZM429.897 282.82C430.764 282.82 431.47 282.553 432.017 282.02C432.564 281.487 432.837 280.673 432.837 279.58V278.1C432.837 277.007 432.564 276.193 432.017 275.66C431.47 275.127 430.764 274.86 429.897 274.86C429.03 274.86 428.324 275.127 427.777 275.66C427.23 276.193 426.957 277.007 426.957 278.1V279.58C426.957 280.673 427.23 281.487 427.777 282.02C428.324 282.553 429.03 282.82 429.897 282.82ZM437.188 284V273.68H438.788V275.36H438.868C438.988 275.093 439.122 274.847 439.268 274.62C439.428 274.38 439.615 274.173 439.828 274C440.055 273.827 440.315 273.693 440.608 273.6C440.902 273.493 441.248 273.44 441.648 273.44C442.328 273.44 442.955 273.607 443.528 273.94C444.102 274.26 444.528 274.793 444.808 275.54H444.848C445.035 274.98 445.382 274.493 445.888 274.08C446.408 273.653 447.108 273.44 447.988 273.44C449.042 273.44 449.862 273.787 450.448 274.48C451.048 275.16 451.348 276.127 451.348 277.38V284H449.748V277.66C449.748 276.74 449.568 276.047 449.208 275.58C448.848 275.113 448.275 274.88 447.488 274.88C447.168 274.88 446.862 274.92 446.568 275C446.288 275.08 446.035 275.2 445.808 275.36C445.582 275.52 445.402 275.727 445.268 275.98C445.135 276.22 445.068 276.507 445.068 276.84V284H443.468V277.66C443.468 276.74 443.288 276.047 442.928 275.58C442.568 275.113 442.008 274.88 441.248 274.88C440.928 274.88 440.622 274.92 440.328 275C440.035 275.08 439.775 275.2 439.548 275.36C439.322 275.52 439.135 275.727 438.988 275.98C438.855 276.22 438.788 276.507 438.788 276.84V284H437.188ZM454.649 273.68H456.249V275.36H456.329C456.596 274.707 456.983 274.227 457.489 273.92C458.009 273.6 458.629 273.44 459.349 273.44C459.989 273.44 460.569 273.567 461.089 273.82C461.609 274.073 462.049 274.433 462.409 274.9C462.783 275.367 463.063 275.933 463.249 276.6C463.449 277.267 463.549 278.013 463.549 278.84C463.549 279.667 463.449 280.413 463.249 281.08C463.063 281.747 462.783 282.313 462.409 282.78C462.049 283.247 461.609 283.607 461.089 283.86C460.569 284.113 459.989 284.24 459.349 284.24C457.949 284.24 456.943 283.6 456.329 282.32H456.249V288H454.649V273.68ZM458.909 282.8C459.816 282.8 460.529 282.52 461.049 281.96C461.569 281.387 461.829 280.64 461.829 279.72V277.96C461.829 277.04 461.569 276.3 461.049 275.74C460.529 275.167 459.816 274.88 458.909 274.88C458.549 274.88 458.203 274.933 457.869 275.04C457.549 275.133 457.269 275.267 457.029 275.44C456.789 275.613 456.596 275.827 456.449 276.08C456.316 276.32 456.249 276.58 456.249 276.86V280.7C456.249 281.033 456.316 281.333 456.449 281.6C456.596 281.853 456.789 282.073 457.029 282.26C457.269 282.433 457.549 282.567 457.869 282.66C458.203 282.753 458.549 282.8 458.909 282.8ZM470.131 284.24C469.424 284.24 468.784 284.113 468.211 283.86C467.651 283.607 467.164 283.247 466.751 282.78C466.351 282.3 466.037 281.733 465.811 281.08C465.597 280.413 465.491 279.667 465.491 278.84C465.491 278.027 465.597 277.287 465.811 276.62C466.037 275.953 466.351 275.387 466.751 274.92C467.164 274.44 467.651 274.073 468.211 273.82C468.784 273.567 469.424 273.44 470.131 273.44C470.824 273.44 471.444 273.567 471.991 273.82C472.537 274.073 473.004 274.427 473.391 274.88C473.777 275.32 474.071 275.847 474.271 276.46C474.484 277.073 474.591 277.747 474.591 278.48V279.24H467.171V279.72C467.171 280.16 467.237 280.573 467.371 280.96C467.517 281.333 467.717 281.66 467.971 281.94C468.237 282.22 468.557 282.44 468.931 282.6C469.317 282.76 469.751 282.84 470.231 282.84C470.884 282.84 471.451 282.687 471.931 282.38C472.424 282.073 472.804 281.633 473.071 281.06L474.211 281.88C473.877 282.587 473.357 283.16 472.651 283.6C471.944 284.027 471.104 284.24 470.131 284.24ZM470.131 274.78C469.691 274.78 469.291 274.86 468.931 275.02C468.571 275.167 468.257 275.38 467.991 275.66C467.737 275.94 467.537 276.273 467.391 276.66C467.244 277.033 467.171 277.447 467.171 277.9V278.04H472.871V277.82C472.871 276.9 472.617 276.167 472.111 275.62C471.617 275.06 470.957 274.78 470.131 274.78ZM479.507 284C478.947 284 478.521 283.847 478.227 283.54C477.947 283.22 477.807 282.807 477.807 282.3V275.08H476.107V273.68H477.067C477.414 273.68 477.647 273.613 477.767 273.48C477.901 273.333 477.967 273.087 477.967 272.74V270.82H479.407V273.68H481.667V275.08H479.407V282.6H481.507V284H479.507ZM485.039 271.26C484.692 271.26 484.439 271.18 484.279 271.02C484.132 270.847 484.059 270.627 484.059 270.36V270.1C484.059 269.833 484.132 269.62 484.279 269.46C484.439 269.287 484.692 269.2 485.039 269.2C485.386 269.2 485.632 269.287 485.779 269.46C485.939 269.62 486.019 269.833 486.019 270.1V270.36C486.019 270.627 485.939 270.847 485.779 271.02C485.632 271.18 485.386 271.26 485.039 271.26ZM484.239 273.68H485.839V284H484.239V273.68ZM491.519 284C490.959 284 490.532 283.847 490.239 283.54C489.959 283.22 489.819 282.807 489.819 282.3V275.08H488.119V273.68H489.079C489.426 273.68 489.659 273.613 489.779 273.48C489.912 273.333 489.979 273.087 489.979 272.74V270.82H491.419V273.68H493.679V275.08H491.419V282.6H493.519V284H491.519ZM497.051 271.26C496.704 271.26 496.451 271.18 496.291 271.02C496.144 270.847 496.071 270.627 496.071 270.36V270.1C496.071 269.833 496.144 269.62 496.291 269.46C496.451 269.287 496.704 269.2 497.051 269.2C497.397 269.2 497.644 269.287 497.791 269.46C497.951 269.62 498.031 269.833 498.031 270.1V270.36C498.031 270.627 497.951 270.847 497.791 271.02C497.644 271.18 497.397 271.26 497.051 271.26ZM496.251 273.68H497.851V284H496.251V273.68ZM505.151 284.24C504.457 284.24 503.824 284.113 503.251 283.86C502.677 283.607 502.184 283.247 501.771 282.78C501.371 282.3 501.057 281.733 500.831 281.08C500.604 280.413 500.491 279.667 500.491 278.84C500.491 278.027 500.604 277.287 500.831 276.62C501.057 275.953 501.371 275.387 501.771 274.92C502.184 274.44 502.677 274.073 503.251 273.82C503.824 273.567 504.457 273.44 505.151 273.44C505.844 273.44 506.471 273.567 507.031 273.82C507.604 274.073 508.097 274.44 508.511 274.92C508.924 275.387 509.244 275.953 509.471 276.62C509.697 277.287 509.811 278.027 509.811 278.84C509.811 279.667 509.697 280.413 509.471 281.08C509.244 281.733 508.924 282.3 508.511 282.78C508.097 283.247 507.604 283.607 507.031 283.86C506.471 284.113 505.844 284.24 505.151 284.24ZM505.151 282.82C506.017 282.82 506.724 282.553 507.271 282.02C507.817 281.487 508.091 280.673 508.091 279.58V278.1C508.091 277.007 507.817 276.193 507.271 275.66C506.724 275.127 506.017 274.86 505.151 274.86C504.284 274.86 503.577 275.127 503.031 275.66C502.484 276.193 502.211 277.007 502.211 278.1V279.58C502.211 280.673 502.484 281.487 503.031 282.02C503.577 282.553 504.284 282.82 505.151 282.82ZM512.442 284V273.68H514.042V275.36H514.122C514.376 274.773 514.729 274.307 515.182 273.96C515.649 273.613 516.269 273.44 517.042 273.44C518.109 273.44 518.949 273.787 519.562 274.48C520.189 275.16 520.502 276.127 520.502 277.38V284H518.902V277.66C518.902 275.807 518.122 274.88 516.562 274.88C516.242 274.88 515.929 274.92 515.622 275C515.329 275.08 515.062 275.2 514.822 275.36C514.582 275.52 514.389 275.727 514.242 275.98C514.109 276.22 514.042 276.507 514.042 276.84V284H512.442ZM140.463 310.08H138.783V308.68H140.463V306.6C140.463 305.88 140.65 305.3 141.023 304.86C141.396 304.42 141.963 304.2 142.723 304.2H144.283V305.6H142.063V308.68H144.283V310.08H142.063V319H140.463V310.08ZM150.209 319.24C149.516 319.24 148.883 319.113 148.309 318.86C147.736 318.607 147.243 318.247 146.829 317.78C146.429 317.3 146.116 316.733 145.889 316.08C145.663 315.413 145.549 314.667 145.549 313.84C145.549 313.027 145.663 312.287 145.889 311.62C146.116 310.953 146.429 310.387 146.829 309.92C147.243 309.44 147.736 309.073 148.309 308.82C148.883 308.567 149.516 308.44 150.209 308.44C150.903 308.44 151.529 308.567 152.089 308.82C152.663 309.073 153.156 309.44 153.569 309.92C153.983 310.387 154.303 310.953 154.529 311.62C154.756 312.287 154.869 313.027 154.869 313.84C154.869 314.667 154.756 315.413 154.529 316.08C154.303 316.733 153.983 317.3 153.569 317.78C153.156 318.247 152.663 318.607 152.089 318.86C151.529 319.113 150.903 319.24 150.209 319.24ZM150.209 317.82C151.076 317.82 151.783 317.553 152.329 317.02C152.876 316.487 153.149 315.673 153.149 314.58V313.1C153.149 312.007 152.876 311.193 152.329 310.66C151.783 310.127 151.076 309.86 150.209 309.86C149.343 309.86 148.636 310.127 148.089 310.66C147.543 311.193 147.269 312.007 147.269 313.1V314.58C147.269 315.673 147.543 316.487 148.089 317.02C148.636 317.553 149.343 317.82 150.209 317.82ZM157.501 319V308.68H159.101V310.58H159.201C159.387 310.087 159.721 309.647 160.201 309.26C160.681 308.873 161.341 308.68 162.181 308.68H162.801V310.28H161.861C160.994 310.28 160.314 310.447 159.821 310.78C159.341 311.1 159.101 311.507 159.101 312V319H157.501ZM177.071 319C176.471 319 176.038 318.84 175.771 318.52C175.518 318.2 175.358 317.8 175.291 317.32H175.191C174.964 317.96 174.591 318.44 174.071 318.76C173.551 319.08 172.931 319.24 172.211 319.24C171.118 319.24 170.264 318.96 169.651 318.4C169.051 317.84 168.751 317.08 168.751 316.12C168.751 315.147 169.104 314.4 169.811 313.88C170.531 313.36 171.644 313.1 173.151 313.1H175.191V312.08C175.191 311.347 174.991 310.787 174.591 310.4C174.191 310.013 173.578 309.82 172.751 309.82C172.124 309.82 171.598 309.96 171.171 310.24C170.758 310.52 170.411 310.893 170.131 311.36L169.171 310.46C169.451 309.9 169.898 309.427 170.511 309.04C171.124 308.64 171.898 308.44 172.831 308.44C174.084 308.44 175.058 308.747 175.751 309.36C176.444 309.973 176.791 310.827 176.791 311.92V317.6H177.971V319H177.071ZM172.471 317.88C172.871 317.88 173.238 317.833 173.571 317.74C173.904 317.647 174.191 317.513 174.431 317.34C174.671 317.167 174.858 316.967 174.991 316.74C175.124 316.513 175.191 316.267 175.191 316V314.3H173.071C172.151 314.3 171.478 314.433 171.051 314.7C170.638 314.967 170.431 315.353 170.431 315.86V316.28C170.431 316.787 170.611 317.18 170.971 317.46C171.344 317.74 171.844 317.88 172.471 317.88ZM184.981 308.68H186.581V310.36H186.661C186.928 309.707 187.315 309.227 187.821 308.92C188.341 308.6 188.961 308.44 189.681 308.44C190.321 308.44 190.901 308.567 191.421 308.82C191.941 309.073 192.381 309.433 192.741 309.9C193.115 310.367 193.395 310.933 193.581 311.6C193.781 312.267 193.881 313.013 193.881 313.84C193.881 314.667 193.781 315.413 193.581 316.08C193.395 316.747 193.115 317.313 192.741 317.78C192.381 318.247 191.941 318.607 191.421 318.86C190.901 319.113 190.321 319.24 189.681 319.24C188.281 319.24 187.275 318.6 186.661 317.32H186.581V323H184.981V308.68ZM189.241 317.8C190.148 317.8 190.861 317.52 191.381 316.96C191.901 316.387 192.161 315.64 192.161 314.72V312.96C192.161 312.04 191.901 311.3 191.381 310.74C190.861 310.167 190.148 309.88 189.241 309.88C188.881 309.88 188.535 309.933 188.201 310.04C187.881 310.133 187.601 310.267 187.361 310.44C187.121 310.613 186.928 310.827 186.781 311.08C186.648 311.32 186.581 311.58 186.581 311.86V315.7C186.581 316.033 186.648 316.333 186.781 316.6C186.928 316.853 187.121 317.073 187.361 317.26C187.601 317.433 187.881 317.567 188.201 317.66C188.535 317.753 188.881 317.8 189.241 317.8ZM196.583 319V308.68H198.183V310.58H198.283C198.469 310.087 198.803 309.647 199.283 309.26C199.763 308.873 200.423 308.68 201.263 308.68H201.883V310.28H200.943C200.076 310.28 199.396 310.447 198.903 310.78C198.423 311.1 198.183 311.507 198.183 312V319H196.583ZM204.727 306.26C204.38 306.26 204.127 306.18 203.967 306.02C203.82 305.847 203.747 305.627 203.747 305.36V305.1C203.747 304.833 203.82 304.62 203.967 304.46C204.127 304.287 204.38 304.2 204.727 304.2C205.073 304.2 205.32 304.287 205.467 304.46C205.627 304.62 205.707 304.833 205.707 305.1V305.36C205.707 305.627 205.627 305.847 205.467 306.02C205.32 306.18 205.073 306.26 204.727 306.26ZM203.927 308.68H205.527V319H203.927V308.68ZM207.887 319V317.66L213.747 310.08H208.067V308.68H215.687V309.88L209.707 317.6H215.847V319H207.887ZM221.889 319.24C221.182 319.24 220.542 319.113 219.969 318.86C219.409 318.607 218.922 318.247 218.509 317.78C218.109 317.3 217.795 316.733 217.569 316.08C217.355 315.413 217.249 314.667 217.249 313.84C217.249 313.027 217.355 312.287 217.569 311.62C217.795 310.953 218.109 310.387 218.509 309.92C218.922 309.44 219.409 309.073 219.969 308.82C220.542 308.567 221.182 308.44 221.889 308.44C222.582 308.44 223.202 308.567 223.749 308.82C224.295 309.073 224.762 309.427 225.149 309.88C225.535 310.32 225.829 310.847 226.029 311.46C226.242 312.073 226.349 312.747 226.349 313.48V314.24H218.929V314.72C218.929 315.16 218.995 315.573 219.129 315.96C219.275 316.333 219.475 316.66 219.729 316.94C219.995 317.22 220.315 317.44 220.689 317.6C221.075 317.76 221.509 317.84 221.989 317.84C222.642 317.84 223.209 317.687 223.689 317.38C224.182 317.073 224.562 316.633 224.829 316.06L225.969 316.88C225.635 317.587 225.115 318.16 224.409 318.6C223.702 319.027 222.862 319.24 221.889 319.24ZM221.889 309.78C221.449 309.78 221.049 309.86 220.689 310.02C220.329 310.167 220.015 310.38 219.749 310.66C219.495 310.94 219.295 311.273 219.149 311.66C219.002 312.033 218.929 312.447 218.929 312.9V313.04H224.629V312.82C224.629 311.9 224.375 311.167 223.869 310.62C223.375 310.06 222.715 309.78 221.889 309.78ZM235.992 319C235.432 319 235.005 318.847 234.712 318.54C234.432 318.22 234.292 317.807 234.292 317.3V310.08H232.592V308.68H233.552C233.898 308.68 234.132 308.613 234.252 308.48C234.385 308.333 234.452 308.087 234.452 307.74V305.82H235.892V308.68H238.152V310.08H235.892V317.6H237.992V319H235.992ZM244.545 319.24C243.852 319.24 243.219 319.113 242.645 318.86C242.072 318.607 241.579 318.247 241.165 317.78C240.765 317.3 240.452 316.733 240.225 316.08C239.999 315.413 239.885 314.667 239.885 313.84C239.885 313.027 239.999 312.287 240.225 311.62C240.452 310.953 240.765 310.387 241.165 309.92C241.579 309.44 242.072 309.073 242.645 308.82C243.219 308.567 243.852 308.44 244.545 308.44C245.239 308.44 245.865 308.567 246.425 308.82C246.999 309.073 247.492 309.44 247.905 309.92C248.319 310.387 248.639 310.953 248.865 311.62C249.092 312.287 249.205 313.027 249.205 313.84C249.205 314.667 249.092 315.413 248.865 316.08C248.639 316.733 248.319 317.3 247.905 317.78C247.492 318.247 246.999 318.607 246.425 318.86C245.865 319.113 245.239 319.24 244.545 319.24ZM244.545 317.82C245.412 317.82 246.119 317.553 246.665 317.02C247.212 316.487 247.485 315.673 247.485 314.58V313.1C247.485 312.007 247.212 311.193 246.665 310.66C246.119 310.127 245.412 309.86 244.545 309.86C243.679 309.86 242.972 310.127 242.425 310.66C241.879 311.193 241.605 312.007 241.605 313.1V314.58C241.605 315.673 241.879 316.487 242.425 317.02C242.972 317.553 243.679 317.82 244.545 317.82ZM256.563 304.2H258.163V313.58H258.243L259.823 311.82L262.743 308.68H264.683L260.863 312.76L265.063 319H263.123L259.703 313.74L258.163 315.32V319H256.563V304.2ZM267.91 306.26C267.563 306.26 267.31 306.18 267.15 306.02C267.003 305.847 266.93 305.627 266.93 305.36V305.1C266.93 304.833 267.003 304.62 267.15 304.46C267.31 304.287 267.563 304.2 267.91 304.2C268.257 304.2 268.503 304.287 268.65 304.46C268.81 304.62 268.89 304.833 268.89 305.1V305.36C268.89 305.627 268.81 305.847 268.65 306.02C268.503 306.18 268.257 306.26 267.91 306.26ZM267.11 308.68H268.71V319H267.11V308.68ZM275.95 319.24C275.23 319.24 274.583 319.113 274.01 318.86C273.437 318.607 272.95 318.247 272.55 317.78C272.163 317.313 271.863 316.747 271.65 316.08C271.45 315.413 271.35 314.667 271.35 313.84C271.35 313.013 271.45 312.267 271.65 311.6C271.863 310.933 272.163 310.367 272.55 309.9C272.95 309.433 273.437 309.073 274.01 308.82C274.583 308.567 275.23 308.44 275.95 308.44C276.977 308.44 277.797 308.667 278.41 309.12C279.037 309.56 279.503 310.14 279.81 310.86L278.47 311.54C278.283 311.007 277.977 310.593 277.55 310.3C277.123 310.007 276.59 309.86 275.95 309.86C275.47 309.86 275.05 309.94 274.69 310.1C274.33 310.247 274.03 310.46 273.79 310.74C273.55 311.007 273.37 311.333 273.25 311.72C273.13 312.093 273.07 312.507 273.07 312.96V314.72C273.07 315.627 273.31 316.373 273.79 316.96C274.283 317.533 275.003 317.82 275.95 317.82C277.243 317.82 278.177 317.22 278.75 316.02L279.91 316.8C279.577 317.547 279.077 318.14 278.41 318.58C277.757 319.02 276.937 319.24 275.95 319.24ZM282.169 304.2H283.769V313.58H283.849L285.429 311.82L288.349 308.68H290.289L286.469 312.76L290.669 319H288.729L285.309 313.74L283.769 315.32V319H282.169V304.2ZM295.62 319.24C294.66 319.24 293.854 319.06 293.2 318.7C292.56 318.327 292.007 317.833 291.54 317.22L292.68 316.3C293.08 316.807 293.527 317.2 294.02 317.48C294.514 317.747 295.087 317.88 295.74 317.88C296.42 317.88 296.947 317.733 297.32 317.44C297.707 317.147 297.9 316.733 297.9 316.2C297.9 315.8 297.767 315.46 297.5 315.18C297.247 314.887 296.78 314.687 296.1 314.58L295.28 314.46C294.8 314.393 294.36 314.293 293.96 314.16C293.56 314.013 293.207 313.827 292.9 313.6C292.607 313.36 292.374 313.067 292.2 312.72C292.04 312.373 291.96 311.96 291.96 311.48C291.96 310.973 292.054 310.533 292.24 310.16C292.427 309.773 292.68 309.453 293 309.2C293.334 308.947 293.727 308.76 294.18 308.64C294.634 308.507 295.12 308.44 295.64 308.44C296.48 308.44 297.18 308.587 297.74 308.88C298.314 309.173 298.814 309.58 299.24 310.1L298.18 311.06C297.954 310.74 297.62 310.453 297.18 310.2C296.74 309.933 296.187 309.8 295.52 309.8C294.854 309.8 294.347 309.947 294 310.24C293.667 310.52 293.5 310.907 293.5 311.4C293.5 311.907 293.667 312.273 294 312.5C294.347 312.727 294.84 312.893 295.48 313L296.28 313.12C297.427 313.293 298.24 313.627 298.72 314.12C299.2 314.6 299.44 315.233 299.44 316.02C299.44 317.02 299.1 317.807 298.42 318.38C297.74 318.953 296.807 319.24 295.62 319.24ZM304.41 319C303.85 319 303.423 318.847 303.13 318.54C302.85 318.22 302.71 317.807 302.71 317.3V310.08H301.01V308.68H301.97C302.316 308.68 302.55 308.613 302.67 308.48C302.803 308.333 302.87 308.087 302.87 307.74V305.82H304.31V308.68H306.57V310.08H304.31V317.6H306.41V319H304.41ZM316.641 319C316.041 319 315.608 318.84 315.341 318.52C315.088 318.2 314.928 317.8 314.861 317.32H314.761C314.535 317.96 314.161 318.44 313.641 318.76C313.121 319.08 312.501 319.24 311.781 319.24C310.688 319.24 309.835 318.96 309.221 318.4C308.621 317.84 308.321 317.08 308.321 316.12C308.321 315.147 308.675 314.4 309.381 313.88C310.101 313.36 311.215 313.1 312.721 313.1H314.761V312.08C314.761 311.347 314.561 310.787 314.161 310.4C313.761 310.013 313.148 309.82 312.321 309.82C311.695 309.82 311.168 309.96 310.741 310.24C310.328 310.52 309.981 310.893 309.701 311.36L308.741 310.46C309.021 309.9 309.468 309.427 310.081 309.04C310.695 308.64 311.468 308.44 312.401 308.44C313.655 308.44 314.628 308.747 315.321 309.36C316.015 309.973 316.361 310.827 316.361 311.92V317.6H317.541V319H316.641ZM312.041 317.88C312.441 317.88 312.808 317.833 313.141 317.74C313.475 317.647 313.761 317.513 314.001 317.34C314.241 317.167 314.428 316.967 314.561 316.74C314.695 316.513 314.761 316.267 314.761 316V314.3H312.641C311.721 314.3 311.048 314.433 310.621 314.7C310.208 314.967 310.001 315.353 310.001 315.86V316.28C310.001 316.787 310.181 317.18 310.541 317.46C310.915 317.74 311.415 317.88 312.041 317.88ZM319.825 319V308.68H321.425V310.58H321.525C321.712 310.087 322.045 309.647 322.525 309.26C323.005 308.873 323.665 308.68 324.505 308.68H325.125V310.28H324.185C323.318 310.28 322.638 310.447 322.145 310.78C321.665 311.1 321.425 311.507 321.425 312V319H319.825ZM329.527 319C328.967 319 328.54 318.847 328.247 318.54C327.967 318.22 327.827 317.807 327.827 317.3V310.08H326.127V308.68H327.087C327.434 308.68 327.667 308.613 327.787 308.48C327.92 308.333 327.987 308.087 327.987 307.74V305.82H329.427V308.68H331.687V310.08H329.427V317.6H331.527V319H329.527ZM341.265 319C340.705 319 340.278 318.847 339.985 318.54C339.705 318.22 339.565 317.807 339.565 317.3V310.08H337.865V308.68H338.825C339.172 308.68 339.405 308.613 339.525 308.48C339.658 308.333 339.725 308.087 339.725 307.74V305.82H341.165V308.68H343.425V310.08H341.165V317.6H343.265V319H341.265ZM345.997 304.2H347.597V310.36H347.677C347.93 309.773 348.284 309.307 348.737 308.96C349.204 308.613 349.824 308.44 350.597 308.44C351.664 308.44 352.504 308.787 353.117 309.48C353.744 310.16 354.057 311.127 354.057 312.38V319H352.457V312.66C352.457 310.807 351.677 309.88 350.117 309.88C349.797 309.88 349.484 309.92 349.177 310C348.884 310.08 348.617 310.2 348.377 310.36C348.137 310.52 347.944 310.727 347.797 310.98C347.664 311.22 347.597 311.507 347.597 311.84V319H345.997V304.2ZM361.244 319.24C360.537 319.24 359.897 319.113 359.324 318.86C358.764 318.607 358.277 318.247 357.864 317.78C357.464 317.3 357.151 316.733 356.924 316.08C356.711 315.413 356.604 314.667 356.604 313.84C356.604 313.027 356.711 312.287 356.924 311.62C357.151 310.953 357.464 310.387 357.864 309.92C358.277 309.44 358.764 309.073 359.324 308.82C359.897 308.567 360.537 308.44 361.244 308.44C361.937 308.44 362.557 308.567 363.104 308.82C363.651 309.073 364.117 309.427 364.504 309.88C364.891 310.32 365.184 310.847 365.384 311.46C365.597 312.073 365.704 312.747 365.704 313.48V314.24H358.284V314.72C358.284 315.16 358.351 315.573 358.484 315.96C358.631 316.333 358.831 316.66 359.084 316.94C359.351 317.22 359.671 317.44 360.044 317.6C360.431 317.76 360.864 317.84 361.344 317.84C361.997 317.84 362.564 317.687 363.044 317.38C363.537 317.073 363.917 316.633 364.184 316.06L365.324 316.88C364.991 317.587 364.471 318.16 363.764 318.6C363.057 319.027 362.217 319.24 361.244 319.24ZM361.244 309.78C360.804 309.78 360.404 309.86 360.044 310.02C359.684 310.167 359.371 310.38 359.104 310.66C358.851 310.94 358.651 311.273 358.504 311.66C358.357 312.033 358.284 312.447 358.284 312.9V313.04H363.984V312.82C363.984 311.9 363.731 311.167 363.224 310.62C362.731 310.06 362.071 309.78 361.244 309.78ZM369.141 306.26C368.794 306.26 368.541 306.18 368.381 306.02C368.234 305.847 368.161 305.627 368.161 305.36V305.1C368.161 304.833 368.234 304.62 368.381 304.46C368.541 304.287 368.794 304.2 369.141 304.2C369.487 304.2 369.734 304.287 369.881 304.46C370.041 304.62 370.121 304.833 370.121 305.1V305.36C370.121 305.627 370.041 305.847 369.881 306.02C369.734 306.18 369.487 306.26 369.141 306.26ZM368.341 308.68H369.941V319H368.341V308.68ZM373.341 319V308.68H374.941V310.58H375.041C375.227 310.087 375.561 309.647 376.041 309.26C376.521 308.873 377.181 308.68 378.021 308.68H378.641V310.28H377.701C376.834 310.28 376.154 310.447 375.661 310.78C375.181 311.1 374.941 311.507 374.941 312V319H373.341ZM385.411 308.68H387.011V310.36H387.091C387.358 309.707 387.744 309.227 388.251 308.92C388.771 308.6 389.391 308.44 390.111 308.44C390.751 308.44 391.331 308.567 391.851 308.82C392.371 309.073 392.811 309.433 393.171 309.9C393.544 310.367 393.824 310.933 394.011 311.6C394.211 312.267 394.311 313.013 394.311 313.84C394.311 314.667 394.211 315.413 394.011 316.08C393.824 316.747 393.544 317.313 393.171 317.78C392.811 318.247 392.371 318.607 391.851 318.86C391.331 319.113 390.751 319.24 390.111 319.24C388.711 319.24 387.704 318.6 387.091 317.32H387.011V323H385.411V308.68ZM389.671 317.8C390.578 317.8 391.291 317.52 391.811 316.96C392.331 316.387 392.591 315.64 392.591 314.72V312.96C392.591 312.04 392.331 311.3 391.811 310.74C391.291 310.167 390.578 309.88 389.671 309.88C389.311 309.88 388.964 309.933 388.631 310.04C388.311 310.133 388.031 310.267 387.791 310.44C387.551 310.613 387.358 310.827 387.211 311.08C387.078 311.32 387.011 311.58 387.011 311.86V315.7C387.011 316.033 387.078 316.333 387.211 316.6C387.358 316.853 387.551 317.073 387.791 317.26C388.031 317.433 388.311 317.567 388.631 317.66C388.964 317.753 389.311 317.8 389.671 317.8ZM397.013 319V308.68H398.613V310.58H398.713C398.899 310.087 399.233 309.647 399.713 309.26C400.193 308.873 400.853 308.68 401.693 308.68H402.313V310.28H401.373C400.506 310.28 399.826 310.447 399.333 310.78C398.853 311.1 398.613 311.507 398.613 312V319H397.013ZM408.159 319.24C407.465 319.24 406.832 319.113 406.259 318.86C405.685 318.607 405.192 318.247 404.779 317.78C404.379 317.3 404.065 316.733 403.839 316.08C403.612 315.413 403.499 314.667 403.499 313.84C403.499 313.027 403.612 312.287 403.839 311.62C404.065 310.953 404.379 310.387 404.779 309.92C405.192 309.44 405.685 309.073 406.259 308.82C406.832 308.567 407.465 308.44 408.159 308.44C408.852 308.44 409.479 308.567 410.039 308.82C410.612 309.073 411.105 309.44 411.519 309.92C411.932 310.387 412.252 310.953 412.479 311.62C412.705 312.287 412.819 313.027 412.819 313.84C412.819 314.667 412.705 315.413 412.479 316.08C412.252 316.733 411.932 317.3 411.519 317.78C411.105 318.247 410.612 318.607 410.039 318.86C409.479 319.113 408.852 319.24 408.159 319.24ZM408.159 317.82C409.025 317.82 409.732 317.553 410.279 317.02C410.825 316.487 411.099 315.673 411.099 314.58V313.1C411.099 312.007 410.825 311.193 410.279 310.66C409.732 310.127 409.025 309.86 408.159 309.86C407.292 309.86 406.585 310.127 406.039 310.66C405.492 311.193 405.219 312.007 405.219 313.1V314.58C405.219 315.673 405.492 316.487 406.039 317.02C406.585 317.553 407.292 317.82 408.159 317.82ZM415.45 308.68H417.05V320.6C417.05 321.32 416.87 321.9 416.51 322.34C416.15 322.78 415.583 323 414.81 323H413.77V321.6H415.45V308.68ZM416.25 306.26C415.903 306.26 415.65 306.18 415.49 306.02C415.343 305.847 415.27 305.627 415.27 305.36V305.1C415.27 304.833 415.343 304.62 415.49 304.46C415.65 304.287 415.903 304.2 416.25 304.2C416.597 304.2 416.843 304.287 416.99 304.46C417.15 304.62 417.23 304.833 417.23 305.1V305.36C417.23 305.627 417.15 305.847 416.99 306.02C416.843 306.18 416.597 306.26 416.25 306.26ZM424.33 319.24C423.623 319.24 422.983 319.113 422.41 318.86C421.85 318.607 421.363 318.247 420.95 317.78C420.55 317.3 420.237 316.733 420.01 316.08C419.797 315.413 419.69 314.667 419.69 313.84C419.69 313.027 419.797 312.287 420.01 311.62C420.237 310.953 420.55 310.387 420.95 309.92C421.363 309.44 421.85 309.073 422.41 308.82C422.983 308.567 423.623 308.44 424.33 308.44C425.023 308.44 425.643 308.567 426.19 308.82C426.737 309.073 427.203 309.427 427.59 309.88C427.977 310.32 428.27 310.847 428.47 311.46C428.683 312.073 428.79 312.747 428.79 313.48V314.24H421.37V314.72C421.37 315.16 421.437 315.573 421.57 315.96C421.717 316.333 421.917 316.66 422.17 316.94C422.437 317.22 422.757 317.44 423.13 317.6C423.517 317.76 423.95 317.84 424.43 317.84C425.083 317.84 425.65 317.687 426.13 317.38C426.623 317.073 427.003 316.633 427.27 316.06L428.41 316.88C428.077 317.587 427.557 318.16 426.85 318.6C426.143 319.027 425.303 319.24 424.33 319.24ZM424.33 309.78C423.89 309.78 423.49 309.86 423.13 310.02C422.77 310.167 422.457 310.38 422.19 310.66C421.937 310.94 421.737 311.273 421.59 311.66C421.443 312.033 421.37 312.447 421.37 312.9V313.04H427.07V312.82C427.07 311.9 426.817 311.167 426.31 310.62C425.817 310.06 425.157 309.78 424.33 309.78ZM435.267 319.24C434.547 319.24 433.9 319.113 433.327 318.86C432.753 318.607 432.267 318.247 431.867 317.78C431.48 317.313 431.18 316.747 430.967 316.08C430.767 315.413 430.667 314.667 430.667 313.84C430.667 313.013 430.767 312.267 430.967 311.6C431.18 310.933 431.48 310.367 431.867 309.9C432.267 309.433 432.753 309.073 433.327 308.82C433.9 308.567 434.547 308.44 435.267 308.44C436.293 308.44 437.113 308.667 437.727 309.12C438.353 309.56 438.82 310.14 439.127 310.86L437.787 311.54C437.6 311.007 437.293 310.593 436.867 310.3C436.44 310.007 435.907 309.86 435.267 309.86C434.787 309.86 434.367 309.94 434.007 310.1C433.647 310.247 433.347 310.46 433.107 310.74C432.867 311.007 432.687 311.333 432.567 311.72C432.447 312.093 432.387 312.507 432.387 312.96V314.72C432.387 315.627 432.627 316.373 433.107 316.96C433.6 317.533 434.32 317.82 435.267 317.82C436.56 317.82 437.493 317.22 438.067 316.02L439.227 316.8C438.893 317.547 438.393 318.14 437.727 318.58C437.073 319.02 436.253 319.24 435.267 319.24ZM443.765 319C443.205 319 442.778 318.847 442.485 318.54C442.205 318.22 442.065 317.807 442.065 317.3V310.08H440.365V308.68H441.325C441.672 308.68 441.905 308.613 442.025 308.48C442.158 308.333 442.225 308.087 442.225 307.74V305.82H443.665V308.68H445.925V310.08H443.665V317.6H445.765V319H443.765Z" fill="white"/>
<path d="M168.101 235V214.06H178.001C178.981 214.06 179.861 214.23 180.641 214.57C181.421 214.89 182.081 215.34 182.621 215.92C183.181 216.5 183.611 217.21 183.911 218.05C184.211 218.87 184.361 219.77 184.361 220.75C184.361 221.75 184.211 222.66 183.911 223.48C183.611 224.3 183.181 225 182.621 225.58C182.081 226.16 181.421 226.62 180.641 226.96C179.861 227.28 178.981 227.44 178.001 227.44H172.661V235H168.101ZM172.661 223.48H177.461C178.141 223.48 178.671 223.31 179.051 222.97C179.451 222.61 179.651 222.09 179.651 221.41V220.09C179.651 219.41 179.451 218.9 179.051 218.56C178.671 218.2 178.141 218.02 177.461 218.02H172.661V223.48ZM189.769 217.57C188.869 217.57 188.209 217.37 187.789 216.97C187.389 216.55 187.189 216.02 187.189 215.38V214.72C187.189 214.08 187.389 213.56 187.789 213.16C188.209 212.74 188.869 212.53 189.769 212.53C190.669 212.53 191.319 212.74 191.719 213.16C192.139 213.56 192.349 214.08 192.349 214.72V215.38C192.349 216.02 192.139 216.55 191.719 216.97C191.319 217.37 190.669 217.57 189.769 217.57ZM187.549 219.25H191.989V235H187.549V219.25ZM201.653 235C200.113 235 198.943 234.61 198.143 233.83C197.363 233.05 196.973 231.91 196.973 230.41V222.7H194.753V219.25H195.863C196.463 219.25 196.873 219.11 197.093 218.83C197.313 218.53 197.423 218.11 197.423 217.57V214.99H201.413V219.25H204.533V222.7H201.413V231.55H204.293V235H201.653ZM213.86 235.36C212.68 235.36 211.63 235.17 210.71 234.79C209.79 234.39 209.02 233.84 208.4 233.14C207.78 232.42 207.31 231.55 206.99 230.53C206.67 229.51 206.51 228.37 206.51 227.11C206.51 225.85 206.67 224.72 206.99 223.72C207.31 222.7 207.78 221.83 208.4 221.11C209.02 220.39 209.79 219.84 210.71 219.46C211.63 219.08 212.68 218.89 213.86 218.89C215.46 218.89 216.79 219.25 217.85 219.97C218.93 220.69 219.7 221.7 220.16 223L216.56 224.56C216.42 223.96 216.13 223.45 215.69 223.03C215.25 222.61 214.64 222.4 213.86 222.4C212.96 222.4 212.28 222.7 211.82 223.3C211.36 223.88 211.13 224.67 211.13 225.67V228.61C211.13 229.61 211.36 230.4 211.82 230.98C212.28 231.56 212.96 231.85 213.86 231.85C214.66 231.85 215.29 231.64 215.75 231.22C216.23 230.78 216.58 230.21 216.8 229.51L220.25 231.01C219.73 232.51 218.92 233.61 217.82 234.31C216.74 235.01 215.42 235.36 213.86 235.36ZM222.998 212.8H227.438V221.92H227.618C227.898 221.1 228.388 220.39 229.088 219.79C229.788 219.19 230.758 218.89 231.998 218.89C233.618 218.89 234.838 219.43 235.658 220.51C236.498 221.59 236.918 223.13 236.918 225.13V235H232.478V225.49C232.478 224.47 232.318 223.72 231.998 223.24C231.678 222.74 231.108 222.49 230.288 222.49C229.928 222.49 229.578 222.54 229.238 222.64C228.898 222.72 228.588 222.86 228.308 223.06C228.048 223.26 227.838 223.51 227.678 223.81C227.518 224.09 227.438 224.42 227.438 224.8V235H222.998V212.8ZM256.659 235.36C255.239 235.36 253.959 235.14 252.819 234.7C251.679 234.24 250.709 233.57 249.909 232.69C249.109 231.79 248.489 230.68 248.049 229.36C247.609 228.02 247.389 226.46 247.389 224.68C247.389 222.92 247.609 221.36 248.049 220C248.489 218.62 249.109 217.47 249.909 216.55C250.709 215.61 251.679 214.9 252.819 214.42C253.959 213.94 255.239 213.7 256.659 213.7C258.599 213.7 260.199 214.1 261.459 214.9C262.719 215.68 263.729 216.92 264.489 218.62L260.559 220.66C260.279 219.78 259.839 219.08 259.239 218.56C258.659 218.02 257.799 217.75 256.659 217.75C255.319 217.75 254.239 218.19 253.419 219.07C252.619 219.93 252.219 221.19 252.219 222.85V226.21C252.219 227.87 252.619 229.14 253.419 230.02C254.239 230.88 255.319 231.31 256.659 231.31C257.779 231.31 258.669 231.01 259.329 230.41C260.009 229.79 260.509 229.05 260.829 228.19L264.549 230.35C263.769 231.95 262.739 233.19 261.459 234.07C260.199 234.93 258.599 235.36 256.659 235.36ZM273.89 235.36C272.73 235.36 271.69 235.17 270.77 234.79C269.87 234.41 269.1 233.86 268.46 233.14C267.84 232.42 267.36 231.55 267.02 230.53C266.68 229.51 266.51 228.37 266.51 227.11C266.51 225.85 266.68 224.71 267.02 223.69C267.36 222.67 267.84 221.81 268.46 221.11C269.1 220.39 269.87 219.84 270.77 219.46C271.69 219.08 272.73 218.89 273.89 218.89C275.05 218.89 276.08 219.08 276.98 219.46C277.9 219.84 278.67 220.39 279.29 221.11C279.93 221.81 280.42 222.67 280.76 223.69C281.1 224.71 281.27 225.85 281.27 227.11C281.27 228.37 281.1 229.51 280.76 230.53C280.42 231.55 279.93 232.42 279.29 233.14C278.67 233.86 277.9 234.41 276.98 234.79C276.08 235.17 275.05 235.36 273.89 235.36ZM273.89 231.85C274.77 231.85 275.45 231.58 275.93 231.04C276.41 230.5 276.65 229.73 276.65 228.73V225.52C276.65 224.52 276.41 223.75 275.93 223.21C275.45 222.67 274.77 222.4 273.89 222.4C273.01 222.4 272.33 222.67 271.85 223.21C271.37 223.75 271.13 224.52 271.13 225.52V228.73C271.13 229.73 271.37 230.5 271.85 231.04C272.33 231.58 273.01 231.85 273.89 231.85ZM284.433 235V219.25H288.873V221.92H289.053C289.333 221.08 289.813 220.37 290.493 219.79C291.173 219.19 292.103 218.89 293.283 218.89C294.363 218.89 295.283 219.16 296.043 219.7C296.803 220.24 297.353 221.03 297.693 222.07H297.783C297.923 221.63 298.133 221.22 298.413 220.84C298.713 220.44 299.073 220.1 299.493 219.82C299.913 219.54 300.383 219.32 300.903 219.16C301.423 218.98 301.983 218.89 302.583 218.89C304.103 218.89 305.263 219.43 306.063 220.51C306.883 221.59 307.293 223.13 307.293 225.13V235H302.853V225.49C302.853 223.49 302.133 222.49 300.693 222.49C300.033 222.49 299.433 222.68 298.893 223.06C298.353 223.44 298.083 224.02 298.083 224.8V235H293.643V225.49C293.643 223.49 292.923 222.49 291.483 222.49C291.163 222.49 290.843 222.54 290.523 222.64C290.223 222.72 289.943 222.86 289.683 223.06C289.443 223.26 289.243 223.51 289.083 223.81C288.943 224.09 288.873 224.42 288.873 224.8V235H284.433ZM311.24 219.25H315.68V221.89H315.83C316.05 221.01 316.55 220.29 317.33 219.73C318.13 219.17 319.04 218.89 320.06 218.89C322.06 218.89 323.57 219.59 324.59 220.99C325.61 222.39 326.12 224.43 326.12 227.11C326.12 229.79 325.61 231.84 324.59 233.26C323.57 234.66 322.06 235.36 320.06 235.36C319.54 235.36 319.05 235.28 318.59 235.12C318.13 234.98 317.71 234.78 317.33 234.52C316.97 234.24 316.66 233.92 316.4 233.56C316.14 233.18 315.95 232.78 315.83 232.36H315.68V241H311.24V219.25ZM318.59 231.76C319.43 231.76 320.12 231.47 320.66 230.89C321.22 230.29 321.5 229.49 321.5 228.49V225.76C321.5 224.76 321.22 223.97 320.66 223.39C320.12 222.79 319.43 222.49 318.59 222.49C317.75 222.49 317.05 222.7 316.49 223.12C315.95 223.52 315.68 224.08 315.68 224.8V229.45C315.68 230.17 315.95 230.74 316.49 231.16C317.05 231.56 317.75 231.76 318.59 231.76ZM336.062 235.36C334.862 235.36 333.792 235.17 332.852 234.79C331.912 234.39 331.112 233.84 330.452 233.14C329.812 232.42 329.322 231.55 328.982 230.53C328.662 229.51 328.502 228.37 328.502 227.11C328.502 225.87 328.662 224.75 328.982 223.75C329.302 222.73 329.772 221.86 330.392 221.14C331.032 220.42 331.812 219.87 332.732 219.49C333.652 219.09 334.702 218.89 335.882 218.89C337.182 218.89 338.292 219.11 339.212 219.55C340.152 219.99 340.912 220.58 341.492 221.32C342.092 222.06 342.522 222.92 342.782 223.9C343.062 224.86 343.202 225.87 343.202 226.93V228.25H333.092V228.49C333.092 229.53 333.372 230.36 333.932 230.98C334.492 231.58 335.372 231.88 336.572 231.88C337.492 231.88 338.242 231.7 338.822 231.34C339.402 230.96 339.942 230.51 340.442 229.99L342.662 232.75C341.962 233.57 341.042 234.21 339.902 234.67C338.782 235.13 337.502 235.36 336.062 235.36ZM335.972 222.16C335.072 222.16 334.362 222.46 333.842 223.06C333.342 223.64 333.092 224.42 333.092 225.4V225.64H338.612V225.37C338.612 224.41 338.392 223.64 337.952 223.06C337.532 222.46 336.872 222.16 335.972 222.16ZM351.858 235C350.318 235 349.148 234.61 348.348 233.83C347.568 233.05 347.178 231.91 347.178 230.41V222.7H344.958V219.25H346.068C346.668 219.25 347.078 219.11 347.298 218.83C347.518 218.53 347.628 218.11 347.628 217.57V214.99H351.618V219.25H354.738V222.7H351.618V231.55H354.498V235H351.858ZM360.042 217.57C359.142 217.57 358.482 217.37 358.062 216.97C357.662 216.55 357.462 216.02 357.462 215.38V214.72C357.462 214.08 357.662 213.56 358.062 213.16C358.482 212.74 359.142 212.53 360.042 212.53C360.942 212.53 361.592 212.74 361.992 213.16C362.412 213.56 362.622 214.08 362.622 214.72V215.38C362.622 216.02 362.412 216.55 361.992 216.97C361.592 217.37 360.942 217.57 360.042 217.57ZM357.822 219.25H362.262V235H357.822V219.25ZM371.926 235C370.386 235 369.216 234.61 368.416 233.83C367.636 233.05 367.246 231.91 367.246 230.41V222.7H365.026V219.25H366.136C366.736 219.25 367.146 219.11 367.366 218.83C367.586 218.53 367.696 218.11 367.696 217.57V214.99H371.686V219.25H374.806V222.7H371.686V231.55H374.566V235H371.926ZM380.11 217.57C379.21 217.57 378.55 217.37 378.13 216.97C377.73 216.55 377.53 216.02 377.53 215.38V214.72C377.53 214.08 377.73 213.56 378.13 213.16C378.55 212.74 379.21 212.53 380.11 212.53C381.01 212.53 381.66 212.74 382.06 213.16C382.48 213.56 382.69 214.08 382.69 214.72V215.38C382.69 216.02 382.48 216.55 382.06 216.97C381.66 217.37 381.01 217.57 380.11 217.57ZM377.89 219.25H382.33V235H377.89V219.25ZM392.864 235.36C391.704 235.36 390.664 235.17 389.744 234.79C388.844 234.41 388.074 233.86 387.434 233.14C386.814 232.42 386.334 231.55 385.994 230.53C385.654 229.51 385.484 228.37 385.484 227.11C385.484 225.85 385.654 224.71 385.994 223.69C386.334 222.67 386.814 221.81 387.434 221.11C388.074 220.39 388.844 219.84 389.744 219.46C390.664 219.08 391.704 218.89 392.864 218.89C394.024 218.89 395.054 219.08 395.954 219.46C396.874 219.84 397.644 220.39 398.264 221.11C398.904 221.81 399.394 222.67 399.734 223.69C400.074 224.71 400.244 225.85 400.244 227.11C400.244 228.37 400.074 229.51 399.734 230.53C399.394 231.55 398.904 232.42 398.264 233.14C397.644 233.86 396.874 234.41 395.954 234.79C395.054 235.17 394.024 235.36 392.864 235.36ZM392.864 231.85C393.744 231.85 394.424 231.58 394.904 231.04C395.384 230.5 395.624 229.73 395.624 228.73V225.52C395.624 224.52 395.384 223.75 394.904 223.21C394.424 222.67 393.744 222.4 392.864 222.4C391.984 222.4 391.304 222.67 390.824 223.21C390.344 223.75 390.104 224.52 390.104 225.52V228.73C390.104 229.73 390.344 230.5 390.824 231.04C391.304 231.58 391.984 231.85 392.864 231.85ZM403.408 235V219.25H407.848V221.92H408.028C408.308 221.1 408.798 220.39 409.498 219.79C410.198 219.19 411.168 218.89 412.408 218.89C414.028 218.89 415.248 219.43 416.068 220.51C416.908 221.59 417.328 223.13 417.328 225.13V235H412.888V225.49C412.888 224.47 412.728 223.72 412.408 223.24C412.088 222.74 411.518 222.49 410.698 222.49C410.338 222.49 409.988 222.54 409.648 222.64C409.308 222.72 408.998 222.86 408.718 223.06C408.458 223.26 408.248 223.51 408.088 223.81C407.928 224.09 407.848 224.42 407.848 224.8V235H403.408Z" fill="white"/>
<rect x="27" y="25" width="558" height="354" rx="10" stroke="#3D9AE2" stroke-width="10"/>
<circle cx="292" cy="89" r="25.5" stroke="white" stroke-width="5"/>
<path d="M295.813 69.2835C291.733 68.58 287.534 69.1936 283.826 71.0356C280.117 72.8776 277.091 75.8522 275.186 79.5288C273.281 83.2053 272.596 87.3927 273.23 91.4847C273.864 95.5766 275.783 99.3606 278.711 102.289C281.639 105.216 285.423 107.136 289.515 107.77C293.607 108.404 297.795 107.719 301.471 105.814C305.148 103.909 308.122 100.883 309.964 97.1744C311.806 93.4659 312.42 89.2674 311.716 85.1868C311.032 81.2183 309.136 77.559 306.289 74.7114C303.441 71.8638 299.782 69.9677 295.813 69.2835ZM290.331 86.3352H294.426C295.83 86.2728 297.217 86.6593 298.385 87.4385C299.554 88.2177 300.444 89.3491 300.926 90.6685C301.277 91.6596 301.382 92.721 301.233 93.7616C301.083 94.8022 300.683 95.791 300.067 96.6432C299.452 97.4953 298.639 98.1854 297.698 98.6543C296.757 99.1232 295.716 99.3568 294.665 99.3351V101.502C294.665 102.076 294.437 102.628 294.03 103.034C293.624 103.44 293.073 103.668 292.498 103.668C291.924 103.668 291.372 103.44 290.966 103.034C290.56 102.628 290.331 102.076 290.331 101.502V99.3351H285.998C285.424 99.3351 284.872 99.1069 284.466 98.7005C284.06 98.2942 283.831 97.7431 283.831 97.1685C283.831 96.5938 284.06 96.0427 284.466 95.6364C284.872 95.2301 285.424 95.0018 285.998 95.0018H294.665C295.239 95.0018 295.791 94.7735 296.197 94.3672C296.603 93.9609 296.831 93.4098 296.831 92.8351C296.831 92.2605 296.603 91.7094 296.197 91.3031C295.791 90.8968 295.239 90.6685 294.665 90.6685H290.57C289.185 90.7076 287.822 90.3102 286.675 89.5325C285.528 88.7549 284.655 87.6364 284.178 86.3352C283.831 85.3528 283.725 84.3012 283.869 83.2693C284.013 82.2373 284.403 81.2551 285.006 80.4055C285.61 79.5558 286.408 78.8637 287.335 78.3873C288.262 77.911 289.289 77.6645 290.331 77.6685V75.5018C290.331 74.9272 290.56 74.3761 290.966 73.9698C291.372 73.5634 291.924 73.3352 292.498 73.3352C293.073 73.3352 293.624 73.5634 294.03 73.9698C294.437 74.3761 294.665 74.9272 294.665 75.5018V77.6685H298.998C299.573 77.6685 300.124 77.8968 300.53 78.3031C300.937 78.7094 301.165 79.2605 301.165 79.8352C301.165 80.4098 300.937 80.9609 300.53 81.3672C300.124 81.7736 299.573 82.0018 298.998 82.0018H290.331C289.757 82.0018 289.206 82.2301 288.799 82.6364C288.393 83.0428 288.165 83.5939 288.165 84.1685C288.165 84.7431 288.393 85.2942 288.799 85.7006C289.206 86.1069 289.757 86.3352 290.331 86.3352Z" fill="white"/>
<path d="M259.828 169.547H252.141V173.391H259.828V169.547Z" fill="white"/>
<path d="M242.531 148.406V183H307.875V132.801L299.073 147.465C298.266 148.829 301.84 148.406 242.531 148.406ZM263.672 175.313C263.672 175.822 263.469 176.311 263.109 176.672C262.749 177.032 262.26 177.234 261.75 177.234H250.219C249.709 177.234 249.22 177.032 248.86 176.672C248.499 176.311 248.297 175.822 248.297 175.313V167.625C248.297 167.115 248.499 166.626 248.86 166.266C249.22 165.906 249.709 165.703 250.219 165.703H261.75C262.26 165.703 262.749 165.906 263.109 166.266C263.469 166.626 263.672 167.115 263.672 167.625V175.313Z" fill="white"/>
<path d="M311.719 132.801V183H342.469V148.406H322.174C320.655 148.406 321.021 148.406 311.719 132.801Z" fill="white"/>
<path d="M323.25 144.562H354L342.469 125.344H311.719L323.25 144.562Z" fill="white"/>
<path d="M231 144.562H296.344L307.875 125.344H242.531L231 144.562Z" fill="white"/>
</svg>
