<svg width="433" height="286" viewBox="0 0 433 286" fill="none" xmlns="http://www.w3.org/2000/svg">
<rect x="5" y="5" width="406.854" height="258.87" rx="10" stroke="#BDDBFF" stroke-width="10"/>
<path d="M159.013 215.36C157.173 215.36 155.613 215.05 154.333 214.43C153.053 213.79 151.963 212.97 151.063 211.97L154.063 208.94C155.483 210.54 157.233 211.34 159.313 211.34C160.433 211.34 161.263 211.11 161.803 210.65C162.343 210.19 162.613 209.58 162.613 208.82C162.613 208.24 162.453 207.76 162.133 207.38C161.813 206.98 161.163 206.71 160.183 206.57L158.113 206.3C155.893 206.02 154.263 205.35 153.223 204.29C152.203 203.23 151.693 201.82 151.693 200.06C151.693 199.12 151.873 198.26 152.233 197.48C152.593 196.7 153.103 196.03 153.763 195.47C154.443 194.91 155.263 194.48 156.223 194.18C157.203 193.86 158.313 193.7 159.553 193.7C161.133 193.7 162.523 193.95 163.723 194.45C164.923 194.95 165.953 195.68 166.813 196.64L163.783 199.7C163.283 199.12 162.673 198.65 161.953 198.29C161.253 197.91 160.363 197.72 159.283 197.72C158.263 197.72 157.503 197.9 157.003 198.26C156.503 198.62 156.253 199.12 156.253 199.76C156.253 200.48 156.443 201 156.823 201.32C157.223 201.64 157.863 201.87 158.743 202.01L160.813 202.34C162.973 202.68 164.573 203.35 165.613 204.35C166.653 205.33 167.173 206.73 167.173 208.55C167.173 209.55 166.993 210.47 166.633 211.31C166.273 212.15 165.743 212.87 165.043 213.47C164.363 214.07 163.513 214.54 162.493 214.88C161.473 215.2 160.313 215.36 159.013 215.36ZM170.714 199.25H175.154V201.89H175.304C175.524 201.01 176.024 200.29 176.804 199.73C177.604 199.17 178.514 198.89 179.534 198.89C181.534 198.89 183.044 199.59 184.064 200.99C185.084 202.39 185.594 204.43 185.594 207.11C185.594 209.79 185.084 211.84 184.064 213.26C183.044 214.66 181.534 215.36 179.534 215.36C179.014 215.36 178.524 215.28 178.064 215.12C177.604 214.98 177.184 214.78 176.804 214.52C176.444 214.24 176.134 213.92 175.874 213.56C175.614 213.18 175.424 212.78 175.304 212.36H175.154V221H170.714V199.25ZM178.064 211.76C178.904 211.76 179.594 211.47 180.134 210.89C180.694 210.29 180.974 209.49 180.974 208.49V205.76C180.974 204.76 180.694 203.97 180.134 203.39C179.594 202.79 178.904 202.49 178.064 202.49C177.224 202.49 176.524 202.7 175.964 203.12C175.424 203.52 175.154 204.08 175.154 204.8V209.45C175.154 210.17 175.424 210.74 175.964 211.16C176.524 211.56 177.224 211.76 178.064 211.76ZM195.536 215.36C194.336 215.36 193.266 215.17 192.326 214.79C191.386 214.39 190.586 213.84 189.926 213.14C189.286 212.42 188.796 211.55 188.456 210.53C188.136 209.51 187.976 208.37 187.976 207.11C187.976 205.87 188.136 204.75 188.456 203.75C188.776 202.73 189.246 201.86 189.866 201.14C190.506 200.42 191.286 199.87 192.206 199.49C193.126 199.09 194.176 198.89 195.356 198.89C196.656 198.89 197.766 199.11 198.686 199.55C199.626 199.99 200.386 200.58 200.966 201.32C201.566 202.06 201.996 202.92 202.256 203.9C202.536 204.86 202.676 205.87 202.676 206.93V208.25H192.566V208.49C192.566 209.53 192.846 210.36 193.406 210.98C193.966 211.58 194.846 211.88 196.046 211.88C196.966 211.88 197.716 211.7 198.296 211.34C198.876 210.96 199.416 210.51 199.916 209.99L202.136 212.75C201.436 213.57 200.516 214.21 199.376 214.67C198.256 215.13 196.976 215.36 195.536 215.36ZM195.446 202.16C194.546 202.16 193.836 202.46 193.316 203.06C192.816 203.64 192.566 204.42 192.566 205.4V205.64H198.086V205.37C198.086 204.41 197.866 203.64 197.426 203.06C197.006 202.46 196.346 202.16 195.446 202.16ZM217.451 215C216.651 215 215.981 214.75 215.441 214.25C214.921 213.75 214.591 213.08 214.451 212.24H214.271C214.031 213.26 213.501 214.04 212.681 214.58C211.861 215.1 210.851 215.36 209.651 215.36C208.071 215.36 206.861 214.94 206.021 214.1C205.181 213.26 204.761 212.15 204.761 210.77C204.761 209.11 205.361 207.88 206.561 207.08C207.781 206.26 209.431 205.85 211.511 205.85H214.001V204.86C214.001 204.1 213.801 203.5 213.401 203.06C213.001 202.6 212.331 202.37 211.391 202.37C210.511 202.37 209.811 202.56 209.291 202.94C208.771 203.32 208.341 203.75 208.001 204.23L205.361 201.89C206.001 200.95 206.801 200.22 207.761 199.7C208.741 199.16 210.061 198.89 211.721 198.89C213.961 198.89 215.641 199.38 216.761 200.36C217.881 201.34 218.441 202.77 218.441 204.65V211.55H219.911V215H217.451ZM211.301 212.27C212.041 212.27 212.671 212.11 213.191 211.79C213.731 211.47 214.001 210.95 214.001 210.23V208.37H211.841C210.101 208.37 209.231 208.96 209.231 210.14V210.59C209.231 211.17 209.411 211.6 209.771 211.88C210.131 212.14 210.641 212.27 211.301 212.27ZM222.891 192.8H227.331V205.91H227.511L229.461 203L232.611 199.25H237.531L232.281 205.28L238.131 215H232.851L229.311 208.34L227.331 210.56V215H222.891V192.8ZM245.956 215.36C244.756 215.36 243.686 215.17 242.746 214.79C241.806 214.39 241.006 213.84 240.346 213.14C239.706 212.42 239.216 211.55 238.876 210.53C238.556 209.51 238.396 208.37 238.396 207.11C238.396 205.87 238.556 204.75 238.876 203.75C239.196 202.73 239.666 201.86 240.286 201.14C240.926 200.42 241.706 199.87 242.626 199.49C243.546 199.09 244.596 198.89 245.776 198.89C247.076 198.89 248.186 199.11 249.106 199.55C250.046 199.99 250.806 200.58 251.386 201.32C251.986 202.06 252.416 202.92 252.676 203.9C252.956 204.86 253.096 205.87 253.096 206.93V208.25H242.986V208.49C242.986 209.53 243.266 210.36 243.826 210.98C244.386 211.58 245.266 211.88 246.466 211.88C247.386 211.88 248.136 211.7 248.716 211.34C249.296 210.96 249.836 210.51 250.336 209.99L252.556 212.75C251.856 213.57 250.936 214.21 249.796 214.67C248.676 215.13 247.396 215.36 245.956 215.36ZM245.866 202.16C244.966 202.16 244.256 202.46 243.736 203.06C243.236 203.64 242.986 204.42 242.986 205.4V205.64H248.506V205.37C248.506 204.41 248.286 203.64 247.846 203.06C247.426 202.46 246.766 202.16 245.866 202.16ZM256.231 215V199.25H260.671V202.67H260.821C260.901 202.23 261.041 201.81 261.241 201.41C261.441 200.99 261.701 200.62 262.021 200.3C262.361 199.98 262.761 199.73 263.221 199.55C263.681 199.35 264.221 199.25 264.841 199.25H265.621V203.39H264.511C263.211 203.39 262.241 203.56 261.601 203.9C260.981 204.24 260.671 204.87 260.671 205.79V215H256.231ZM273.7 215.36C272.18 215.36 270.9 215.12 269.86 214.64C268.82 214.14 267.89 213.44 267.07 212.54L269.68 209.9C270.24 210.52 270.86 211.01 271.54 211.37C272.22 211.73 272.99 211.91 273.85 211.91C274.73 211.91 275.34 211.78 275.68 211.52C276.02 211.24 276.19 210.87 276.19 210.41C276.19 209.67 275.66 209.23 274.6 209.09L272.89 208.88C269.35 208.44 267.58 206.82 267.58 204.02C267.58 203.26 267.72 202.57 268 201.95C268.3 201.31 268.71 200.77 269.23 200.33C269.77 199.87 270.41 199.52 271.15 199.28C271.91 199.02 272.76 198.89 273.7 198.89C274.52 198.89 275.24 198.95 275.86 199.07C276.5 199.17 277.06 199.33 277.54 199.55C278.04 199.75 278.49 200.01 278.89 200.33C279.31 200.63 279.72 200.97 280.12 201.35L277.57 203.96C277.07 203.46 276.5 203.07 275.86 202.79C275.24 202.49 274.6 202.34 273.94 202.34C273.18 202.34 272.64 202.46 272.32 202.7C272 202.94 271.84 203.26 271.84 203.66C271.84 204.08 271.95 204.41 272.17 204.65C272.41 204.87 272.85 205.03 273.49 205.13L275.26 205.37C278.72 205.83 280.45 207.41 280.45 210.11C280.45 210.87 280.29 211.57 279.97 212.21C279.65 212.85 279.19 213.41 278.59 213.89C278.01 214.35 277.3 214.71 276.46 214.97C275.64 215.23 274.72 215.36 273.7 215.36Z" fill="white"/>
<rect x="21.1457" y="19.8959" width="406.854" height="261.104" rx="10" stroke="#3D9AE2" stroke-width="10"/>
<path d="M217.455 83.1466C226.146 83.1466 233.19 76.1742 233.19 67.5733C233.19 58.9724 226.146 52 217.455 52C208.765 52 201.72 58.9724 201.72 67.5733C201.72 76.1742 208.765 83.1466 217.455 83.1466Z" fill="white"/>
<path d="M259.593 134.012C260.634 131.2 259.033 128.899 256.034 128.899H178.877C175.878 128.899 174.276 131.2 175.318 134.012L177.945 141.105C178.987 143.917 181.101 146.218 182.644 146.218C184.186 146.218 185.903 148.629 186.46 151.576L189.681 168.642C190.237 171.589 193.146 174 196.145 174H238.766C241.764 174 244.673 171.589 245.23 168.642L248.451 151.576C249.007 148.629 250.724 146.218 252.267 146.218C253.809 146.218 255.924 143.917 256.965 141.105L259.593 134.012Z" fill="white"/>
<path d="M232.799 109V108.497L232.504 125.5H203.297L203.002 108.497V109L202.909 104.566C202.241 105.357 201.664 106.311 201.191 107.43C200.173 109.811 200.009 111.504 199.813 114.009L198.928 125.5H186C186.167 121.873 186.53 118.22 187.069 114.542C187.46 109.175 188.098 105.408 190.474 100.389C194.639 91.6038 200.029 86.9546 208.216 86.0001L213.987 100.574L216.013 91.3165H215.118C214.378 91.3165 213.781 90.7109 213.781 89.9822V87.8064C213.781 87.0675 214.388 86.4722 215.118 86.4722L220.683 86.4721C221.413 86.4721 222.02 87.0674 222.02 87.8063V89.9822C222.02 90.7108 221.423 91.3164 220.683 91.3164H219.788L221.814 100.574L227.584 86C235.772 86.9545 241.161 91.6037 245.327 100.389C247.703 105.408 248.341 109.174 248.732 114.542C249.271 118.22 249.634 121.873 249.801 125.5H236.873L235.988 114.008C235.792 111.504 235.628 109.811 234.61 107.43C234.136 106.311 233.56 105.357 232.892 104.566L232.799 109Z" fill="white"/>
</svg>
